<svg width="289" height="201" viewBox="0 0 289 201" fill="none" xmlns="http://www.w3.org/2000/svg">
<path d="M81.5566 108C81.5566 143.516 39.4233 117.52 39.4233 140.562" stroke="#94A3B8" stroke-width="2"/>
<path d="M81.5566 108C81.5566 144.221 118.498 117.52 118.498 140.562" stroke="#94A3B8" stroke-width="2"/>
<path d="M189.785 144C144.69 144 164.68 94.5002 125.581 94.5002" stroke="url(#paint0_linear_2136_5256)" stroke-width="2"/>
<path d="M170.075 177.411C138.823 177.411 152.664 94.5003 125.581 94.5003" stroke="url(#paint1_linear_2136_5256)" stroke-width="2"/>
<path d="M180.02 107.86C153.478 108.828 147.257 94.4993 125.581 94.4993" stroke="#94A3B8" stroke-width="2"/>
<path d="M118.497 142L114.658 137.296L122.336 137.296L118.497 142Z" fill="#93A7BE"/>
<path d="M39.4231 142L35.5841 137.296L43.2621 137.296L39.4231 142Z" fill="#93A7BE"/>
<path d="M174.842 177.411L170.138 181.25L170.138 173.572L174.842 177.411Z" fill="#93A7BE"/>
<path d="M194.073 144L189.369 147.839L189.369 140.161L194.073 144Z" fill="#93A7BE"/>
<path d="M184.483 108L179.779 111.839L179.779 104.161L184.483 108Z" fill="#93A7BE"/>
<rect x="11.9395" y="142" width="54" height="28" rx="6" fill="#37B26C"/>
<path d="M20.4991 151.31H21.9991C22.9091 151.31 23.4691 150.78 23.4691 150C23.4691 149.19 22.9091 148.66 21.9991 148.66H20.4991V151.31ZM22.1291 152.06H20.4991V155H19.6591V147.91H22.1291C23.4391 147.91 24.3091 148.81 24.3091 149.99C24.3091 151.18 23.4391 152.06 22.1291 152.06ZM24.7418 153.73C24.7418 152.89 25.3318 152.42 26.1718 152.3L27.4618 152.11C27.8118 152.06 27.8918 151.91 27.8918 151.7C27.8918 151.16 27.5318 150.75 26.7818 150.75C26.0818 150.75 25.6618 151.17 25.5918 151.78L24.8318 151.6C24.9318 150.69 25.7318 150.07 26.7618 150.07C28.1218 150.07 28.6918 150.85 28.6918 151.78V154.2C28.6918 154.6 28.7218 154.85 28.7518 155H27.9718C27.9518 154.89 27.9118 154.65 27.9118 154.28C27.7018 154.67 27.1818 155.14 26.3218 155.14C25.3318 155.14 24.7418 154.46 24.7418 153.73ZM26.4218 154.46C27.2518 154.46 27.8918 154 27.8918 152.98V152.66L26.3318 152.89C25.8718 152.96 25.5418 153.22 25.5418 153.69C25.5418 154.08 25.8718 154.46 26.4218 154.46ZM31.192 156.9H30.302L31.462 154.43L29.402 150.21H30.322L31.902 153.6L33.392 150.21H34.262L31.192 156.9ZM35.8864 150.21V150.89C36.1564 150.39 36.7364 150.07 37.3564 150.07C38.0164 150.07 38.5864 150.42 38.8264 151.05C39.1664 150.37 39.7664 150.07 40.4464 150.07C41.3164 150.07 42.0964 150.67 42.0964 151.87V155H41.2964V151.96C41.2964 151.3 40.9464 150.79 40.1964 150.79C39.4864 150.79 39.0064 151.37 39.0064 152.09V155H38.2064V151.96C38.2064 151.3 37.8564 150.79 37.0964 150.79C36.3764 150.79 35.9064 151.35 35.9064 152.1V155H35.1064V150.21H35.8864ZM44.0027 152.14H46.8627C46.8427 151.38 46.3527 150.78 45.4427 150.78C44.6127 150.78 44.0527 151.43 44.0027 152.14ZM46.9727 153.39L47.6627 153.64C47.3927 154.47 46.6427 155.14 45.5327 155.14C44.2527 155.14 43.1627 154.2 43.1627 152.59C43.1627 151.08 44.2227 150.07 45.4327 150.07C46.8827 150.07 47.6927 151.08 47.6927 152.54C47.6927 152.64 47.6827 152.75 47.6727 152.82H43.9827V152.86C43.9827 153.77 44.6727 154.42 45.5327 154.42C46.3427 154.42 46.7827 153.96 46.9727 153.39ZM49.6029 152.18V155H48.8029V150.21H49.5829V150.93C49.8929 150.37 50.4529 150.07 51.0829 150.07C52.2329 150.07 52.7929 150.89 52.7929 151.93V155H51.9929V152.05C51.9929 151.35 51.6729 150.79 50.8029 150.79C50.0329 150.79 49.6029 151.43 49.6029 152.18ZM55.3023 148.69V150.21H56.4323V150.93H55.3023V153.58C55.3023 154.08 55.5223 154.33 56.0323 154.33C56.1723 154.33 56.3523 154.3 56.4323 154.28V154.96C56.3423 154.99 56.1123 155.05 55.8023 155.05C55.0123 155.05 54.5023 154.56 54.5023 153.69V150.93H53.5423V150.21H53.8523C54.3423 150.21 54.5523 149.93 54.5523 149.48V148.69H55.3023ZM28.046 159.52L27.296 159.79C27.186 159.19 26.716 158.53 25.696 158.52C24.876 158.52 24.226 159.06 24.226 159.78C24.226 160.35 24.596 160.76 25.246 160.9L26.286 161.13C27.426 161.38 28.106 162.09 28.106 163.09C28.106 164.18 27.176 165.14 25.696 165.14C24.056 165.14 23.226 164.07 23.096 163.03L23.886 162.78C23.966 163.62 24.576 164.38 25.696 164.38C26.716 164.38 27.266 163.84 27.266 163.16C27.266 162.58 26.866 162.13 26.116 161.96L25.076 161.73C24.096 161.51 23.386 160.87 23.386 159.83C23.386 158.72 24.406 157.77 25.686 157.77C27.216 157.77 27.866 158.7 28.046 159.52ZM29.7947 162.14H32.6547C32.6347 161.38 32.1447 160.78 31.2347 160.78C30.4047 160.78 29.8447 161.43 29.7947 162.14ZM32.7647 163.39L33.4547 163.64C33.1847 164.47 32.4347 165.14 31.3247 165.14C30.0447 165.14 28.9547 164.2 28.9547 162.59C28.9547 161.08 30.0147 160.07 31.2247 160.07C32.6747 160.07 33.4847 161.08 33.4847 162.54C33.4847 162.64 33.4747 162.75 33.4647 162.82H29.7747V162.86C29.7747 163.77 30.4647 164.42 31.3247 164.42C32.1347 164.42 32.5747 163.96 32.7647 163.39ZM37.1648 160.18V161.03C37.0348 160.99 36.8848 160.98 36.7448 160.98C35.9448 160.98 35.3948 161.44 35.3948 162.52V165H34.5948V160.21H35.3748V161.07C35.6848 160.37 36.2948 160.14 36.8248 160.14C36.9548 160.14 37.0948 160.16 37.1648 160.18ZM42.1205 160.21L40.2105 165H39.4005L37.4705 160.21H38.3705L39.8105 164.07L41.2605 160.21H42.1205ZM43.8472 165H43.0472V160.21H43.8472V165ZM42.8472 158.32C42.8472 157.99 43.1172 157.72 43.4472 157.72C43.7772 157.72 44.0472 157.99 44.0472 158.32C44.0472 158.65 43.7772 158.92 43.4472 158.92C43.1172 158.92 42.8472 158.65 42.8472 158.32ZM47.3505 160.79C46.5105 160.79 45.7805 161.44 45.7805 162.6C45.7805 163.75 46.5105 164.42 47.3605 164.42C48.2705 164.42 48.6505 163.78 48.7905 163.34L49.4905 163.65C49.2605 164.36 48.5905 165.14 47.3605 165.14C45.9805 165.14 44.9805 164.06 44.9805 162.6C44.9805 161.11 46.0005 160.07 47.3505 160.07C48.5805 160.07 49.2505 160.82 49.4505 161.58L48.7305 161.89C48.6005 161.38 48.2105 160.79 47.3505 160.79ZM51.0427 162.14H53.9027C53.8827 161.38 53.3927 160.78 52.4827 160.78C51.6527 160.78 51.0927 161.43 51.0427 162.14ZM54.0127 163.39L54.7027 163.64C54.4327 164.47 53.6827 165.14 52.5727 165.14C51.2927 165.14 50.2027 164.2 50.2027 162.59C50.2027 161.08 51.2627 160.07 52.4727 160.07C53.9227 160.07 54.7327 161.08 54.7327 162.54C54.7327 162.64 54.7227 162.75 54.7127 162.82H51.0227V162.86C51.0227 163.77 51.7127 164.42 52.5727 164.42C53.3827 164.42 53.8227 163.96 54.0127 163.39Z" fill="white"/>
<rect x="83.0645" y="142" width="62" height="28" rx="6" fill="#37B26C"/>
<path d="M95.6241 151.31H97.1241C98.0341 151.31 98.5941 150.78 98.5941 150C98.5941 149.19 98.0341 148.66 97.1241 148.66H95.6241V151.31ZM97.2541 152.06H95.6241V155H94.7841V147.91H97.2541C98.5641 147.91 99.4341 148.81 99.4341 149.99C99.4341 151.18 98.5641 152.06 97.2541 152.06ZM99.8668 153.73C99.8668 152.89 100.457 152.42 101.297 152.3L102.587 152.11C102.937 152.06 103.017 151.91 103.017 151.7C103.017 151.16 102.657 150.75 101.907 150.75C101.207 150.75 100.787 151.17 100.717 151.78L99.9568 151.6C100.057 150.69 100.857 150.07 101.887 150.07C103.247 150.07 103.817 150.85 103.817 151.78V154.2C103.817 154.6 103.847 154.85 103.877 155H103.097C103.077 154.89 103.037 154.65 103.037 154.28C102.827 154.67 102.307 155.14 101.447 155.14C100.457 155.14 99.8668 154.46 99.8668 153.73ZM101.547 154.46C102.377 154.46 103.017 154 103.017 152.98V152.66L101.457 152.89C100.997 152.96 100.667 153.22 100.667 153.69C100.667 154.08 100.997 154.46 101.547 154.46ZM106.317 156.9H105.427L106.587 154.43L104.527 150.21H105.447L107.027 153.6L108.517 150.21H109.387L106.317 156.9ZM111.011 150.21V150.89C111.281 150.39 111.861 150.07 112.481 150.07C113.141 150.07 113.711 150.42 113.951 151.05C114.291 150.37 114.891 150.07 115.571 150.07C116.441 150.07 117.221 150.67 117.221 151.87V155H116.421V151.96C116.421 151.3 116.071 150.79 115.321 150.79C114.611 150.79 114.131 151.37 114.131 152.09V155H113.331V151.96C113.331 151.3 112.981 150.79 112.221 150.79C111.501 150.79 111.031 151.35 111.031 152.1V155H110.231V150.21H111.011ZM119.128 152.14H121.988C121.968 151.38 121.478 150.78 120.568 150.78C119.738 150.78 119.178 151.43 119.128 152.14ZM122.098 153.39L122.788 153.64C122.518 154.47 121.768 155.14 120.658 155.14C119.378 155.14 118.288 154.2 118.288 152.59C118.288 151.08 119.348 150.07 120.558 150.07C122.008 150.07 122.818 151.08 122.818 152.54C122.818 152.64 122.808 152.75 122.798 152.82H119.108V152.86C119.108 153.77 119.798 154.42 120.658 154.42C121.468 154.42 121.908 153.96 122.098 153.39ZM124.728 152.18V155H123.928V150.21H124.708V150.93C125.018 150.37 125.578 150.07 126.208 150.07C127.358 150.07 127.918 150.89 127.918 151.93V155H127.118V152.05C127.118 151.35 126.798 150.79 125.928 150.79C125.158 150.79 124.728 151.43 124.728 152.18ZM130.427 148.69V150.21H131.557V150.93H130.427V153.58C130.427 154.08 130.647 154.33 131.157 154.33C131.297 154.33 131.477 154.3 131.557 154.28V154.96C131.467 154.99 131.237 155.05 130.927 155.05C130.137 155.05 129.627 154.56 129.627 153.69V150.93H128.667V150.21H128.977C129.467 150.21 129.677 149.93 129.677 149.48V148.69H130.427ZM94.1776 165H89.8976V157.91H90.7376V164.23H94.1776V165ZM96.9703 160.07C98.3503 160.07 99.3703 161.13 99.3703 162.6C99.3703 164.08 98.3503 165.14 96.9703 165.14C95.5903 165.14 94.5703 164.08 94.5703 162.6C94.5703 161.13 95.5903 160.07 96.9703 160.07ZM96.9703 160.79C96.1103 160.79 95.3703 161.44 95.3703 162.6C95.3703 163.77 96.1103 164.42 96.9703 164.42C97.8303 164.42 98.5703 163.77 98.5703 162.6C98.5703 161.44 97.8303 160.79 96.9703 160.79ZM101.283 165H100.503V157.77H101.303V160.99C101.523 160.54 102.083 160.07 102.943 160.07C104.363 160.07 105.123 161.2 105.123 162.6C105.123 164.03 104.313 165.14 102.923 165.14C102.123 165.14 101.563 164.73 101.283 164.21V165ZM102.803 164.42C103.723 164.42 104.323 163.66 104.323 162.6C104.323 161.54 103.733 160.79 102.803 160.79C101.873 160.79 101.283 161.54 101.283 162.6C101.283 163.66 101.883 164.42 102.803 164.42ZM107.043 165H106.263V157.77H107.063V160.99C107.283 160.54 107.843 160.07 108.703 160.07C110.123 160.07 110.883 161.2 110.883 162.6C110.883 164.03 110.073 165.14 108.683 165.14C107.883 165.14 107.323 164.73 107.043 164.21V165ZM108.563 164.42C109.483 164.42 110.083 163.66 110.083 162.6C110.083 161.54 109.493 160.79 108.563 160.79C107.633 160.79 107.043 161.54 107.043 162.6C107.043 163.66 107.643 164.42 108.563 164.42ZM113.057 166.9H112.167L113.327 164.43L111.267 160.21H112.187L113.767 163.6L115.257 160.21H116.127L113.057 166.9ZM126.936 165H126.096V159.23L123.526 165H122.756L120.206 159.23V165H119.366V157.91H120.516L123.146 163.88L125.796 157.91H126.936V165ZM129.637 165H128.797V157.91H133.057V158.68H129.637V161.17H132.747V161.94H129.637V165ZM138.66 165H134.41V157.91H138.66V158.68H135.25V161.07H138.35V161.84H135.25V164.23H138.66V165Z" fill="white"/>
<rect x="193.842" y="133" width="77" height="22" rx="6" fill="#37B26C"/>
<g clip-path="url(#clip0_2136_5256)">
<path fill-rule="evenodd" clip-rule="evenodd" d="M208.469 140.908C208.33 140.854 208.189 140.804 208.048 140.758C208.071 140.651 208.093 140.544 208.113 140.435C208.431 138.696 208.223 137.295 207.511 136.833C206.829 136.391 205.712 136.852 204.585 137.955C204.474 138.064 204.365 138.176 204.259 138.291C204.188 138.214 204.116 138.139 204.042 138.066C202.861 136.887 201.676 136.39 200.965 136.852C200.283 137.296 200.081 138.614 200.368 140.262C200.397 140.425 200.429 140.588 200.465 140.749C200.298 140.803 200.136 140.86 199.981 140.92C198.596 141.463 197.711 142.314 197.711 143.196C197.711 144.108 198.661 145.022 200.103 145.576C200.22 145.621 200.338 145.662 200.457 145.701C200.419 145.874 200.384 146.05 200.355 146.226C200.081 147.845 200.295 149.132 200.975 149.573C201.677 150.028 202.856 149.56 204.004 148.432C204.095 148.343 204.186 148.248 204.277 148.149C204.392 148.274 204.51 148.395 204.631 148.512C205.743 149.587 206.841 150.022 207.521 149.58C208.222 149.123 208.45 147.741 208.154 146.06C208.132 145.932 208.105 145.801 208.076 145.667C208.159 145.639 208.24 145.611 208.319 145.582C209.819 145.023 210.795 144.12 210.795 143.196C210.795 142.311 209.882 141.454 208.469 140.908ZM208.143 144.985C208.072 145.012 207.998 145.038 207.924 145.063C207.758 144.473 207.535 143.847 207.261 143.2C207.522 142.568 207.737 141.949 207.898 141.364C208.032 141.407 208.162 141.453 208.287 141.502C209.498 141.97 210.236 142.663 210.236 143.196C210.236 143.765 209.439 144.503 208.143 144.985H208.143ZM207.606 146.182C207.737 146.925 207.756 147.598 207.669 148.123C207.591 148.595 207.434 148.91 207.241 149.036C206.828 149.304 205.946 148.955 204.995 148.036C204.886 147.93 204.777 147.818 204.666 147.699C205.035 147.245 205.404 146.718 205.763 146.133C206.396 146.07 206.993 145.967 207.535 145.826C207.562 145.947 207.586 146.066 207.606 146.182ZM202.172 148.99C201.769 149.149 201.448 149.154 201.254 149.028C200.841 148.761 200.67 147.728 200.904 146.343C200.932 146.179 200.963 146.016 200.999 145.854C201.535 145.988 202.128 146.084 202.762 146.141C203.124 146.714 203.504 147.24 203.886 147.701C203.804 147.789 203.721 147.875 203.636 147.959C203.129 148.458 202.62 148.812 202.172 148.99H202.172ZM200.284 144.982C199.646 144.737 199.119 144.418 198.758 144.071C198.434 143.758 198.27 143.448 198.27 143.196C198.27 142.661 198.98 141.978 200.165 141.514C200.314 141.456 200.464 141.403 200.615 141.354C200.779 141.953 200.994 142.579 201.253 143.212C200.99 143.854 200.773 144.49 200.607 145.095C200.499 145.06 200.391 145.023 200.284 144.982ZM200.917 140.141C200.671 138.729 200.834 137.664 201.245 137.396C201.683 137.111 202.651 137.517 203.671 138.536C203.736 138.601 203.802 138.669 203.867 138.739C203.487 139.198 203.112 139.72 202.753 140.29C202.137 140.354 201.548 140.457 201.007 140.595C200.974 140.444 200.944 140.293 200.917 140.141V140.141ZM206.561 141.708C206.433 141.46 206.3 141.214 206.163 140.972C206.58 141.032 206.98 141.11 207.356 141.207C207.243 141.613 207.103 142.038 206.937 142.473C206.816 142.215 206.691 141.96 206.561 141.708ZM204.259 139.188C204.517 139.502 204.775 139.853 205.029 140.233C204.514 140.206 203.998 140.205 203.483 140.233C203.737 139.856 203.997 139.506 204.259 139.188ZM201.943 141.712C201.815 141.962 201.691 142.216 201.574 142.473C201.411 142.039 201.272 141.612 201.158 141.2C201.531 141.106 201.929 141.029 202.344 140.971C202.205 141.215 202.071 141.462 201.943 141.712ZM202.356 145.466C201.927 145.413 201.523 145.34 201.15 145.248C201.266 144.829 201.408 144.393 201.574 143.95C201.693 144.207 201.816 144.461 201.945 144.711C202.077 144.967 202.214 145.218 202.356 145.466ZM204.275 147.249C204.01 146.928 203.746 146.572 203.487 146.19C203.738 146.201 203.993 146.207 204.253 146.207C204.52 146.207 204.783 146.2 205.043 146.187C204.788 146.576 204.531 146.932 204.275 147.249ZM206.943 143.928C207.117 144.376 207.265 144.809 207.382 145.221C207.003 145.319 206.593 145.397 206.161 145.455C206.3 145.209 206.434 144.959 206.563 144.707C206.695 144.45 206.821 144.19 206.943 143.928ZM206.079 144.393C205.881 144.78 205.671 145.16 205.451 145.531C205.063 145.562 204.662 145.578 204.253 145.578C203.846 145.578 203.45 145.564 203.068 145.536C202.843 145.166 202.629 144.785 202.429 144.396C202.23 144.01 202.043 143.614 201.871 143.211C202.043 142.809 202.229 142.413 202.427 142.026V142.026C202.626 141.639 202.837 141.26 203.062 140.891C203.451 140.858 203.85 140.84 204.253 140.84C204.658 140.84 205.058 140.858 205.447 140.891C205.669 141.26 205.879 141.637 206.077 142.023C206.276 142.409 206.465 142.802 206.641 143.203C206.466 143.607 206.279 144.004 206.079 144.393H206.079ZM207.232 137.377C207.67 137.661 207.84 138.807 207.565 140.309C207.547 140.407 207.528 140.504 207.506 140.601C206.964 140.46 206.374 140.355 205.757 140.29C205.397 139.715 205.025 139.192 204.651 138.739C204.749 138.633 204.849 138.529 204.952 138.429C205.918 137.484 206.821 137.111 207.232 137.377ZM205.509 143.1C205.509 142.375 204.986 141.787 204.34 141.787C203.695 141.787 203.172 142.375 203.172 143.1C203.172 143.825 203.695 144.413 204.34 144.413C204.986 144.413 205.509 143.825 205.509 143.1Z" fill="#00D8FF"/>
<path fill-rule="evenodd" clip-rule="evenodd" d="M210.56 147.574C209.024 147.574 207.778 146.329 207.778 144.792C207.778 143.256 209.024 142.001 210.56 142.001C212.096 142.001 213.342 143.247 213.342 144.783C213.342 146.319 212.096 147.565 210.56 147.565V147.574Z" fill="white"/>
<path fill-rule="evenodd" clip-rule="evenodd" d="M209.41 152C207.817 152 206.515 150.707 206.515 149.105V147.067C206.515 146.466 207.007 145.974 207.607 145.974C207.88 145.974 208.144 146.074 208.354 146.266L209.109 146.976V146.411H212.295V149.105C212.295 150.698 211.003 152 209.401 152H209.41Z" fill="white"/>
<path fill-rule="evenodd" clip-rule="evenodd" d="M210.564 145.369C210.928 145.369 211.223 145.074 211.223 144.71C211.223 144.346 210.928 144.051 210.564 144.051C210.2 144.051 209.905 144.346 209.905 144.71C209.905 145.074 210.2 145.369 210.564 145.369ZM210.564 146.507C211.557 146.507 212.361 145.702 212.361 144.71C212.361 143.717 211.557 142.913 210.564 142.913C209.572 142.913 208.767 143.717 208.767 144.71C208.767 145.702 209.572 146.507 210.564 146.507Z" fill="#00859D"/>
<path fill-rule="evenodd" clip-rule="evenodd" d="M209.955 149.129V146.341H211.321V149.129C211.321 150.223 210.434 151.11 209.34 151.11C208.246 151.11 207.359 150.223 207.359 149.129L207.359 147.087C207.359 146.928 207.549 146.846 207.665 146.954L209.28 148.459C209.401 148.572 209.321 148.774 209.156 148.774H208.724V149.129C208.724 149.469 209 149.745 209.34 149.745C209.68 149.745 209.955 149.469 209.955 149.129Z" fill="#00859D"/>
</g>
<path d="M216.671 140.91H218.881C220.231 140.91 221.021 141.7 221.021 142.82C221.021 143.58 220.581 144.14 219.951 144.36C220.751 144.56 221.241 145.28 221.241 146.08C221.241 147.2 220.361 148 219.061 148H216.671V140.91ZM217.511 144.06H218.881C219.661 144.06 220.181 143.56 220.181 142.86C220.181 142.12 219.661 141.65 218.771 141.65H217.511V144.06ZM217.511 147.26H218.961C219.821 147.26 220.401 146.78 220.401 146.03C220.401 145.29 219.891 144.78 219.031 144.78H217.511V147.26ZM223.225 148H222.425V143.21H223.225V148ZM222.225 141.32C222.225 140.99 222.495 140.72 222.825 140.72C223.155 140.72 223.425 140.99 223.425 141.32C223.425 141.65 223.155 141.92 222.825 141.92C222.495 141.92 222.225 141.65 222.225 141.32ZM225.489 148H224.689V140.77H225.489V148ZM227.752 148H226.952V140.77H227.752V148ZM230.015 148H229.215V143.21H230.015V148ZM229.015 141.32C229.015 140.99 229.285 140.72 229.615 140.72C229.945 140.72 230.215 140.99 230.215 141.32C230.215 141.65 229.945 141.92 229.615 141.92C229.285 141.92 229.015 141.65 229.015 141.32ZM232.278 145.18V148H231.478V143.21H232.258V143.93C232.568 143.37 233.128 143.07 233.758 143.07C234.908 143.07 235.468 143.89 235.468 144.93V148H234.668V145.05C234.668 144.35 234.348 143.79 233.478 143.79C232.708 143.79 232.278 144.43 232.278 145.18ZM236.537 148.27L237.307 148.08C237.387 148.78 237.917 149.32 238.697 149.32C239.817 149.32 240.227 148.66 240.227 147.67V146.9C240.007 147.36 239.487 147.79 238.707 147.79C237.437 147.79 236.547 146.78 236.547 145.44C236.547 144.1 237.427 143.07 238.727 143.07C239.477 143.07 239.997 143.42 240.237 143.89V143.21H241.027V147.64C241.027 148.82 240.487 150.04 238.697 150.04C237.517 150.04 236.657 149.28 236.537 148.27ZM240.267 145.43C240.267 144.44 239.677 143.79 238.807 143.79C237.937 143.79 237.347 144.44 237.347 145.43C237.347 146.42 237.937 147.07 238.807 147.07C239.677 147.07 240.267 146.42 240.267 145.43ZM245.978 148H245.138V140.91H249.398V141.68H245.978V144.17H249.088V144.94H245.978V148ZM252.338 143.07C253.718 143.07 254.738 144.13 254.738 145.6C254.738 147.08 253.718 148.14 252.338 148.14C250.958 148.14 249.938 147.08 249.938 145.6C249.938 144.13 250.958 143.07 252.338 143.07ZM252.338 143.79C251.478 143.79 250.738 144.44 250.738 145.6C250.738 146.77 251.478 147.42 252.338 147.42C253.198 147.42 253.938 146.77 253.938 145.6C253.938 144.44 253.198 143.79 252.338 143.79ZM258.441 143.18V144.03C258.311 143.99 258.161 143.98 258.021 143.98C257.221 143.98 256.671 144.44 256.671 145.52V148H255.871V143.21H256.651V144.07C256.961 143.37 257.571 143.14 258.101 143.14C258.231 143.14 258.371 143.16 258.441 143.18ZM260.067 143.21V143.89C260.337 143.39 260.917 143.07 261.537 143.07C262.197 143.07 262.767 143.42 263.007 144.05C263.347 143.37 263.947 143.07 264.627 143.07C265.497 143.07 266.277 143.67 266.277 144.87V148H265.477V144.96C265.477 144.3 265.127 143.79 264.377 143.79C263.667 143.79 263.187 144.37 263.187 145.09V148H262.387V144.96C262.387 144.3 262.037 143.79 261.277 143.79C260.557 143.79 260.087 144.35 260.087 145.1V148H259.287V143.21H260.067Z" fill="white"/>
<rect x="184.342" y="97" width="58" height="22" rx="6" fill="#37B26C"/>
<g clip-path="url(#clip1_2136_5256)">
<path d="M202.599 103.023L197.623 100.134C197.31 99.9553 196.901 99.9553 196.585 100.134L191.555 103.023C191.232 103.21 191.002 103.56 191.002 103.934V109.705C191.002 110.08 191.238 110.43 191.561 110.617L192.89 111.372C193.525 111.685 193.75 111.685 194.039 111.685C194.979 111.685 195.516 111.116 195.516 110.125V104.427C195.516 104.347 195.474 104.227 195.395 104.227H194.761C194.68 104.227 194.501 104.347 194.501 104.427V110.124C194.501 110.564 194.103 111.002 193.36 110.63L191.987 109.839C191.939 109.813 191.905 109.76 191.905 109.705V103.934C191.905 103.88 191.968 103.825 192.016 103.797L197.029 100.913C197.076 100.887 197.145 100.887 197.191 100.913L202.143 103.797C202.19 103.825 202.174 103.878 202.174 103.934V109.705C202.174 109.76 202.194 109.814 202.148 109.841L197.173 112.727C197.13 112.752 197.077 112.752 197.03 112.727L195.755 111.965C195.716 111.943 195.67 111.935 195.633 111.955C195.278 112.157 195.213 112.183 194.88 112.299C194.798 112.327 194.677 112.377 194.926 112.516L196.596 113.504C196.756 113.596 196.936 113.645 197.121 113.645C197.306 113.645 197.487 113.597 197.647 113.504L202.599 110.617C202.923 110.429 203.077 110.08 203.077 109.705V103.934C203.077 103.56 202.923 103.211 202.599 103.023ZM198.666 108.791C197.342 108.791 197.051 108.426 196.954 107.768C196.942 107.697 196.882 107.612 196.81 107.612H196.164C196.084 107.612 196.019 107.709 196.019 107.789C196.019 108.631 196.477 109.652 198.666 109.652C200.25 109.652 201.158 109.037 201.158 107.947C201.158 106.867 200.428 106.584 198.892 106.38C197.339 106.175 197.181 106.071 197.181 105.708C197.181 105.408 197.315 105.008 198.465 105.008C199.492 105.008 199.871 105.228 200.027 105.921C200.04 105.986 200.1 106.032 200.167 106.032H200.816C200.856 106.032 200.894 106.016 200.922 105.988C200.949 105.957 200.963 105.919 200.96 105.877C200.859 104.685 200.067 104.129 198.465 104.129C197.039 104.129 196.189 104.731 196.189 105.74C196.189 106.834 197.035 107.137 198.403 107.272C200.04 107.432 200.167 107.672 200.167 107.994C200.167 108.553 199.719 108.791 198.666 108.791Z" fill="#83CD29"/>
<path d="M198.231 113.131C197.221 112.12 197.221 110.482 198.231 109.472L200.313 107.39C201.324 106.379 202.962 106.379 203.972 107.39L206.084 109.501C207.094 110.512 207.094 112.15 206.084 113.16L204.002 115.242C202.992 116.253 201.353 116.253 200.343 115.242L198.231 113.131Z" fill="white"/>
<rect x="197.806" y="111.305" width="6.13864" height="6.17015" rx="1.33333" transform="rotate(-45 197.806 111.305)" fill="#488300"/>
<path d="M200.567 111.181H203.749" stroke="white" stroke-width="0.666667" stroke-linecap="round"/>
<path d="M200.567 112.567H203.749" stroke="white" stroke-width="0.666667" stroke-linecap="round"/>
<path d="M200.567 109.87H203.681" stroke="white" stroke-width="0.666667" stroke-linecap="round"/>
</g>
<path d="M211.325 108.45C211.325 110.38 212.625 111.37 213.995 111.37C215.375 111.37 216.665 110.38 216.665 108.45C216.665 106.53 215.375 105.54 213.995 105.54C212.625 105.54 211.325 106.53 211.325 108.45ZM210.485 108.45C210.485 106.08 212.235 104.77 213.995 104.77C215.765 104.77 217.505 106.08 217.505 108.45C217.505 110.82 215.765 112.14 213.995 112.14C212.235 112.14 210.485 110.82 210.485 108.45ZM221.194 107.18V108.03C221.064 107.99 220.914 107.98 220.774 107.98C219.974 107.98 219.424 108.44 219.424 109.52V112H218.624V107.21H219.404V108.07C219.714 107.37 220.324 107.14 220.854 107.14C220.984 107.14 221.124 107.16 221.194 107.18ZM225.412 111.31V111.18C225.192 111.65 224.672 112.14 223.842 112.14C222.462 112.14 221.622 111.02 221.622 109.6C221.622 108.21 222.502 107.07 223.842 107.07C224.762 107.07 225.232 107.58 225.392 107.98V104.77H226.192V111.1C226.192 111.58 226.222 111.9 226.242 112H225.462C225.442 111.89 225.412 111.62 225.412 111.31ZM223.912 111.42C224.812 111.42 225.412 110.66 225.412 109.6C225.412 108.54 224.822 107.79 223.912 107.79C223.002 107.79 222.422 108.54 222.422 109.6C222.422 110.66 223.012 111.42 223.912 111.42ZM228.163 109.14H231.023C231.003 108.38 230.513 107.78 229.603 107.78C228.773 107.78 228.213 108.43 228.163 109.14ZM231.133 110.39L231.823 110.64C231.553 111.47 230.803 112.14 229.693 112.14C228.413 112.14 227.323 111.2 227.323 109.59C227.323 108.08 228.383 107.07 229.593 107.07C231.043 107.07 231.853 108.08 231.853 109.54C231.853 109.64 231.843 109.75 231.833 109.82H228.143V109.86C228.143 110.77 228.833 111.42 229.693 111.42C230.503 111.42 230.943 110.96 231.133 110.39ZM235.533 107.18V108.03C235.403 107.99 235.253 107.98 235.113 107.98C234.313 107.98 233.763 108.44 233.763 109.52V112H232.963V107.21H233.743V108.07C234.053 107.37 234.663 107.14 235.193 107.14C235.323 107.14 235.463 107.16 235.533 107.18Z" fill="white"/>
<rect x="174.842" y="166.411" width="70" height="22" rx="6" fill="#37B26C"/>
<g clip-path="url(#clip2_2136_5256)">
<path fill-rule="evenodd" clip-rule="evenodd" d="M188.969 174.318C188.83 174.265 188.689 174.215 188.548 174.169C188.571 174.062 188.593 173.954 188.613 173.846C188.931 172.107 188.723 170.705 188.011 170.244C187.329 169.801 186.212 170.263 185.085 171.365C184.974 171.474 184.865 171.586 184.759 171.702C184.688 171.625 184.616 171.55 184.542 171.476C183.361 170.297 182.176 169.8 181.465 170.263C180.783 170.707 180.581 172.024 180.868 173.673C180.897 173.836 180.929 173.998 180.965 174.16C180.798 174.213 180.636 174.27 180.481 174.331C179.096 174.874 178.211 175.725 178.211 176.607C178.211 177.518 179.161 178.433 180.603 178.987C180.72 179.032 180.838 179.073 180.957 179.111C180.919 179.285 180.884 179.46 180.855 179.636C180.581 181.256 180.795 182.542 181.475 182.983C182.177 183.439 183.356 182.971 184.504 181.843C184.595 181.754 184.686 181.659 184.777 181.56C184.892 181.684 185.01 181.805 185.131 181.923C186.243 182.998 187.341 183.432 188.021 182.99C188.722 182.534 188.95 181.152 188.654 179.471C188.632 179.342 188.605 179.211 188.576 179.078C188.659 179.05 188.74 179.022 188.819 178.992C190.319 178.434 191.295 177.531 191.295 176.607C191.295 175.721 190.382 174.865 188.969 174.318ZM188.643 178.396C188.572 178.423 188.498 178.448 188.424 178.473C188.258 177.884 188.035 177.257 187.761 176.61C188.022 175.978 188.237 175.36 188.398 174.774C188.532 174.818 188.662 174.864 188.787 174.912C189.998 175.381 190.736 176.073 190.736 176.607C190.736 177.176 189.939 177.914 188.643 178.396H188.643ZM188.106 179.593C188.237 180.336 188.256 181.008 188.169 181.534C188.091 182.006 187.934 182.32 187.741 182.447C187.328 182.715 186.446 182.366 185.495 181.446C185.386 181.341 185.277 181.228 185.166 181.109C185.535 180.656 185.904 180.129 186.263 179.544C186.896 179.481 187.493 179.378 188.035 179.237C188.062 179.358 188.086 179.477 188.106 179.593ZM182.672 182.4C182.269 182.56 181.948 182.565 181.754 182.439C181.341 182.172 181.17 181.139 181.404 179.753C181.432 179.59 181.463 179.427 181.499 179.265C182.035 179.398 182.628 179.494 183.262 179.552C183.624 180.125 184.004 180.651 184.386 181.112C184.304 181.2 184.221 181.286 184.136 181.37C183.629 181.868 183.12 182.222 182.672 182.4H182.672ZM180.784 178.392C180.146 178.147 179.619 177.829 179.258 177.481C178.934 177.169 178.77 176.859 178.77 176.607C178.77 176.072 179.48 175.389 180.665 174.924C180.814 174.866 180.964 174.813 181.115 174.765C181.279 175.364 181.494 175.989 181.753 176.622C181.49 177.265 181.273 177.9 181.107 178.506C180.999 178.471 180.891 178.433 180.784 178.392ZM181.417 173.552C181.171 172.14 181.334 171.074 181.745 170.807C182.183 170.522 183.151 170.928 184.171 171.946C184.236 172.011 184.302 172.079 184.367 172.15C183.987 172.609 183.612 173.131 183.253 173.7C182.637 173.764 182.048 173.867 181.507 174.005C181.474 173.855 181.444 173.704 181.417 173.552V173.552ZM187.061 175.119C186.933 174.87 186.8 174.625 186.663 174.383C187.08 174.442 187.48 174.521 187.856 174.617C187.743 175.024 187.603 175.448 187.437 175.884C187.316 175.626 187.191 175.371 187.061 175.119ZM184.759 172.599C185.017 172.913 185.275 173.263 185.529 173.644C185.014 173.616 184.498 173.616 183.983 173.643C184.237 173.266 184.497 172.916 184.759 172.599ZM182.443 175.123C182.315 175.373 182.191 175.627 182.074 175.883C181.911 175.449 181.772 175.023 181.658 174.611C182.031 174.517 182.429 174.44 182.844 174.382C182.705 174.625 182.571 174.872 182.443 175.123ZM182.856 178.877C182.427 178.823 182.023 178.75 181.65 178.659C181.766 178.24 181.908 177.804 182.074 177.361C182.193 177.618 182.316 177.871 182.445 178.122C182.577 178.377 182.714 178.629 182.856 178.877ZM184.775 180.66C184.51 180.338 184.246 179.983 183.987 179.601C184.238 179.612 184.493 179.617 184.753 179.617C185.02 179.617 185.283 179.611 185.543 179.598C185.288 179.987 185.031 180.343 184.775 180.66ZM187.443 177.338C187.617 177.786 187.765 178.22 187.882 178.632C187.503 178.729 187.093 178.808 186.661 178.866C186.8 178.619 186.934 178.37 187.063 178.117C187.195 177.861 187.321 177.601 187.443 177.338ZM186.579 177.804C186.381 178.191 186.171 178.57 185.951 178.942C185.563 178.973 185.162 178.989 184.753 178.989C184.346 178.989 183.95 178.975 183.568 178.947C183.343 178.576 183.129 178.196 182.929 177.807C182.73 177.42 182.543 177.025 182.371 176.622C182.543 176.219 182.729 175.824 182.927 175.437V175.437C183.126 175.049 183.337 174.671 183.562 174.302C183.951 174.268 184.35 174.251 184.753 174.251C185.158 174.251 185.558 174.269 185.947 174.302C186.169 174.671 186.379 175.048 186.577 175.433C186.776 175.82 186.965 176.213 187.141 176.613C186.966 177.017 186.779 177.414 186.579 177.804H186.579ZM187.732 170.788C188.17 171.072 188.34 172.217 188.065 173.719C188.047 173.817 188.028 173.915 188.006 174.012C187.464 173.871 186.874 173.766 186.257 173.701C185.897 173.126 185.525 172.602 185.151 172.15C185.249 172.043 185.349 171.94 185.452 171.839C186.418 170.895 187.321 170.521 187.732 170.788ZM186.009 176.51C186.009 175.785 185.486 175.197 184.84 175.197C184.195 175.197 183.672 175.785 183.672 176.51C183.672 177.236 184.195 177.824 184.84 177.824C185.486 177.824 186.009 177.236 186.009 176.51Z" fill="#00D8FF"/>
<path d="M184.753 177.939C184.753 177.21 185.344 176.619 186.073 176.619H190.463C191.192 176.619 191.783 177.21 191.783 177.939V182.424C191.783 183.153 191.192 183.744 190.463 183.744H186.073C185.344 183.744 184.753 183.153 184.753 182.424V177.939Z" fill="white"/>
<path d="M186.397 179.368C186.397 178.639 186.988 178.048 187.717 178.048H192.107C192.836 178.048 193.427 178.639 193.427 179.368V183.852C193.427 184.581 192.836 185.172 192.107 185.172H187.717C186.988 185.172 186.397 184.581 186.397 183.852V179.368Z" fill="white"/>
<rect x="185.546" y="177.39" width="5.44395" height="5.44395" rx="0.957809" fill="#00859D"/>
<path fill-rule="evenodd" clip-rule="evenodd" d="M187.159 179.956C187.159 179.325 187.67 178.813 188.302 178.813H191.522C192.154 178.813 192.665 179.325 192.665 179.956V183.264C192.665 183.895 192.154 184.407 191.522 184.407H188.302C187.67 184.407 187.159 183.895 187.159 183.264V179.956ZM188.302 179.452C188.023 179.452 187.797 179.678 187.797 179.956V183.264C187.797 183.542 188.023 183.768 188.302 183.768H191.522C191.801 183.768 192.027 183.542 192.027 183.264V179.956C192.027 179.678 191.801 179.452 191.522 179.452H188.302Z" fill="#00859D"/>
</g>
<path d="M200.327 181.551C198.887 181.551 197.817 180.661 197.817 179.011V174.321H198.657V178.991C198.657 180.131 199.257 180.781 200.327 180.781C201.397 180.781 201.997 180.131 201.997 178.991V174.321H202.837V179.011C202.837 180.661 201.767 181.551 200.327 181.551ZM203.896 180.151L204.616 179.901C204.686 180.451 205.096 180.871 205.816 180.871C206.386 180.871 206.746 180.551 206.746 180.141C206.746 179.781 206.456 179.541 206.016 179.441L205.236 179.261C204.506 179.091 204.046 178.621 204.046 177.931C204.046 177.131 204.806 176.481 205.716 176.481C206.956 176.481 207.386 177.271 207.496 177.761L206.786 178.021C206.726 177.691 206.476 177.161 205.716 177.161C205.216 177.161 204.826 177.481 204.826 177.881C204.826 178.221 205.036 178.431 205.456 178.531L206.236 178.711C207.076 178.901 207.536 179.391 207.536 180.101C207.536 180.791 206.946 181.551 205.806 181.551C204.546 181.551 203.976 180.751 203.896 180.151ZM209.179 178.551H212.039C212.019 177.791 211.529 177.191 210.619 177.191C209.789 177.191 209.229 177.841 209.179 178.551ZM212.149 179.801L212.839 180.051C212.569 180.881 211.819 181.551 210.709 181.551C209.429 181.551 208.339 180.611 208.339 179.001C208.339 177.491 209.399 176.481 210.609 176.481C212.059 176.481 212.869 177.491 212.869 178.951C212.869 179.051 212.859 179.161 212.849 179.231H209.159V179.271C209.159 180.181 209.849 180.831 210.709 180.831C211.519 180.831 211.959 180.371 212.149 179.801ZM216.628 174.321H218.838C220.188 174.321 220.978 175.111 220.978 176.231C220.978 176.991 220.538 177.551 219.908 177.771C220.708 177.971 221.198 178.691 221.198 179.491C221.198 180.611 220.318 181.411 219.018 181.411H216.628V174.321ZM217.468 177.471H218.838C219.618 177.471 220.138 176.971 220.138 176.271C220.138 175.531 219.618 175.061 218.728 175.061H217.468V177.471ZM217.468 180.671H218.918C219.778 180.671 220.358 180.191 220.358 179.441C220.358 178.701 219.848 178.191 218.988 178.191H217.468V180.671ZM223.183 181.411H222.383V176.621H223.183V181.411ZM222.183 174.731C222.183 174.401 222.453 174.131 222.783 174.131C223.113 174.131 223.383 174.401 223.383 174.731C223.383 175.061 223.113 175.331 222.783 175.331C222.453 175.331 222.183 175.061 222.183 174.731ZM225.446 181.411H224.646V174.181H225.446V181.411ZM227.709 181.411H226.909V174.181H227.709V181.411ZM229.972 181.411H229.172V176.621H229.972V181.411ZM228.972 174.731C228.972 174.401 229.242 174.131 229.572 174.131C229.902 174.131 230.172 174.401 230.172 174.731C230.172 175.061 229.902 175.331 229.572 175.331C229.242 175.331 228.972 175.061 228.972 174.731ZM232.236 178.591V181.411H231.436V176.621H232.216V177.341C232.526 176.781 233.086 176.481 233.716 176.481C234.866 176.481 235.426 177.301 235.426 178.341V181.411H234.626V178.461C234.626 177.761 234.306 177.201 233.436 177.201C232.666 177.201 232.236 177.841 232.236 178.591ZM236.494 181.681L237.264 181.491C237.344 182.191 237.874 182.731 238.654 182.731C239.774 182.731 240.184 182.071 240.184 181.081V180.311C239.964 180.771 239.444 181.201 238.664 181.201C237.394 181.201 236.504 180.191 236.504 178.851C236.504 177.511 237.384 176.481 238.684 176.481C239.434 176.481 239.954 176.831 240.194 177.301V176.621H240.984V181.051C240.984 182.231 240.444 183.451 238.654 183.451C237.474 183.451 236.614 182.691 236.494 181.681ZM240.224 178.841C240.224 177.851 239.634 177.201 238.764 177.201C237.894 177.201 237.304 177.851 237.304 178.841C237.304 179.831 237.894 180.481 238.764 180.481C239.634 180.481 240.224 179.831 240.224 178.841Z" fill="white"/>
<rect x="87.502" y="9" width="93" height="33" rx="6" fill="#B1AFFC"/>
<g clip-path="url(#clip3_2136_5256)">
<path d="M106.83 30.4524C104.197 32.3651 101.775 32.0035 99.8913 31.3287C98.0074 30.654 96.7435 29.2517 97.0371 28.432C97.3306 27.6123 98.8957 27.6101 100.78 28.2848C103.025 29.1731 104.641 31.3882 106.83 30.4524Z" fill="#3A27CC"/>
<path d="M98.3251 30.5208C100.958 32.4334 103.38 32.0718 105.263 31.3971C107.147 30.7223 108.411 29.32 108.118 28.5004C107.824 27.6807 106.259 27.6784 104.375 28.3532C102.13 29.2414 100.514 31.4566 98.3251 30.5208Z" fill="#7140FF"/>
<path fill-rule="evenodd" clip-rule="evenodd" d="M107.119 30.3647C107.025 30.3905 106.928 30.4208 106.829 30.4559C105.363 31.0828 104.154 30.2958 102.841 29.4408C102.771 29.3953 102.7 29.3496 102.63 29.3039C103.18 28.9498 103.753 28.6024 104.375 28.3566C106.259 27.6819 107.824 27.6841 108.117 28.5038C108.297 29.0059 107.893 29.7265 107.119 30.3647ZM98.5804 30.7034C98.507 30.6502 98.4355 30.5962 98.3658 30.5414C98.3521 30.5358 98.3384 30.5301 98.3247 30.5242C98.4102 30.5863 98.4954 30.646 98.5804 30.7034Z" fill="#8155FF"/>
<path d="M105.303 18.2401C108.302 19.5025 109.246 21.7616 109.644 23.7228C110.042 25.684 109.497 27.4913 108.644 27.6644C107.79 27.8375 106.978 26.4996 106.58 24.5385C106.178 22.1575 107.237 19.6283 105.303 18.2401Z" fill="#3A27CC"/>
<path d="M109.764 25.4811C110.038 22.2385 108.475 20.3537 106.923 19.0911C105.37 17.8285 103.516 17.4731 102.967 18.1486C102.417 18.8241 103.226 20.1643 104.778 21.4268C106.7 22.8883 109.432 23.124 109.764 25.4811Z" fill="#7140FF"/>
<path fill-rule="evenodd" clip-rule="evenodd" d="M105.079 18.0378C105.15 18.1049 105.226 18.1719 105.307 18.2384C106.602 19.1684 106.555 20.6102 106.503 22.1765C106.5 22.26 106.498 22.3438 106.495 22.4279C105.907 22.1403 105.313 21.8297 104.781 21.4252C103.228 20.1626 102.42 18.8224 102.97 18.1469C103.306 17.733 104.132 17.7062 105.079 18.0378ZM109.788 25.1805C109.78 25.267 109.771 25.3525 109.761 25.4369C109.763 25.451 109.765 25.4652 109.767 25.4795C109.776 25.3785 109.783 25.2788 109.788 25.1805Z" fill="#8155FF"/>
<path d="M95.5521 25.6794C95.1509 22.45 96.6384 20.5051 98.14 19.1823C99.6416 17.8596 101.48 17.4313 102.056 18.0846C102.631 18.7379 101.876 20.1089 100.375 21.4317C98.5116 22.9678 95.7913 23.311 95.5521 25.6794Z" fill="#3A27CC"/>
<path d="M99.6042 18.2018C96.6569 19.5814 95.8025 21.876 95.4822 23.8514C95.1618 25.8267 95.7782 27.6111 96.6376 27.7504C97.497 27.8898 98.2557 26.521 98.5761 24.5456C98.8844 22.1506 97.7267 19.6652 99.6042 18.2018Z" fill="#7140FF"/>
<path fill-rule="evenodd" clip-rule="evenodd" d="M95.4887 25.9748C95.5116 25.8799 95.5319 25.7807 95.549 25.6771C95.7093 24.0907 96.9828 23.4129 98.3662 22.6766C98.4399 22.6374 98.5139 22.598 98.588 22.5583C98.6319 23.2113 98.6588 23.881 98.5735 24.5438C98.2532 26.5191 97.4945 27.888 96.635 27.7486C96.1085 27.6632 95.6733 26.9605 95.4887 25.9748ZM99.3236 18.3359C99.4049 18.2977 99.486 18.2616 99.5669 18.2274C99.5783 18.2182 99.5899 18.2091 99.6016 18.1999C99.5068 18.2443 99.4142 18.2896 99.3236 18.3359Z" fill="#8155FF"/>
<rect x="101.181" y="23.916" width="7.32244" height="7.03385" rx="1.33333" fill="white"/>
<path d="M101.873 25.2299C101.873 24.8617 102.171 24.5632 102.539 24.5632H107.208C107.576 24.5632 107.875 24.8617 107.875 25.2299V29.4876C107.875 29.8557 107.576 30.1542 107.208 30.1542H102.539C102.171 30.1542 101.873 29.8557 101.873 29.4875V25.2299Z" fill="#2C00AD"/>
<rect x="102.411" y="25.1199" width="7.32244" height="7.03385" rx="1.33333" fill="white"/>
<path d="M103.103 26.434C103.103 26.0658 103.401 25.7673 103.769 25.7673H108.438C108.806 25.7673 109.105 26.0658 109.105 26.434V30.6917C109.105 31.0598 108.806 31.3583 108.438 31.3583H103.769C103.401 31.3583 103.103 31.0598 103.103 30.6917V26.434Z" fill="#2C00AD"/>
<rect x="103.679" y="26.4661" width="7.32244" height="7.03385" rx="1.33333" fill="white"/>
<path fill-rule="evenodd" clip-rule="evenodd" d="M105.037 27.1135C104.669 27.1135 104.371 27.412 104.371 27.7802V29.1149H110.373V27.7802C110.373 27.412 110.074 27.1135 109.706 27.1135H105.037ZM110.373 29.7816H104.371V32.0378C104.371 32.406 104.669 32.7045 105.037 32.7045H109.706C110.074 32.7045 110.373 32.406 110.373 32.0378V29.7816ZM105.953 28.0928C105.953 28.384 105.717 28.6201 105.426 28.6201C105.135 28.6201 104.898 28.384 104.898 28.0928C104.898 27.8015 105.135 27.5654 105.426 27.5654C105.717 27.5654 105.953 27.8015 105.953 28.0928ZM106.805 28.6201C107.097 28.6201 107.333 28.384 107.333 28.0928C107.333 27.8015 107.097 27.5654 106.805 27.5654C106.514 27.5654 106.278 27.8015 106.278 28.0928C106.278 28.384 106.514 28.6201 106.805 28.6201Z" fill="#2C00AD"/>
</g>
<path d="M122.773 21.388H118.885V31.5H117.557V21.388H113.669V20.156H122.773V21.388ZM124.873 26.924V31.5H123.593V19.932H124.873V24.86C125.369 24.06 126.249 23.612 127.241 23.612C129.081 23.612 129.977 24.924 129.977 26.588V31.5L128.697 31.5V26.78C128.697 25.66 128.185 24.764 126.793 24.764C125.577 24.764 124.873 25.74 124.873 26.924ZM133.031 26.924H137.607C137.575 25.708 136.791 24.748 135.335 24.748C134.007 24.748 133.111 25.788 133.031 26.924ZM137.783 28.924L138.887 29.324C138.455 30.652 137.255 31.724 135.479 31.724C133.431 31.724 131.687 30.22 131.687 27.644C131.687 25.228 133.383 23.612 135.319 23.612C137.639 23.612 138.935 25.228 138.935 27.564C138.935 27.724 138.919 27.9 138.903 28.012H132.999V28.076C132.999 29.532 134.103 30.572 135.479 30.572C136.775 30.572 137.479 29.836 137.783 28.924ZM152.448 31.5L151.152 28.188H145.952L144.688 31.5H143.232L147.776 20.156H149.344L153.904 31.5H152.448ZM148.544 21.532L146.432 26.956H150.672L148.544 21.532ZM156.577 34.54H155.297V23.836H156.545V25.116C156.945 24.332 157.841 23.612 159.201 23.612C161.457 23.612 162.689 25.372 162.689 27.66C162.689 29.948 161.377 31.724 159.169 31.724C157.857 31.724 156.977 31.036 156.577 30.316V34.54ZM158.977 30.572C160.449 30.572 161.409 29.356 161.409 27.66C161.409 25.964 160.465 24.764 158.977 24.764C157.489 24.764 156.545 25.964 156.545 27.66C156.545 29.356 157.505 30.572 158.977 30.572ZM165.792 34.54H164.512V23.836H165.76V25.116C166.16 24.332 167.056 23.612 168.416 23.612C170.672 23.612 171.904 25.372 171.904 27.66C171.904 29.948 170.592 31.724 168.384 31.724C167.072 31.724 166.192 31.036 165.792 30.316V34.54ZM168.192 30.572C169.664 30.572 170.624 29.356 170.624 27.66C170.624 25.964 169.68 24.764 168.192 24.764C166.704 24.764 165.76 25.964 165.76 27.66C165.76 29.356 166.72 30.572 168.192 30.572Z" fill="white"/>
<rect x="30.502" y="78" width="96" height="33" rx="6" fill="#37B26C"/>
<g clip-path="url(#clip4_2136_5256)">
<path d="M47.7042 99.4524C45.0714 101.365 42.6498 101.003 40.7658 100.329C38.8819 99.654 37.618 98.2517 37.9116 97.432C38.2051 96.6123 39.7702 96.6101 41.6541 97.2848C43.8996 98.1731 45.5154 100.388 47.7042 99.4524Z" fill="#3A27CC"/>
<path d="M39.1997 99.5208C41.8324 101.433 44.254 101.072 46.138 100.397C48.0219 99.7223 49.2858 98.32 48.9922 97.5004C48.6987 96.6807 47.1336 96.6784 45.2497 97.3532C43.0042 98.2414 41.3884 100.457 39.1997 99.5208Z" fill="#7140FF"/>
<path fill-rule="evenodd" clip-rule="evenodd" d="M47.9937 99.3647C47.8995 99.3905 47.8028 99.4208 47.7037 99.4559C46.2376 100.083 45.0285 99.2958 43.7151 98.4408C43.6452 98.3953 43.5749 98.3496 43.5044 98.3039C44.0548 97.9498 44.6279 97.6024 45.2492 97.3566C47.1332 96.6819 48.6982 96.6841 48.9918 97.5038C49.1716 98.0059 48.7671 98.7265 47.9937 99.3647ZM39.4549 99.7034C39.3816 99.6502 39.31 99.5962 39.2403 99.5414C39.2266 99.5358 39.2129 99.5301 39.1992 99.5242C39.2847 99.5863 39.3699 99.646 39.4549 99.7034Z" fill="#8155FF"/>
<path d="M46.1775 87.2401C49.1768 88.5025 50.121 90.7616 50.5189 92.7228C50.9168 94.684 50.3713 96.4913 49.518 96.6644C48.6647 96.8375 47.8527 95.4996 47.4548 93.5385C47.0523 91.1575 48.1112 88.6283 46.1775 87.2401Z" fill="#3A27CC"/>
<path d="M50.639 94.4811C50.9126 91.2385 49.3496 89.3537 47.7971 88.0911C46.2445 86.8285 44.3905 86.4731 43.8411 87.1486C43.2918 87.8241 44.1 89.1643 45.6526 90.4268C47.5749 91.8883 50.3066 92.124 50.639 94.4811Z" fill="#7140FF"/>
<path fill-rule="evenodd" clip-rule="evenodd" d="M45.9536 87.0378C46.0244 87.1049 46.1003 87.1719 46.1815 87.2384C47.4768 88.1684 47.4293 89.6102 47.3777 91.1765C47.375 91.26 47.3722 91.3438 47.3697 91.4279C46.7816 91.1403 46.1876 90.8297 45.6555 90.4252C44.103 89.1626 43.2947 87.8224 43.8441 87.1469C44.1806 86.733 45.007 86.7062 45.9536 87.0378ZM50.6622 94.1805C50.6549 94.267 50.646 94.3525 50.6356 94.4369C50.6378 94.451 50.6399 94.4652 50.6419 94.4795C50.6504 94.3785 50.6572 94.2788 50.6622 94.1805Z" fill="#8155FF"/>
<path d="M36.4266 94.6794C36.0254 91.45 37.5129 89.5051 39.0145 88.1823C40.5161 86.8596 42.3547 86.4313 42.9302 87.0846C43.5057 87.7379 42.7509 89.1089 41.2494 90.4317C39.3861 91.9678 36.6658 92.311 36.4266 94.6794Z" fill="#3A27CC"/>
<path d="M40.4787 87.2018C37.5314 88.5814 36.677 90.876 36.3567 92.8514C36.0363 94.8267 36.6527 96.6111 37.5121 96.7504C38.3715 96.8898 39.1303 95.521 39.4506 93.5456C39.7589 91.1506 38.6012 88.6652 40.4787 87.2018Z" fill="#7140FF"/>
<path fill-rule="evenodd" clip-rule="evenodd" d="M36.3632 94.9748C36.3861 94.8799 36.4064 94.7807 36.4235 94.6771C36.5838 93.0907 37.8573 92.4129 39.2407 91.6766C39.3144 91.6374 39.3884 91.598 39.4626 91.5583C39.5064 92.2113 39.5333 92.881 39.448 93.5438C39.1277 95.5191 38.369 96.888 37.5095 96.7486C36.9831 96.6632 36.5478 95.9605 36.3632 94.9748ZM40.1981 87.3359C40.2794 87.2977 40.3605 87.2616 40.4414 87.2274C40.4528 87.2182 40.4644 87.2091 40.4761 87.1999C40.3813 87.2443 40.2887 87.2896 40.1981 87.3359Z" fill="#8155FF"/>
<path d="M47.6002 102.493H45.2033C44.7839 102.493 44.5158 102.466 44.3164 102.404C43.8558 102.246 43.5327 101.922 43.3746 101.455C43.3058 101.262 43.2783 101.022 43.2783 100.692C43.2783 99.2023 43.2783 97.7128 43.2783 96.2233C43.2783 95.9414 43.3196 95.7145 43.3952 95.522C43.5602 95.1164 43.8558 94.8208 44.2614 94.6627C44.447 94.5871 44.6739 94.5527 44.9626 94.5527H46.184C46.0534 94.0165 46.1702 93.4665 46.5002 93.0403C46.8371 92.6071 47.3664 92.3528 47.9095 92.3528C48.3083 92.3528 48.6933 92.4903 49.0164 92.7446C49.5595 93.1778 49.7932 93.8927 49.6282 94.5527H50.0338C50.4188 94.5527 50.6594 94.5871 50.8451 94.649C51.2919 94.8002 51.6082 95.1164 51.7663 95.5564C51.8419 95.7627 51.8763 96.0377 51.8763 96.4501C51.8763 97.9213 51.8763 99.3925 51.8763 100.864C51.8763 101.606 51.5119 102.163 50.8726 102.39C50.6663 102.466 50.3845 102.5 49.9926 102.5H47.6071L47.6002 102.493Z" fill="white"/>
<path d="M48.5766 95.1939C48.5213 95.3023 48.6247 95.4591 48.7158 95.46C49.0945 95.4646 49.4734 95.465 49.8524 95.4614C50.1139 95.4587 50.3026 95.4776 50.4187 95.5181C50.6599 95.6021 50.8236 95.7618 50.9097 95.9973C50.9535 96.1179 50.9753 96.3311 50.975 96.637C50.9726 98.0633 50.9729 99.4894 50.9759 100.915C50.9768 101.355 50.7995 101.639 50.4441 101.765C50.3174 101.81 50.1036 101.832 49.8026 101.832C48.3327 101.828 46.863 101.828 45.3935 101.831C45.0691 101.832 44.8493 101.813 44.7338 101.774C44.4884 101.691 44.322 101.523 44.2346 101.27C44.1965 101.159 44.1786 100.989 44.1807 100.758C44.1825 100.536 44.1822 100.314 44.1798 100.092C44.177 99.8306 44.246 99.6311 44.5171 99.5871C44.5878 99.5757 44.6856 99.5905 44.8104 99.6316C45.2212 99.7667 45.6256 99.73 45.9448 99.4489C46.5695 98.8985 46.3465 97.8108 45.5036 97.6127C45.2058 97.5424 45.0022 97.61 44.7175 97.6952C44.5098 97.7569 44.3126 97.7011 44.2228 97.5011C44.1941 97.4377 44.1798 97.3319 44.1798 97.1838C44.1798 96.9293 44.1805 96.6751 44.182 96.4212C44.1829 96.2341 44.2041 96.0896 44.2455 95.9878C44.3353 95.7662 44.4909 95.6115 44.7125 95.5235C44.8134 95.4833 44.9575 95.4632 45.1446 95.4632C45.6732 95.4629 46.2014 95.4626 46.7291 95.4623C46.9136 95.4619 47.0741 95.3621 46.9821 95.1599C46.9082 94.9967 46.8139 94.8135 46.774 94.6539C46.5233 93.6592 47.6581 92.932 48.4506 93.5649C48.7929 93.8383 48.933 94.2949 48.7865 94.712C48.7327 94.8646 48.6628 95.0253 48.5766 95.1939Z" fill="#2C00AD"/>
</g>
<path d="M59.9565 94.596H62.3565C63.8125 94.596 64.7085 93.748 64.7085 92.5C64.7085 91.204 63.8125 90.356 62.3565 90.356H59.9565V94.596ZM62.5645 95.796H59.9565V100.5H58.6125V89.156H62.5645C64.6605 89.156 66.0525 90.596 66.0525 92.484C66.0525 94.388 64.6605 95.796 62.5645 95.796ZM66.7447 98.468C66.7447 97.124 67.6887 96.372 69.0327 96.18L71.0967 95.876C71.6567 95.796 71.7847 95.556 71.7847 95.22C71.7847 94.356 71.2087 93.7 70.0087 93.7C68.8887 93.7 68.2167 94.372 68.1047 95.348L66.8887 95.06C67.0487 93.604 68.3287 92.612 69.9767 92.612C72.1527 92.612 73.0647 93.86 73.0647 95.348V99.22C73.0647 99.86 73.1127 100.26 73.1607 100.5H71.9127C71.8807 100.324 71.8167 99.94 71.8167 99.348C71.4807 99.972 70.6487 100.724 69.2727 100.724C67.6887 100.724 66.7447 99.636 66.7447 98.468ZM69.4327 99.636C70.7607 99.636 71.7847 98.9 71.7847 97.268V96.756L69.2887 97.124C68.5527 97.236 68.0247 97.652 68.0247 98.404C68.0247 99.028 68.5527 99.636 69.4327 99.636ZM77.0651 103.54H75.6411L77.4971 99.588L74.2011 92.836H75.6731L78.2011 98.26L80.5851 92.836H81.9771L77.0651 103.54ZM84.5761 92.836V93.924C85.0081 93.124 85.9361 92.612 86.9281 92.612C87.9841 92.612 88.8961 93.172 89.2801 94.18C89.8241 93.092 90.7841 92.612 91.8721 92.612C93.2641 92.612 94.5121 93.572 94.5121 95.492V100.5H93.2321V95.636C93.2321 94.58 92.6721 93.764 91.4721 93.764C90.3361 93.764 89.5681 94.692 89.5681 95.844V100.5H88.2881V95.636C88.2881 94.58 87.7281 93.764 86.5121 93.764C85.3601 93.764 84.6081 94.66 84.6081 95.86V100.5H83.3281V92.836H84.5761ZM97.5622 95.924H102.138C102.106 94.708 101.322 93.748 99.8662 93.748C98.5382 93.748 97.6422 94.788 97.5622 95.924ZM102.314 97.924L103.418 98.324C102.986 99.652 101.786 100.724 100.01 100.724C97.9622 100.724 96.2182 99.22 96.2182 96.644C96.2182 94.228 97.9142 92.612 99.8502 92.612C102.17 92.612 103.466 94.228 103.466 96.564C103.466 96.724 103.45 96.9 103.434 97.012H97.5302V97.076C97.5302 98.532 98.6342 99.572 100.01 99.572C101.306 99.572 102.01 98.836 102.314 97.924ZM106.522 95.988V100.5H105.242V92.836H106.49V93.988C106.986 93.092 107.882 92.612 108.89 92.612C110.73 92.612 111.626 93.924 111.626 95.588V100.5H110.346V95.78C110.346 94.66 109.834 93.764 108.442 93.764C107.21 93.764 106.522 94.788 106.522 95.988ZM115.642 90.404V92.836H117.45V93.988H115.642V98.228C115.642 99.028 115.994 99.428 116.81 99.428C117.034 99.428 117.322 99.38 117.45 99.348V100.436C117.306 100.484 116.938 100.58 116.442 100.58C115.178 100.58 114.362 99.796 114.362 98.404V93.988H112.826V92.836H113.322C114.106 92.836 114.442 92.388 114.442 91.668V90.404H115.642Z" fill="white"/>
<path d="M134.925 42C134.925 71.1099 79.8892 52.5255 79.8892 78" stroke="#94A3B8" stroke-width="2" stroke-dasharray="2.39 3.39"/>
<defs>
<linearGradient id="paint0_linear_2136_5256" x1="120.271" y1="115.976" x2="179.219" y2="142.624" gradientUnits="userSpaceOnUse">
<stop stop-color="#94A3B8"/>
<stop offset="0.588542" stop-color="#94A3B8" stop-opacity="0.43"/>
<stop offset="1" stop-color="#94A3B8"/>
</linearGradient>
<linearGradient id="paint1_linear_2136_5256" x1="121.901" y1="130.472" x2="169.437" y2="139.363" gradientUnits="userSpaceOnUse">
<stop stop-color="#94A3B8"/>
<stop offset="0.588542" stop-color="#94A3B8" stop-opacity="0.43"/>
<stop offset="1" stop-color="#94A3B8"/>
</linearGradient>
<clipPath id="clip0_2136_5256">
<rect width="16" height="16" fill="white" transform="translate(197.342 136)"/>
</clipPath>
<clipPath id="clip1_2136_5256">
<rect width="16" height="16" fill="white" transform="translate(190.842 100)"/>
</clipPath>
<clipPath id="clip2_2136_5256">
<rect width="16" height="16" fill="white" transform="translate(177.842 169.411)"/>
</clipPath>
<clipPath id="clip3_2136_5256">
<rect width="16" height="16" fill="white" transform="translate(95.002 17.5)"/>
</clipPath>
<clipPath id="clip4_2136_5256">
<rect width="16" height="16" fill="white" transform="translate(35.8765 86.5)"/>
</clipPath>
</defs>
</svg>
