<svg width="263" height="204" viewBox="0 0 263 204" fill="none" xmlns="http://www.w3.org/2000/svg">
<rect x="4" y="4" width="255" height="196" rx="7" stroke="#93A7BE" stroke-width="2"/>
<rect x="83.1006" y="60" width="88" height="33" rx="6" fill="#2D75FF"/>
<g clip-path="url(#clip0_2148_13478)">
<path d="M100.618 82.4516C97.799 84.4997 95.2058 84.1125 93.1884 83.39C91.1711 82.6674 89.8177 81.1658 90.132 80.2881C90.4464 79.4103 92.1223 79.4079 94.1397 80.1305C96.5442 81.0816 98.2744 83.4536 100.618 82.4516Z" fill="#3A27CC"/>
<path d="M91.5107 82.5248C94.3299 84.5729 96.9231 84.1857 98.9405 83.4632C100.958 82.7407 102.311 81.239 101.997 80.3613C101.683 79.4836 100.007 79.4812 97.9892 80.2037C95.5847 81.1549 93.8545 83.5269 91.5107 82.5248Z" fill="#7140FF"/>
<path fill-rule="evenodd" clip-rule="evenodd" d="M100.928 82.3579C100.827 82.3855 100.723 82.418 100.617 82.4556C99.0473 83.1268 97.7526 82.2841 96.3461 81.3686C96.2713 81.3198 96.1961 81.2709 96.1205 81.2219C96.71 80.8427 97.3238 80.4706 97.9893 80.2074C100.007 79.4848 101.683 79.4872 101.997 80.365C102.189 80.9027 101.756 81.6744 100.928 82.3579ZM91.7757 82.7143C91.6998 82.6592 91.6257 82.6032 91.5535 82.5464C91.5393 82.5406 91.525 82.5346 91.5107 82.5285C91.5993 82.5928 91.6876 82.6547 91.7757 82.7143Z" fill="#8155FF"/>
<path d="M98.9834 69.3744C102.195 70.7263 103.206 73.1454 103.632 75.2455C104.058 77.3455 103.474 79.2808 102.561 79.4662C101.647 79.6516 100.777 78.219 100.351 76.1189C99.9202 73.5692 101.054 70.861 98.9834 69.3744Z" fill="#3A27CC"/>
<path d="M103.761 77.1281C104.054 73.6558 102.38 71.6375 100.717 70.2855C99.055 68.9335 97.0696 68.5529 96.4814 69.2762C95.8931 69.9995 96.7586 71.4346 98.4211 72.7867C100.48 74.3516 103.405 74.6041 103.761 77.1281Z" fill="#7140FF"/>
<path fill-rule="evenodd" clip-rule="evenodd" d="M98.7431 69.1574C98.819 69.2293 98.9003 69.3011 98.9873 69.3724C100.374 70.3682 100.323 71.9121 100.268 73.5894C100.265 73.6787 100.262 73.7684 100.26 73.8585C99.63 73.5505 98.9939 73.2179 98.4242 72.7848C96.7617 71.4328 95.8963 69.9977 96.4845 69.2743C96.8449 68.8312 97.7296 68.8024 98.7431 69.1574ZM103.786 76.8005C103.778 76.8948 103.768 76.9881 103.757 77.08C103.759 77.0953 103.762 77.1107 103.764 77.1262C103.773 77.0162 103.78 76.9077 103.786 76.8005Z" fill="#8155FF"/>
<path d="M88.5415 77.3403C88.112 73.8823 89.7048 71.7997 91.3127 70.3832C92.9206 68.9667 94.8895 68.5081 95.5058 69.2077C96.122 69.9073 95.3138 71.3754 93.7059 72.7919C91.7106 74.4367 88.7977 74.8042 88.5415 77.3403Z" fill="#3A27CC"/>
<path d="M92.8809 69.3334C89.7249 70.8107 88.81 73.2678 88.467 75.3831C88.124 77.4983 88.7839 79.409 89.7042 79.5583C90.6245 79.7075 91.437 78.2417 91.78 76.1265C92.1101 73.5619 90.8705 70.9004 92.8809 69.3334Z" fill="#7140FF"/>
<path fill-rule="evenodd" clip-rule="evenodd" d="M88.4738 77.6571C88.4984 77.5554 88.5201 77.4489 88.5385 77.3377C88.7101 75.6389 90.0738 74.9132 91.5552 74.1247C91.634 74.0828 91.7132 74.0406 91.7925 73.9982C91.8395 74.6975 91.8683 75.4146 91.777 76.1243C91.4339 78.2395 90.6215 79.7053 89.7012 79.5561C89.1375 79.4647 88.6715 78.7124 88.4738 77.6571ZM92.5815 69.4761C92.6681 69.4354 92.7547 69.3969 92.8409 69.3604C92.8531 69.3506 92.8654 69.3409 92.8778 69.3312C92.7768 69.3785 92.678 69.4268 92.5815 69.4761Z" fill="#8155FF"/>
</g>
<path d="M109.212 76.596H111.612C113.068 76.596 113.964 75.748 113.964 74.5C113.964 73.204 113.068 72.356 111.612 72.356H109.212V76.596ZM111.82 77.796H109.212V82.5H107.868V71.156H111.82C113.916 71.156 115.308 72.596 115.308 74.484C115.308 76.388 113.916 77.796 111.82 77.796ZM118.168 82.5H116.888V70.932H118.168V82.5ZM119.965 80.468C119.965 79.124 120.909 78.372 122.253 78.18L124.317 77.876C124.877 77.796 125.005 77.556 125.005 77.22C125.005 76.356 124.429 75.7 123.229 75.7C122.109 75.7 121.437 76.372 121.325 77.348L120.109 77.06C120.269 75.604 121.549 74.612 123.197 74.612C125.373 74.612 126.285 75.86 126.285 77.348V81.22C126.285 81.86 126.333 82.26 126.381 82.5H125.133C125.101 82.324 125.037 81.94 125.037 81.348C124.701 81.972 123.869 82.724 122.493 82.724C120.909 82.724 119.965 81.636 119.965 80.468ZM122.653 81.636C123.981 81.636 125.005 80.9 125.005 79.268V78.756L122.509 79.124C121.773 79.236 121.245 79.652 121.245 80.404C121.245 81.028 121.773 81.636 122.653 81.636ZM130.33 72.404V74.836H132.138V75.988H130.33V80.228C130.33 81.028 130.682 81.428 131.498 81.428C131.722 81.428 132.01 81.38 132.138 81.348V82.436C131.994 82.484 131.626 82.58 131.13 82.58C129.866 82.58 129.05 81.796 129.05 80.404V75.988H127.514V74.836H128.01C128.794 74.836 129.13 74.388 129.13 73.668V72.404H130.33ZM137.576 75.988H135.592V82.5H134.312V75.988H132.808V74.836H134.312V73.412C134.312 71.732 135.368 70.852 136.728 70.852C137.192 70.852 137.496 70.948 137.608 71.012V72.116C137.496 72.068 137.288 72.004 136.92 72.004C136.296 72.004 135.592 72.34 135.592 73.444V74.836H137.576V75.988ZM142.107 74.612C144.315 74.612 145.947 76.308 145.947 78.66C145.947 81.028 144.315 82.724 142.107 82.724C139.899 82.724 138.267 81.028 138.267 78.66C138.267 76.308 139.899 74.612 142.107 74.612ZM142.107 75.764C140.731 75.764 139.547 76.804 139.547 78.66C139.547 80.532 140.731 81.572 142.107 81.572C143.483 81.572 144.667 80.532 144.667 78.66C144.667 76.804 143.483 75.764 142.107 75.764ZM151.872 74.788V76.148C151.664 76.084 151.424 76.068 151.2 76.068C149.92 76.068 149.04 76.804 149.04 78.532V82.5H147.76V74.836H149.008V76.212C149.504 75.092 150.48 74.724 151.328 74.724C151.536 74.724 151.76 74.756 151.872 74.788ZM154.473 74.836V75.924C154.905 75.124 155.833 74.612 156.825 74.612C157.881 74.612 158.793 75.172 159.177 76.18C159.721 75.092 160.681 74.612 161.769 74.612C163.161 74.612 164.409 75.572 164.409 77.492V82.5H163.129V77.636C163.129 76.58 162.569 75.764 161.369 75.764C160.233 75.764 159.465 76.692 159.465 77.844V82.5H158.185V77.636C158.185 76.58 157.625 75.764 156.409 75.764C155.257 75.764 154.505 76.66 154.505 77.86V82.5H153.225V74.836H154.473Z" fill="white"/>
<rect x="128.251" y="21.4319" width="38" height="20" rx="6" fill="#2D75FF"/>
<path d="M133.893 27.4799H135.093C135.821 27.4799 136.269 27.0559 136.269 26.4319C136.269 25.7839 135.821 25.3599 135.093 25.3599H133.893V27.4799ZM135.197 28.0799H133.893V30.4319H133.221V24.7599H135.197C136.245 24.7599 136.941 25.4799 136.941 26.4239C136.941 27.3759 136.245 28.0799 135.197 28.0799ZM138.371 30.4319H137.731V24.6479H138.371V30.4319ZM139.27 29.4159C139.27 28.7439 139.742 28.3679 140.414 28.2719L141.446 28.1199C141.726 28.0799 141.79 27.9599 141.79 27.7919C141.79 27.3599 141.502 27.0319 140.902 27.0319C140.342 27.0319 140.006 27.3679 139.95 27.8559L139.342 27.7119C139.422 26.9839 140.062 26.4879 140.886 26.4879C141.974 26.4879 142.43 27.1119 142.43 27.8559V29.7919C142.43 30.1119 142.454 30.3119 142.478 30.4319H141.854C141.838 30.3439 141.806 30.1519 141.806 29.8559C141.638 30.1679 141.222 30.5439 140.534 30.5439C139.742 30.5439 139.27 29.9999 139.27 29.4159ZM140.614 29.9999C141.278 29.9999 141.79 29.6319 141.79 28.8159V28.5599L140.542 28.7439C140.174 28.7999 139.91 29.0079 139.91 29.3839C139.91 29.6959 140.174 29.9999 140.614 29.9999ZM144.452 25.3839V26.5999L145.356 26.5999V27.1759L144.452 27.1759V29.2959C144.452 29.6959 144.628 29.8959 145.036 29.8959C145.148 29.8959 145.292 29.8719 145.356 29.8559V30.3999C145.284 30.4239 145.1 30.4719 144.852 30.4719C144.22 30.4719 143.812 30.0799 143.812 29.3839V27.1759H143.044V26.5999H143.292C143.684 26.5999 143.852 26.3759 143.852 26.0159V25.3839H144.452ZM148.075 27.1759H147.083V30.4319H146.443V27.1759H145.691V26.5999H146.443V25.8879C146.443 25.0479 146.971 24.6079 147.651 24.6079C147.883 24.6079 148.035 24.6559 148.091 24.6879V25.2399C148.035 25.2159 147.931 25.1839 147.747 25.1839C147.435 25.1839 147.083 25.3519 147.083 25.9039V26.5999H148.075V27.1759ZM150.341 26.4879C151.445 26.4879 152.261 27.3359 152.261 28.5119C152.261 29.6959 151.445 30.5439 150.341 30.5439C149.237 30.5439 148.421 29.6959 148.421 28.5119C148.421 27.3359 149.237 26.4879 150.341 26.4879ZM150.341 27.0639C149.653 27.0639 149.061 27.5839 149.061 28.5119C149.061 29.4479 149.653 29.9679 150.341 29.9679C151.029 29.9679 151.621 29.4479 151.621 28.5119C151.621 27.5839 151.029 27.0639 150.341 27.0639ZM155.223 26.5759V27.2559C155.119 27.2239 154.999 27.2159 154.887 27.2159C154.247 27.2159 153.807 27.5839 153.807 28.4479V30.4319H153.167V26.5999H153.791V27.2879C154.039 26.7279 154.527 26.5439 154.951 26.5439C155.055 26.5439 155.167 26.5599 155.223 26.5759ZM156.524 26.5999V27.1439C156.74 26.7439 157.204 26.4879 157.7 26.4879C158.228 26.4879 158.684 26.7679 158.876 27.2719C159.148 26.7279 159.628 26.4879 160.172 26.4879C160.868 26.4879 161.492 26.9679 161.492 27.9279V30.4319H160.852V27.9999C160.852 27.4719 160.572 27.0639 159.972 27.0639C159.404 27.0639 159.02 27.5279 159.02 28.1039V30.4319H158.38V27.9999C158.38 27.4719 158.1 27.0639 157.492 27.0639C156.916 27.0639 156.54 27.5119 156.54 28.1119V30.4319H155.9V26.5999H156.524ZM144.587 37.4319L143.939 35.7759H141.339L140.707 37.4319H139.979L142.251 31.7599H143.035L145.315 37.4319H144.587ZM142.635 32.4479L141.579 35.1599H143.699L142.635 32.4479ZM146.652 38.9519H146.012V33.5999H146.636V34.2399C146.836 33.8479 147.284 33.4879 147.964 33.4879C149.092 33.4879 149.708 34.3679 149.708 35.5119C149.708 36.6559 149.052 37.5439 147.948 37.5439C147.292 37.5439 146.852 37.1999 146.652 36.8399V38.9519ZM147.852 36.9679C148.588 36.9679 149.068 36.3599 149.068 35.5119C149.068 34.6639 148.596 34.0639 147.852 34.0639C147.108 34.0639 146.636 34.6639 146.636 35.5119C146.636 36.3599 147.116 36.9679 147.852 36.9679ZM151.259 38.9519H150.619V33.5999H151.243V34.2399C151.443 33.8479 151.891 33.4879 152.571 33.4879C153.699 33.4879 154.315 34.3679 154.315 35.5119C154.315 36.6559 153.659 37.5439 152.555 37.5439C151.899 37.5439 151.459 37.1999 151.259 36.8399V38.9519ZM152.459 36.9679C153.195 36.9679 153.675 36.3599 153.675 35.5119C153.675 34.6639 153.203 34.0639 152.459 34.0639C151.715 34.0639 151.243 34.6639 151.243 35.5119C151.243 36.3599 151.723 36.9679 152.459 36.9679Z" fill="white"/>
<rect x="180.239" y="25.4319" width="33" height="16" rx="6" fill="#2D75FF"/>
<path d="M186.638 36.0439C185.486 36.0439 184.63 35.3319 184.63 34.0119V30.2599H185.302V33.9959C185.302 34.9079 185.782 35.4279 186.638 35.4279C187.494 35.4279 187.974 34.9079 187.974 33.9959V30.2599H188.646V34.0119C188.646 35.3319 187.79 36.0439 186.638 36.0439ZM190.781 30.8839V32.0999H191.685V32.6759H190.781V34.7959C190.781 35.1959 190.957 35.3959 191.365 35.3959C191.477 35.3959 191.621 35.3719 191.685 35.3559V35.8999C191.613 35.9239 191.429 35.9719 191.181 35.9719C190.549 35.9719 190.141 35.5799 190.141 34.8839V32.6759H189.373V32.0999H189.621C190.013 32.0999 190.181 31.8759 190.181 31.5159V30.8839H190.781ZM193.124 35.9319H192.484V32.0999H193.124V35.9319ZM192.324 30.5879C192.324 30.3239 192.54 30.1079 192.804 30.1079C193.068 30.1079 193.284 30.3239 193.284 30.5879C193.284 30.8519 193.068 31.0679 192.804 31.0679C192.54 31.0679 192.324 30.8519 192.324 30.5879ZM194.934 35.9319H194.294V30.1479L194.934 30.1479V35.9319ZM196.745 35.9319H196.105V32.0999H196.745V35.9319ZM195.945 30.5879C195.945 30.3239 196.161 30.1079 196.425 30.1079C196.689 30.1079 196.905 30.3239 196.905 30.5879C196.905 30.8519 196.689 31.0679 196.425 31.0679C196.161 31.0679 195.945 30.8519 195.945 30.5879ZM198.844 30.8839V32.0999H199.748V32.6759H198.844V34.7959C198.844 35.1959 199.02 35.3959 199.428 35.3959C199.54 35.3959 199.684 35.3719 199.748 35.3559V35.8999C199.676 35.9239 199.492 35.9719 199.244 35.9719C198.612 35.9719 198.204 35.5799 198.204 34.8839V32.6759H197.436V32.0999H197.684C198.076 32.0999 198.244 31.8759 198.244 31.5159V30.8839H198.844ZM201.187 35.9319H200.547V32.0999H201.187V35.9319ZM200.387 30.5879C200.387 30.3239 200.603 30.1079 200.867 30.1079C201.131 30.1079 201.347 30.3239 201.347 30.5879C201.347 30.8519 201.131 31.0679 200.867 31.0679C200.603 31.0679 200.387 30.8519 200.387 30.5879ZM202.765 33.6439H205.053C205.037 33.0359 204.645 32.5559 203.917 32.5559C203.253 32.5559 202.805 33.0759 202.765 33.6439ZM205.141 34.6439L205.693 34.8439C205.477 35.5079 204.877 36.0439 203.989 36.0439C202.965 36.0439 202.093 35.2919 202.093 34.0039C202.093 32.7959 202.941 31.9879 203.909 31.9879C205.069 31.9879 205.717 32.7959 205.717 33.9639C205.717 34.0439 205.709 34.1319 205.701 34.1879H202.749V34.2199C202.749 34.9479 203.301 35.4679 203.989 35.4679C204.637 35.4679 204.989 35.0999 205.141 34.6439ZM206.293 34.9239L206.869 34.7239C206.925 35.1639 207.253 35.4999 207.829 35.4999C208.285 35.4999 208.573 35.2439 208.573 34.9159C208.573 34.6279 208.341 34.4359 207.989 34.3559L207.365 34.2119C206.781 34.0759 206.413 33.6999 206.413 33.1479C206.413 32.5079 207.021 31.9879 207.749 31.9879C208.741 31.9879 209.085 32.6199 209.173 33.0119L208.605 33.2199C208.557 32.9559 208.357 32.5319 207.749 32.5319C207.349 32.5319 207.037 32.7879 207.037 33.1079C207.037 33.3799 207.205 33.5479 207.541 33.6279L208.165 33.7719C208.837 33.9239 209.205 34.3159 209.205 34.8839C209.205 35.4359 208.733 36.0439 207.821 36.0439C206.813 36.0439 206.357 35.4039 206.293 34.9239Z" fill="white"/>
<rect x="10.6255" y="11" width="93" height="33" rx="6" fill="#B1AFFC"/>
<g clip-path="url(#clip1_2148_13478)">
<path d="M29.9532 32.4524C27.3205 34.3651 24.8988 34.0035 23.0148 33.3287C21.1309 32.654 19.867 31.2517 20.1606 30.432C20.4542 29.6123 22.0192 29.6101 23.9032 30.2848C26.1486 31.1731 27.7644 33.3882 29.9532 32.4524Z" fill="#3A27CC"/>
<path d="M21.4487 32.5208C24.0814 34.4334 26.5031 34.0718 28.387 33.3971C30.271 32.7223 31.5348 31.32 31.2413 30.5004C30.9477 29.6807 29.3826 29.6784 27.4987 30.3532C25.2532 31.2414 23.6374 33.4566 21.4487 32.5208Z" fill="#7140FF"/>
<path fill-rule="evenodd" clip-rule="evenodd" d="M30.2427 32.3647C30.1485 32.3905 30.0518 32.4208 29.9527 32.4559C28.4866 33.0828 27.2776 32.2958 25.9641 31.4408C25.8942 31.3953 25.824 31.3496 25.7534 31.3039C26.3038 30.9498 26.8769 30.6024 27.4983 30.3566C29.3822 29.6819 30.9473 29.6841 31.2408 30.5038C31.4207 31.0059 31.0161 31.7265 30.2427 32.3647ZM21.7039 32.7034C21.6306 32.6502 21.559 32.5962 21.4893 32.5414C21.4757 32.5358 21.462 32.5301 21.4482 32.5242C21.5337 32.5863 21.6189 32.646 21.7039 32.7034Z" fill="#8155FF"/>
<path d="M28.4265 20.2401C31.4258 21.5025 32.37 23.7616 32.7679 25.7228C33.1659 27.684 32.6203 29.4913 31.767 29.6644C30.9138 29.8375 30.1017 28.4996 29.7038 26.5385C29.3013 24.1575 30.3602 21.6283 28.4265 20.2401Z" fill="#3A27CC"/>
<path d="M32.888 27.4811C33.1616 24.2385 31.5986 22.3537 30.0461 21.0911C28.4935 19.8285 26.6395 19.4731 26.0902 20.1486C25.5408 20.8241 26.3491 22.1643 27.9016 23.4268C29.8239 24.8883 32.5556 25.124 32.888 27.4811Z" fill="#7140FF"/>
<path fill-rule="evenodd" clip-rule="evenodd" d="M28.2026 20.0378C28.2734 20.1049 28.3493 20.1719 28.4305 20.2384C29.7258 21.1684 29.6783 22.6102 29.6268 24.1765C29.624 24.26 29.6213 24.3438 29.6187 24.4279C29.0307 24.1403 28.4366 23.8297 27.9046 23.4252C26.352 22.1626 25.5438 20.8224 26.0931 20.1469C26.4297 19.733 27.256 19.7062 28.2026 20.0378ZM32.9112 27.1805C32.9039 27.267 32.895 27.3525 32.8846 27.4369C32.8868 27.451 32.8889 27.4652 32.8909 27.4795C32.8995 27.3785 32.9062 27.2788 32.9112 27.1805Z" fill="#8155FF"/>
<path d="M18.6756 27.6794C18.2745 24.45 19.7619 22.5051 21.2635 21.1823C22.7651 19.8596 24.6037 19.4313 25.1792 20.0846C25.7548 20.7379 25 22.1089 23.4984 23.4317C21.6351 24.9678 18.9149 25.311 18.6756 27.6794Z" fill="#3A27CC"/>
<path d="M22.7277 20.2018C19.7805 21.5814 18.926 23.876 18.6057 25.8514C18.2854 27.8267 18.9017 29.6111 19.7611 29.7504C20.6206 29.8898 21.3793 28.521 21.6996 26.5456C22.0079 24.1506 20.8502 21.6652 22.7277 20.2018Z" fill="#7140FF"/>
<path fill-rule="evenodd" clip-rule="evenodd" d="M18.6122 27.9748C18.6351 27.8799 18.6554 27.7807 18.6726 27.6771C18.8328 26.0907 20.1063 25.4129 21.4897 24.6766C21.5634 24.6374 21.6374 24.598 21.7116 24.5583C21.7554 25.2113 21.7823 25.881 21.697 26.5438C21.3767 28.5191 20.618 29.888 19.7586 29.7486C19.2321 29.6632 18.7968 28.9605 18.6122 27.9748ZM22.4472 20.3359C22.5284 20.2977 22.6096 20.2616 22.6904 20.2274C22.7019 20.2182 22.7134 20.2091 22.7251 20.1999C22.6303 20.2443 22.5377 20.2896 22.4472 20.3359Z" fill="#8155FF"/>
<rect x="24.3047" y="25.916" width="7.32244" height="7.03385" rx="1.33333" fill="white"/>
<path d="M24.9961 27.2299C24.9961 26.8617 25.2946 26.5632 25.6628 26.5632H30.3315C30.6997 26.5632 30.9981 26.8617 30.9981 27.2299V31.4876C30.9981 31.8557 30.6997 32.1542 30.3315 32.1542H25.6628C25.2946 32.1542 24.9961 31.8557 24.9961 31.4875V27.2299Z" fill="#2C00AD"/>
<rect x="25.5342" y="27.1199" width="7.32244" height="7.03385" rx="1.33333" fill="white"/>
<path d="M26.2256 28.434C26.2256 28.0658 26.5241 27.7673 26.8923 27.7673H31.561C31.9291 27.7673 32.2276 28.0658 32.2276 28.434V32.6917C32.2276 33.0598 31.9291 33.3583 31.561 33.3583H26.8923C26.5241 33.3583 26.2256 33.0598 26.2256 32.6917V28.434Z" fill="#2C00AD"/>
<rect x="26.8027" y="28.4661" width="7.32244" height="7.03385" rx="1.33333" fill="white"/>
<path fill-rule="evenodd" clip-rule="evenodd" d="M28.1613 29.1135C27.7931 29.1135 27.4946 29.412 27.4946 29.7802V31.1149H33.4967V29.7802C33.4967 29.412 33.1982 29.1135 32.83 29.1135H28.1613ZM33.4967 31.7816H27.4946V34.0378C27.4946 34.406 27.7931 34.7045 28.1613 34.7045H32.83C33.1982 34.7045 33.4967 34.406 33.4967 34.0378V31.7816ZM29.0769 30.0928C29.0769 30.384 28.8409 30.6201 28.5496 30.6201C28.2584 30.6201 28.0223 30.384 28.0223 30.0928C28.0223 29.8015 28.2584 29.5654 28.5496 29.5654C28.8409 29.5654 29.0769 29.8015 29.0769 30.0928ZM29.929 30.6201C30.2202 30.6201 30.4563 30.384 30.4563 30.0928C30.4563 29.8015 30.2202 29.5654 29.929 29.5654C29.6378 29.5654 29.4017 29.8015 29.4017 30.0928C29.4017 30.384 29.6378 30.6201 29.929 30.6201Z" fill="#2C00AD"/>
</g>
<path d="M45.8963 23.388H42.0083V33.5H40.6803V23.388H36.7923V22.156H45.8963V23.388ZM47.9969 28.924V33.5H46.7169V21.932H47.9969V26.86C48.4929 26.06 49.3729 25.612 50.3649 25.612C52.2049 25.612 53.1009 26.924 53.1009 28.588V33.5H51.8209V28.78C51.8209 27.66 51.3089 26.764 49.9169 26.764C48.7009 26.764 47.9969 27.74 47.9969 28.924ZM56.1542 28.924H60.7302C60.6982 27.708 59.9142 26.748 58.4582 26.748C57.1302 26.748 56.2342 27.788 56.1542 28.924ZM60.9062 30.924L62.0102 31.324C61.5782 32.652 60.3782 33.724 58.6022 33.724C56.5542 33.724 54.8102 32.22 54.8102 29.644C54.8102 27.228 56.5062 25.612 58.4422 25.612C60.7622 25.612 62.0582 27.228 62.0582 29.564C62.0582 29.724 62.0422 29.9 62.0262 30.012H56.1222V30.076C56.1222 31.532 57.2262 32.572 58.6022 32.572C59.8982 32.572 60.6022 31.836 60.9062 30.924ZM75.5718 33.5L74.2758 30.188H69.0758L67.8118 33.5H66.3558L70.8998 22.156H72.4678L77.0278 33.5H75.5718ZM71.6678 23.532L69.5558 28.956H73.7958L71.6678 23.532ZM79.7007 36.54H78.4207V25.836H79.6687V27.116C80.0687 26.332 80.9647 25.612 82.3247 25.612C84.5807 25.612 85.8127 27.372 85.8127 29.66C85.8127 31.948 84.5007 33.724 82.2927 33.724C80.9807 33.724 80.1007 33.036 79.7007 32.316V36.54ZM82.1007 32.572C83.5727 32.572 84.5327 31.356 84.5327 29.66C84.5327 27.964 83.5887 26.764 82.1007 26.764C80.6127 26.764 79.6687 27.964 79.6687 29.66C79.6687 31.356 80.6287 32.572 82.1007 32.572ZM88.9157 36.54H87.6357V25.836H88.8837V27.116C89.2837 26.332 90.1797 25.612 91.5397 25.612C93.7957 25.612 95.0277 27.372 95.0277 29.66C95.0277 31.948 93.7157 33.724 91.5077 33.724C90.1957 33.724 89.3157 33.036 88.9157 32.316V36.54ZM91.3157 32.572C92.7877 32.572 93.7477 31.356 93.7477 29.66C93.7477 27.964 92.8037 26.764 91.3157 26.764C89.8277 26.764 88.8837 27.964 88.8837 29.66C88.8837 31.356 89.8437 32.572 91.3157 32.572Z" fill="white"/>
<path d="M62.103 158C62.103 177.265 34 163.164 34 175.662" stroke="#94A3B8" stroke-width="1.5"/>
<path d="M62.103 158C62.103 177.647 91.1743 163.164 91.1743 175.662" stroke="#94A3B8" stroke-width="1.5"/>
<path d="M91.1743 176.605L88.4659 173.345L93.8828 173.345L91.1743 176.605Z" fill="#93A7BE"/>
<path d="M34 176.605L31.4632 173.736L36.5368 173.736L34 176.605Z" fill="#93A7BE"/>
<rect x="70.0488" y="176" width="38" height="18" rx="6" fill="#37B26C"/>
<path d="M74.2965 181.048H75.4965C76.2245 181.048 76.6725 180.624 76.6725 180C76.6725 179.352 76.2245 178.928 75.4965 178.928H74.2965V181.048ZM75.6005 181.648H74.2965V184H73.6245V178.328H75.6005C76.6485 178.328 77.3445 179.048 77.3445 179.992C77.3445 180.944 76.6485 181.648 75.6005 181.648ZM77.6907 182.984C77.6907 182.312 78.1627 181.936 78.8347 181.84L79.8667 181.688C80.1467 181.648 80.2107 181.528 80.2107 181.36C80.2107 180.928 79.9227 180.6 79.3227 180.6C78.7627 180.6 78.4267 180.936 78.3707 181.424L77.7627 181.28C77.8427 180.552 78.4827 180.056 79.3067 180.056C80.3947 180.056 80.8507 180.68 80.8507 181.424V183.36C80.8507 183.68 80.8747 183.88 80.8987 184H80.2747C80.2587 183.912 80.2267 183.72 80.2267 183.424C80.0587 183.736 79.6427 184.112 78.9547 184.112C78.1627 184.112 77.6907 183.568 77.6907 182.984ZM79.0347 183.568C79.6987 183.568 80.2107 183.2 80.2107 182.384V182.128L78.9627 182.312C78.5947 182.368 78.3307 182.576 78.3307 182.952C78.3307 183.264 78.5947 183.568 79.0347 183.568ZM82.8509 185.52H82.1389L83.0669 183.544L81.4189 180.168H82.1549L83.4189 182.88L84.6109 180.168H85.3069L82.8509 185.52ZM86.6064 180.168V180.712C86.8224 180.312 87.2864 180.056 87.7824 180.056C88.3104 180.056 88.7664 180.336 88.9584 180.84C89.2304 180.296 89.7104 180.056 90.2544 180.056C90.9504 180.056 91.5744 180.536 91.5744 181.496V184H90.9344V181.568C90.9344 181.04 90.6544 180.632 90.0544 180.632C89.4864 180.632 89.1024 181.096 89.1024 181.672V184H88.4624V181.568C88.4624 181.04 88.1824 180.632 87.5744 180.632C86.9984 180.632 86.6224 181.08 86.6224 181.68V184H85.9824V180.168H86.6064ZM93.0994 181.712H95.3874C95.3714 181.104 94.9794 180.624 94.2514 180.624C93.5874 180.624 93.1394 181.144 93.0994 181.712ZM95.4754 182.712L96.0274 182.912C95.8114 183.576 95.2114 184.112 94.3234 184.112C93.2994 184.112 92.4274 183.36 92.4274 182.072C92.4274 180.864 93.2754 180.056 94.2434 180.056C95.4034 180.056 96.0514 180.864 96.0514 182.032C96.0514 182.112 96.0434 182.2 96.0354 182.256H93.0834V182.288C93.0834 183.016 93.6354 183.536 94.3234 183.536C94.9714 183.536 95.3234 183.168 95.4754 182.712ZM97.5795 181.744V184H96.9395V180.168H97.5635V180.744C97.8115 180.296 98.2595 180.056 98.7635 180.056C99.6835 180.056 100.132 180.712 100.132 181.544V184H99.4915V181.64C99.4915 181.08 99.2355 180.632 98.5395 180.632C97.9235 180.632 97.5795 181.144 97.5795 181.744ZM102.139 178.952V180.168H103.043V180.744H102.139V182.864C102.139 183.264 102.315 183.464 102.723 183.464C102.835 183.464 102.979 183.44 103.043 183.424V183.968C102.971 183.992 102.787 184.04 102.539 184.04C101.907 184.04 101.499 183.648 101.499 182.952V180.744H100.731V180.168H100.979C101.371 180.168 101.539 179.944 101.539 179.584V178.952H102.139ZM80.3341 186.616L79.7341 186.832C79.6461 186.352 79.2701 185.824 78.4541 185.816C77.7981 185.816 77.2781 186.248 77.2781 186.824C77.2781 187.28 77.5741 187.608 78.0941 187.72L78.9261 187.904C79.8381 188.104 80.3821 188.672 80.3821 189.472C80.3821 190.344 79.6381 191.112 78.4541 191.112C77.1421 191.112 76.4781 190.256 76.3741 189.424L77.0061 189.224C77.0701 189.896 77.5581 190.504 78.4541 190.504C79.2701 190.504 79.7101 190.072 79.7101 189.528C79.7101 189.064 79.3901 188.704 78.7901 188.568L77.9581 188.384C77.1741 188.208 76.6061 187.696 76.6061 186.864C76.6061 185.976 77.4221 185.216 78.4461 185.216C79.6701 185.216 80.1901 185.96 80.3341 186.616ZM81.733 188.712H84.021C84.005 188.104 83.613 187.624 82.885 187.624C82.221 187.624 81.773 188.144 81.733 188.712ZM84.109 189.712L84.661 189.912C84.445 190.576 83.845 191.112 82.957 191.112C81.933 191.112 81.061 190.36 81.061 189.072C81.061 187.864 81.909 187.056 82.877 187.056C84.037 187.056 84.685 187.864 84.685 189.032C84.685 189.112 84.677 189.2 84.669 189.256H81.717V189.288C81.717 190.016 82.269 190.536 82.957 190.536C83.605 190.536 83.957 190.168 84.109 189.712ZM87.6291 187.144V187.824C87.5251 187.792 87.4051 187.784 87.2931 187.784C86.6531 187.784 86.2131 188.152 86.2131 189.016V191H85.5731V187.168H86.1971V187.856C86.4451 187.296 86.9331 187.112 87.3571 187.112C87.4611 187.112 87.5731 187.128 87.6291 187.144ZM91.5936 187.168L90.0656 191H89.4176L87.8736 187.168H88.5936L89.7456 190.256L90.9056 187.168H91.5936ZM92.975 191H92.335V187.168H92.975V191ZM92.175 185.656C92.175 185.392 92.391 185.176 92.655 185.176C92.919 185.176 93.135 185.392 93.135 185.656C93.135 185.92 92.919 186.136 92.655 186.136C92.391 186.136 92.175 185.92 92.175 185.656ZM95.7776 187.632C95.1056 187.632 94.5216 188.152 94.5216 189.08C94.5216 190 95.1056 190.536 95.7856 190.536C96.5136 190.536 96.8176 190.024 96.9296 189.672L97.4896 189.92C97.3056 190.488 96.7696 191.112 95.7856 191.112C94.6816 191.112 93.8816 190.248 93.8816 189.08C93.8816 187.888 94.6976 187.056 95.7776 187.056C96.7616 187.056 97.2976 187.656 97.4576 188.264L96.8816 188.512C96.7776 188.104 96.4656 187.632 95.7776 187.632ZM98.7315 188.712H101.019C101.003 188.104 100.611 187.624 99.8835 187.624C99.2195 187.624 98.7715 188.144 98.7315 188.712ZM101.107 189.712L101.659 189.912C101.443 190.576 100.843 191.112 99.9555 191.112C98.9315 191.112 98.0595 190.36 98.0595 189.072C98.0595 187.864 98.9075 187.056 99.8755 187.056C101.035 187.056 101.683 187.864 101.683 189.032C101.683 189.112 101.675 189.2 101.667 189.256H98.7155V189.288C98.7155 190.016 99.2675 190.536 99.9555 190.536C100.603 190.536 100.955 190.168 101.107 189.712Z" fill="white"/>
<rect x="11" y="176.662" width="46" height="18" rx="6" fill="#37B26C"/>
<path d="M19.2477 181.71H20.4477C21.1757 181.71 21.6237 181.286 21.6237 180.662C21.6237 180.014 21.1757 179.59 20.4477 179.59H19.2477V181.71ZM20.5517 182.31H19.2477V184.662H18.5757V178.99H20.5517C21.5997 178.99 22.2957 179.71 22.2957 180.654C22.2957 181.606 21.5997 182.31 20.5517 182.31ZM22.6418 183.646C22.6418 182.974 23.1138 182.598 23.7858 182.502L24.8178 182.35C25.0978 182.31 25.1618 182.19 25.1618 182.022C25.1618 181.59 24.8738 181.262 24.2738 181.262C23.7138 181.262 23.3778 181.598 23.3218 182.086L22.7138 181.942C22.7938 181.214 23.4338 180.718 24.2578 180.718C25.3458 180.718 25.8018 181.342 25.8018 182.086V184.022C25.8018 184.342 25.8258 184.542 25.8498 184.662H25.2258C25.2098 184.574 25.1778 184.382 25.1778 184.086C25.0098 184.398 24.5938 184.774 23.9058 184.774C23.1138 184.774 22.6418 184.23 22.6418 183.646ZM23.9858 184.23C24.6498 184.23 25.1618 183.862 25.1618 183.046V182.79L23.9138 182.974C23.5458 183.03 23.2818 183.238 23.2818 183.614C23.2818 183.926 23.5458 184.23 23.9858 184.23ZM27.802 186.182H27.09L28.018 184.206L26.37 180.83H27.106L28.37 183.542L29.562 180.83H30.258L27.802 186.182ZM31.5575 180.83V181.374C31.7735 180.974 32.2375 180.718 32.7335 180.718C33.2615 180.718 33.7175 180.998 33.9095 181.502C34.1815 180.958 34.6615 180.718 35.2055 180.718C35.9015 180.718 36.5255 181.198 36.5255 182.158V184.662H35.8855V182.23C35.8855 181.702 35.6055 181.294 35.0055 181.294C34.4375 181.294 34.0535 181.758 34.0535 182.334V184.662H33.4135V182.23C33.4135 181.702 33.1335 181.294 32.5255 181.294C31.9495 181.294 31.5735 181.742 31.5735 182.342V184.662H30.9335V180.83H31.5575ZM38.0506 182.374H40.3386C40.3226 181.766 39.9306 181.286 39.2026 181.286C38.5386 181.286 38.0906 181.806 38.0506 182.374ZM40.4266 183.374L40.9786 183.574C40.7626 184.238 40.1626 184.774 39.2746 184.774C38.2506 184.774 37.3786 184.022 37.3786 182.734C37.3786 181.526 38.2266 180.718 39.1946 180.718C40.3546 180.718 41.0026 181.526 41.0026 182.694C41.0026 182.774 40.9946 182.862 40.9866 182.918H38.0346V182.95C38.0346 183.678 38.5866 184.198 39.2746 184.198C39.9226 184.198 40.2746 183.83 40.4266 183.374ZM42.5307 182.406V184.662H41.8907V180.83H42.5147V181.406C42.7627 180.958 43.2107 180.718 43.7147 180.718C44.6347 180.718 45.0827 181.374 45.0827 182.206V184.662H44.4427V182.302C44.4427 181.742 44.1867 181.294 43.4907 181.294C42.8747 181.294 42.5307 181.806 42.5307 182.406ZM47.0903 179.614V180.83H47.9943V181.406H47.0903V183.526C47.0903 183.926 47.2663 184.126 47.6743 184.126C47.7863 184.126 47.9303 184.102 47.9943 184.086V184.63C47.9223 184.654 47.7383 184.702 47.4903 184.702C46.8583 184.702 46.4503 184.31 46.4503 183.614V181.406H45.6823V180.83H45.9303C46.3223 180.83 46.4903 180.606 46.4903 180.246V179.614H47.0903ZM18.0905 191.662H14.6665V185.99H15.3385V191.046H18.0905V191.662ZM20.3247 187.718C21.4287 187.718 22.2447 188.566 22.2447 189.742C22.2447 190.926 21.4287 191.774 20.3247 191.774C19.2207 191.774 18.4047 190.926 18.4047 189.742C18.4047 188.566 19.2207 187.718 20.3247 187.718ZM20.3247 188.294C19.6367 188.294 19.0447 188.814 19.0447 189.742C19.0447 190.678 19.6367 191.198 20.3247 191.198C21.0127 191.198 21.6047 190.678 21.6047 189.742C21.6047 188.814 21.0127 188.294 20.3247 188.294ZM23.7752 191.662H23.1512V185.878H23.7912V188.454C23.9672 188.094 24.4152 187.718 25.1032 187.718C26.2392 187.718 26.8472 188.622 26.8472 189.742C26.8472 190.886 26.1992 191.774 25.0872 191.774C24.4472 191.774 23.9992 191.446 23.7752 191.03V191.662ZM24.9912 191.198C25.7272 191.198 26.2072 190.59 26.2072 189.742C26.2072 188.894 25.7352 188.294 24.9912 188.294C24.2472 188.294 23.7752 188.894 23.7752 189.742C23.7752 190.59 24.2552 191.198 24.9912 191.198ZM28.3827 191.662H27.7587V185.878H28.3987V188.454C28.5747 188.094 29.0227 187.718 29.7107 187.718C30.8467 187.718 31.4547 188.622 31.4547 189.742C31.4547 190.886 30.8067 191.774 29.6947 191.774C29.0547 191.774 28.6067 191.446 28.3827 191.03V191.662ZM29.5987 191.198C30.3347 191.198 30.8147 190.59 30.8147 189.742C30.8147 188.894 30.3427 188.294 29.5987 188.294C28.8547 188.294 28.3827 188.894 28.3827 189.742C28.3827 190.59 28.8627 191.198 29.5987 191.198ZM33.1938 193.182H32.4818L33.4098 191.206L31.7618 187.83H32.4978L33.7618 190.542L34.9538 187.83H35.6498L33.1938 193.182ZM44.2972 191.662H43.6252V187.046L41.5692 191.662H40.9532L38.9132 187.046V191.662H38.2412V185.99H39.1612L41.2652 190.766L43.3852 185.99H44.2972V191.662ZM46.4582 191.662H45.7862V185.99H49.1942V186.606H46.4582V188.598H48.9462V189.214H46.4582V191.662ZM53.6765 191.662H50.2765V185.99H53.6765V186.606H50.9485V188.518H53.4285V189.134H50.9485V191.046H53.6765V191.662Z" fill="white"/>
<rect x="26.0972" y="128" width="96" height="30" rx="6" fill="#37B26C"/>
<g clip-path="url(#clip2_2148_13478)">
<path d="M43.2994 147.952C40.6667 149.865 38.245 149.503 36.361 148.828C34.4771 148.154 33.2132 146.751 33.5068 145.932C33.8004 145.112 35.3654 145.11 37.2493 145.785C39.4948 146.673 41.1106 148.888 43.2994 147.952Z" fill="#3A27CC"/>
<path d="M34.7949 148.021C37.4276 149.933 39.8493 149.572 41.7332 148.897C43.6171 148.222 44.881 146.82 44.5875 146C44.2939 145.181 42.7288 145.178 40.8449 145.853C38.5994 146.741 36.9836 148.957 34.7949 148.021Z" fill="#7140FF"/>
<path fill-rule="evenodd" clip-rule="evenodd" d="M43.5886 147.865C43.4945 147.891 43.3979 147.921 43.2989 147.956C41.8328 148.583 40.6238 147.796 39.3103 146.941C39.2403 146.895 39.1701 146.85 39.0995 146.804C39.6499 146.45 40.2231 146.102 40.8445 145.857C42.7284 145.182 44.2934 145.184 44.587 146.004C44.7669 146.506 44.3622 147.227 43.5886 147.865ZM35.0469 148.201C34.9745 148.149 34.9038 148.095 34.8351 148.041C34.8216 148.036 34.808 148.03 34.7944 148.024C34.8788 148.086 34.9629 148.144 35.0469 148.201Z" fill="#8155FF"/>
<path d="M41.7727 135.74C44.772 137.003 45.7162 139.262 46.1141 141.223C46.5121 143.184 45.9665 144.991 45.1132 145.164C44.26 145.338 43.4479 144 43.05 142.038C42.6475 139.657 43.7064 137.128 41.7727 135.74Z" fill="#3A27CC"/>
<path d="M46.2342 142.981C46.5078 139.738 44.9448 137.853 43.3923 136.591C41.8397 135.328 39.9857 134.973 39.4364 135.648C38.887 136.324 39.6953 137.664 41.2478 138.927C43.1701 140.388 45.9018 140.624 46.2342 142.981Z" fill="#7140FF"/>
<path fill-rule="evenodd" clip-rule="evenodd" d="M41.5488 135.538C41.6196 135.605 41.6955 135.672 41.7767 135.738C43.072 136.668 43.0245 138.11 42.973 139.676C42.9702 139.76 42.9674 139.844 42.9649 139.928C42.3769 139.64 41.7828 139.329 41.2507 138.925C39.6982 137.662 38.89 136.322 39.4393 135.647C39.7759 135.233 40.6022 135.206 41.5488 135.538ZM46.2574 142.68C46.2501 142.767 46.2412 142.852 46.2308 142.937C46.233 142.951 46.2351 142.965 46.2371 142.979C46.2456 142.878 46.2524 142.779 46.2574 142.68Z" fill="#8155FF"/>
<path d="M32.0218 143.179C31.6206 139.95 33.1081 138.005 34.6097 136.682C36.1113 135.359 37.9499 134.931 38.5254 135.584C39.101 136.238 38.3462 137.609 36.8446 138.931C34.9813 140.468 32.2611 140.811 32.0218 143.179Z" fill="#3A27CC"/>
<path d="M36.0739 135.702C33.1267 137.081 32.2722 139.376 31.9519 141.351C31.6316 143.327 32.2479 145.111 33.1073 145.25C33.9668 145.39 34.7255 144.021 35.0458 142.046C35.3541 139.651 34.1964 137.165 36.0739 135.702Z" fill="#7140FF"/>
<path fill-rule="evenodd" clip-rule="evenodd" d="M31.9584 143.475C31.9813 143.38 32.0016 143.28 32.0187 143.177C32.179 141.59 33.4525 140.913 34.8359 140.176C34.9096 140.137 34.9836 140.098 35.0578 140.058C35.1016 140.711 35.1285 141.381 35.0432 142.044C34.7229 144.019 33.9642 145.388 33.1047 145.248C32.5783 145.163 32.143 144.46 31.9584 143.475ZM35.7934 135.836C35.8746 135.798 35.9558 135.761 36.0366 135.727C36.0481 135.718 36.0596 135.709 36.0713 135.7C35.9765 135.744 35.8839 135.789 35.7934 135.836Z" fill="#8155FF"/>
<path d="M43.1954 150.993H40.7985C40.3791 150.993 40.111 150.966 39.9116 150.904C39.451 150.746 39.1279 150.422 38.9698 149.955C38.901 149.762 38.8735 149.522 38.8735 149.192C38.8735 147.702 38.8735 146.213 38.8735 144.723C38.8735 144.441 38.9148 144.215 38.9904 144.022C39.1554 143.616 39.451 143.321 39.8566 143.163C40.0422 143.087 40.2691 143.053 40.5579 143.053H41.7792C41.6486 142.516 41.7654 141.966 42.0954 141.54C42.4323 141.107 42.9617 140.853 43.5048 140.853C43.9035 140.853 44.2885 140.99 44.6116 141.245C45.1547 141.678 45.3884 142.393 45.2234 143.053H45.6291C46.014 143.053 46.2547 143.087 46.4403 143.149C46.8871 143.3 47.2034 143.616 47.3615 144.056C47.4371 144.263 47.4715 144.538 47.4715 144.95C47.4715 146.421 47.4715 147.893 47.4715 149.364C47.4715 150.106 47.1071 150.663 46.4678 150.89C46.2615 150.966 45.9797 151 45.5878 151H43.2023L43.1954 150.993Z" fill="white"/>
<path d="M44.1718 143.694C44.1165 143.802 44.2199 143.959 44.311 143.96C44.6897 143.965 45.0686 143.965 45.4476 143.961C45.7091 143.959 45.8978 143.978 46.0139 144.018C46.2551 144.102 46.4188 144.262 46.5049 144.497C46.5487 144.618 46.5705 144.831 46.5702 145.137C46.5678 146.563 46.5681 147.989 46.5711 149.415C46.572 149.855 46.3947 150.139 46.0393 150.265C45.9127 150.31 45.6988 150.332 45.3978 150.332C43.9279 150.328 42.4582 150.328 40.9887 150.331C40.6644 150.332 40.4445 150.313 40.329 150.274C40.0836 150.191 39.9172 150.023 39.8298 149.77C39.7918 149.659 39.7738 149.489 39.7759 149.258C39.7777 149.036 39.7774 148.814 39.775 148.592C39.7723 148.331 39.8412 148.131 40.1123 148.087C40.183 148.076 40.2808 148.09 40.4056 148.132C40.8164 148.267 41.2208 148.23 41.54 147.949C42.1647 147.398 41.9417 146.311 41.0988 146.113C40.801 146.042 40.5974 146.11 40.3127 146.195C40.105 146.257 39.9078 146.201 39.818 146.001C39.7893 145.938 39.775 145.832 39.775 145.684C39.775 145.429 39.7757 145.175 39.7772 144.921C39.7782 144.734 39.7993 144.59 39.8407 144.488C39.9305 144.266 40.0861 144.111 40.3077 144.024C40.4086 143.983 40.5527 143.963 40.7398 143.963C41.2684 143.963 41.7966 143.963 42.3243 143.962C42.5088 143.962 42.6693 143.862 42.5773 143.66C42.5034 143.497 42.4091 143.314 42.3692 143.154C42.1185 142.159 43.2533 141.432 44.0458 142.065C44.3881 142.338 44.5282 142.795 44.3817 143.212C44.3279 143.365 44.258 143.525 44.1718 143.694Z" fill="#2C00AD"/>
</g>
<path d="M55.5517 143.096H57.9517C59.4077 143.096 60.3037 142.248 60.3037 141C60.3037 139.704 59.4077 138.856 57.9517 138.856H55.5517V143.096ZM58.1597 144.296H55.5517V149H54.2077V137.656H58.1597C60.2557 137.656 61.6477 139.096 61.6477 140.984C61.6477 142.888 60.2557 144.296 58.1597 144.296ZM62.3399 146.968C62.3399 145.624 63.2839 144.872 64.6279 144.68L66.6919 144.376C67.2519 144.296 67.3799 144.056 67.3799 143.72C67.3799 142.856 66.8039 142.2 65.6039 142.2C64.4839 142.2 63.8119 142.872 63.6999 143.848L62.4839 143.56C62.6439 142.104 63.9239 141.112 65.5719 141.112C67.7479 141.112 68.6599 142.36 68.6599 143.848V147.72C68.6599 148.36 68.7079 148.76 68.7559 149H67.5079C67.4759 148.824 67.4119 148.44 67.4119 147.848C67.0759 148.472 66.2439 149.224 64.8679 149.224C63.2839 149.224 62.3399 148.136 62.3399 146.968ZM65.0279 148.136C66.3559 148.136 67.3799 147.4 67.3799 145.768V145.256L64.8839 145.624C64.1479 145.736 63.6199 146.152 63.6199 146.904C63.6199 147.528 64.1479 148.136 65.0279 148.136ZM72.6603 152.04H71.2363L73.0923 148.088L69.7963 141.336H71.2683L73.7963 146.76L76.1803 141.336H77.5723L72.6603 152.04ZM80.1713 141.336V142.424C80.6033 141.624 81.5313 141.112 82.5233 141.112C83.5793 141.112 84.4913 141.672 84.8753 142.68C85.4193 141.592 86.3793 141.112 87.4673 141.112C88.8593 141.112 90.1073 142.072 90.1073 143.992V149H88.8273V144.136C88.8273 143.08 88.2673 142.264 87.0673 142.264C85.9313 142.264 85.1633 143.192 85.1633 144.344V149H83.8833V144.136C83.8833 143.08 83.3233 142.264 82.1073 142.264C80.9553 142.264 80.2033 143.16 80.2033 144.36V149H78.9233V141.336H80.1713ZM93.1574 144.424H97.7334C97.7014 143.208 96.9174 142.248 95.4614 142.248C94.1334 142.248 93.2374 143.288 93.1574 144.424ZM97.9094 146.424L99.0134 146.824C98.5814 148.152 97.3814 149.224 95.6054 149.224C93.5574 149.224 91.8134 147.72 91.8134 145.144C91.8134 142.728 93.5094 141.112 95.4454 141.112C97.7654 141.112 99.0614 142.728 99.0614 145.064C99.0614 145.224 99.0454 145.4 99.0294 145.512H93.1254V145.576C93.1254 147.032 94.2294 148.072 95.6054 148.072C96.9014 148.072 97.6054 147.336 97.9094 146.424ZM102.118 144.488V149H100.838V141.336H102.086V142.488C102.582 141.592 103.478 141.112 104.486 141.112C106.326 141.112 107.222 142.424 107.222 144.088V149H105.942V144.28C105.942 143.16 105.43 142.264 104.038 142.264C102.806 142.264 102.118 143.288 102.118 144.488ZM111.237 138.904V141.336H113.045V142.488H111.237V146.728C111.237 147.528 111.589 147.928 112.405 147.928C112.629 147.928 112.917 147.88 113.045 147.848V148.936C112.901 148.984 112.533 149.08 112.037 149.08C110.773 149.08 109.957 148.296 109.957 146.904V142.488H108.421V141.336H108.917C109.701 141.336 110.037 140.888 110.037 140.168V138.904H111.237Z" fill="white"/>
<path d="M47.7861 43.9998C48.6774 78.1761 68.62 75.8799 83.1773 76.7681" stroke="#94A3B8" stroke-width="2"/>
<path d="M129.558 101.753C129.558 117.008 186.956 114.879 186.956 127.981" stroke="#94A3B8" stroke-width="2"/>
<path d="M129.557 101.753C129.557 117.008 76.0451 109.421 76.0451 127.981" stroke="#94A3B8" stroke-width="2"/>
<path d="M129.558 93.679L136.018 101.66H123.097L129.558 93.679Z" fill="#93A7BE"/>
<rect x="193.981" y="177" width="60" height="18" rx="6" fill="#EE9511"/>
<g clip-path="url(#clip3_2148_13478)">
<path fill-rule="evenodd" clip-rule="evenodd" d="M208.032 183.516C207.882 183.458 207.73 183.404 207.577 183.355C207.603 183.239 207.626 183.123 207.648 183.007C207.992 181.129 207.767 179.616 206.998 179.118C206.262 178.641 205.057 179.139 203.84 180.329C203.72 180.447 203.603 180.568 203.488 180.692C203.412 180.609 203.333 180.528 203.254 180.449C201.979 179.176 200.701 178.64 199.933 179.139C199.197 179.618 198.979 181.04 199.289 182.819C199.32 182.996 199.354 183.171 199.393 183.345C199.212 183.403 199.038 183.464 198.87 183.53C197.375 184.116 196.42 185.034 196.42 185.987C196.42 186.97 197.445 187.957 199.003 188.555C199.129 188.603 199.256 188.648 199.385 188.689C199.343 188.877 199.306 189.066 199.274 189.256C198.978 191.005 199.209 192.393 199.943 192.869C200.701 193.36 201.974 192.855 203.213 191.638C203.311 191.541 203.409 191.439 203.508 191.332C203.632 191.467 203.759 191.597 203.889 191.724C205.09 192.885 206.275 193.353 207.009 192.876C207.766 192.383 208.012 190.892 207.693 189.077C207.668 188.939 207.64 188.797 207.608 188.653C207.697 188.623 207.785 188.593 207.87 188.561C209.489 187.958 210.543 186.983 210.543 185.987C210.543 185.031 209.557 184.106 208.032 183.516ZM207.681 187.917C207.604 187.946 207.524 187.974 207.444 188.001C207.265 187.365 207.024 186.688 206.728 185.99C207.01 185.308 207.242 184.64 207.416 184.008C207.56 184.055 207.7 184.105 207.836 184.157C209.142 184.663 209.94 185.41 209.94 185.986C209.94 186.6 209.079 187.397 207.681 187.917H207.681ZM207.101 189.209C207.242 190.011 207.262 190.737 207.169 191.304C207.084 191.814 206.915 192.153 206.706 192.289C206.261 192.579 205.309 192.203 204.283 191.21C204.165 191.096 204.047 190.975 203.928 190.846C204.326 190.357 204.723 189.788 205.112 189.156C205.794 189.088 206.439 188.977 207.024 188.825C207.053 188.956 207.079 189.084 207.101 189.209ZM201.235 192.239C200.8 192.412 200.454 192.417 200.245 192.281C199.799 191.993 199.614 190.878 199.867 189.382C199.897 189.206 199.931 189.03 199.97 188.855C200.548 188.999 201.188 189.103 201.873 189.165C202.263 189.783 202.673 190.351 203.085 190.849C202.997 190.944 202.908 191.037 202.816 191.127C202.268 191.665 201.719 192.047 201.235 192.239H201.235ZM199.198 187.914C198.509 187.649 197.941 187.305 197.551 186.93C197.201 186.593 197.024 186.258 197.024 185.986C197.024 185.409 197.79 184.671 199.069 184.17C199.23 184.108 199.392 184.05 199.555 183.998C199.732 184.644 199.964 185.32 200.243 186.003C199.96 186.696 199.725 187.383 199.547 188.036C199.429 187.999 199.313 187.958 199.198 187.914ZM199.881 182.689C199.615 181.165 199.792 180.015 200.235 179.726C200.708 179.419 201.752 179.857 202.854 180.956C202.924 181.026 202.995 181.1 203.065 181.176C202.655 181.671 202.25 182.235 201.862 182.849C201.198 182.918 200.562 183.029 199.978 183.178C199.942 183.016 199.91 182.853 199.881 182.689V182.689ZM205.973 184.38C205.835 184.112 205.691 183.847 205.543 183.586C205.994 183.65 206.425 183.735 206.831 183.839C206.709 184.277 206.557 184.736 206.379 185.206C206.248 184.927 206.113 184.652 205.973 184.38ZM203.488 181.66C203.767 181.999 204.045 182.377 204.319 182.788C203.763 182.758 203.206 182.758 202.65 182.787C202.925 182.381 203.206 182.003 203.488 181.66ZM200.988 184.384C200.85 184.655 200.717 184.928 200.59 185.205C200.414 184.737 200.264 184.277 200.141 183.832C200.544 183.73 200.973 183.648 201.421 183.585C201.271 183.848 201.127 184.114 200.988 184.384ZM201.434 188.437C200.972 188.379 200.535 188.3 200.133 188.201C200.257 187.749 200.411 187.278 200.59 186.8C200.718 187.077 200.851 187.351 200.991 187.621C201.133 187.897 201.28 188.169 201.434 188.437ZM203.505 190.361C203.219 190.014 202.934 189.63 202.655 189.218C202.926 189.23 203.201 189.236 203.482 189.236C203.769 189.236 204.054 189.228 204.334 189.214C204.059 189.634 203.781 190.019 203.505 190.361ZM206.385 186.776C206.573 187.259 206.732 187.727 206.859 188.172C206.449 188.277 206.007 188.362 205.541 188.424C205.691 188.158 205.835 187.889 205.975 187.617C206.117 187.34 206.254 187.059 206.385 186.776ZM205.452 187.278C205.238 187.696 205.012 188.105 204.775 188.507C204.356 188.54 203.923 188.558 203.482 188.558C203.042 188.558 202.615 188.542 202.203 188.512C201.959 188.112 201.729 187.702 201.513 187.282C201.298 186.864 201.097 186.438 200.91 186.003C201.096 185.568 201.297 185.141 201.511 184.723V184.723C201.725 184.305 201.954 183.897 202.196 183.498C202.616 183.462 203.046 183.444 203.482 183.444C203.919 183.444 204.35 183.462 204.77 183.498C205.01 183.896 205.236 184.304 205.45 184.72C205.666 185.137 205.869 185.561 206.059 185.993C205.871 186.429 205.668 186.858 205.452 187.278H205.452ZM206.697 179.706C207.17 180.012 207.354 181.249 207.057 182.87C207.037 182.975 207.016 183.08 206.993 183.185C206.407 183.033 205.771 182.92 205.105 182.85C204.717 182.229 204.315 181.664 203.911 181.175C204.017 181.061 204.125 180.949 204.236 180.841C205.278 179.821 206.253 179.418 206.697 179.706ZM204.837 185.882C204.837 185.099 204.273 184.465 203.576 184.465C202.88 184.465 202.315 185.099 202.315 185.882C202.315 186.665 202.88 187.3 203.576 187.3C204.273 187.3 204.837 186.665 204.837 185.882Z" fill="#00D8FF"/>
</g>
<path d="M214.945 188.612C213.793 188.612 212.937 187.9 212.937 186.58V182.828H213.609V186.564C213.609 187.476 214.089 187.996 214.945 187.996C215.801 187.996 216.281 187.476 216.281 186.564V182.828H216.953V186.58C216.953 187.9 216.097 188.612 214.945 188.612ZM217.801 187.492L218.377 187.292C218.433 187.732 218.761 188.068 219.337 188.068C219.793 188.068 220.081 187.812 220.081 187.484C220.081 187.196 219.849 187.004 219.497 186.924L218.873 186.78C218.289 186.644 217.921 186.268 217.921 185.716C217.921 185.076 218.529 184.556 219.257 184.556C220.249 184.556 220.593 185.188 220.681 185.58L220.113 185.788C220.065 185.524 219.865 185.1 219.257 185.1C218.857 185.1 218.545 185.356 218.545 185.676C218.545 185.948 218.713 186.116 219.049 186.196L219.673 186.34C220.345 186.492 220.713 186.884 220.713 187.452C220.713 188.004 220.241 188.612 219.329 188.612C218.321 188.612 217.865 187.972 217.801 187.492ZM222.027 186.212H224.315C224.299 185.604 223.907 185.124 223.179 185.124C222.515 185.124 222.067 185.644 222.027 186.212ZM224.403 187.212L224.955 187.412C224.739 188.076 224.139 188.612 223.251 188.612C222.227 188.612 221.355 187.86 221.355 186.572C221.355 185.364 222.203 184.556 223.171 184.556C224.331 184.556 224.979 185.364 224.979 186.532C224.979 186.612 224.971 186.7 224.963 186.756H222.011V186.788C222.011 187.516 222.563 188.036 223.251 188.036C223.899 188.036 224.251 187.668 224.403 187.212ZM227.923 184.644V185.324C227.819 185.292 227.699 185.284 227.587 185.284C226.947 185.284 226.507 185.652 226.507 186.516V188.5H225.867V184.668H226.491V185.356C226.739 184.796 227.227 184.612 227.651 184.612C227.755 184.612 227.867 184.628 227.923 184.644ZM231.211 185.548H232.411C233.139 185.548 233.587 185.124 233.587 184.5C233.587 183.852 233.139 183.428 232.411 183.428H231.211V185.548ZM232.515 186.148H231.211V188.5H230.539V182.828H232.515C233.563 182.828 234.259 183.548 234.259 184.492C234.259 185.444 233.563 186.148 232.515 186.148ZM237.027 184.644V185.324C236.923 185.292 236.803 185.284 236.691 185.284C236.051 185.284 235.611 185.652 235.611 186.516V188.5H234.971V184.668H235.595V185.356C235.843 184.796 236.331 184.612 236.755 184.612C236.859 184.612 236.971 184.628 237.027 184.644ZM239.273 184.556C240.377 184.556 241.193 185.404 241.193 186.58C241.193 187.764 240.377 188.612 239.273 188.612C238.169 188.612 237.353 187.764 237.353 186.58C237.353 185.404 238.169 184.556 239.273 184.556ZM239.273 185.132C238.585 185.132 237.993 185.652 237.993 186.58C237.993 187.516 238.585 188.036 239.273 188.036C239.961 188.036 240.553 187.516 240.553 186.58C240.553 185.652 239.961 185.132 239.273 185.132ZM245.469 188.5H244.829V185.244H242.973V188.5H242.333V185.244H241.581V184.668H242.333V183.956C242.333 183.116 242.861 182.676 243.541 182.676C243.773 182.676 243.925 182.724 243.981 182.756V183.308C243.925 183.284 243.821 183.252 243.637 183.252C243.325 183.252 242.973 183.42 242.973 183.972V184.668H245.469V188.5ZM244.669 183.156C244.669 182.892 244.885 182.676 245.149 182.676C245.413 182.676 245.629 182.892 245.629 183.156C245.629 183.42 245.413 183.636 245.149 183.636C244.885 183.636 244.669 183.42 244.669 183.156ZM247.277 188.5H246.637V182.716H247.277V188.5ZM248.856 186.212H251.144C251.128 185.604 250.736 185.124 250.008 185.124C249.344 185.124 248.896 185.644 248.856 186.212ZM251.232 187.212L251.784 187.412C251.568 188.076 250.968 188.612 250.08 188.612C249.056 188.612 248.184 187.86 248.184 186.572C248.184 185.364 249.032 184.556 250 184.556C251.16 184.556 251.808 185.364 251.808 186.532C251.808 186.612 251.8 186.7 251.792 186.756H248.84V186.788C248.84 187.516 249.392 188.036 250.08 188.036C250.728 188.036 251.08 187.668 251.232 187.212Z" fill="white"/>
<rect x="134.983" y="177" width="53" height="18" rx="6" fill="#EE9511"/>
<g clip-path="url(#clip4_2148_13478)">
<path fill-rule="evenodd" clip-rule="evenodd" d="M150.534 183.516C150.384 183.458 150.232 183.404 150.079 183.355C150.105 183.239 150.128 183.123 150.149 183.007C150.494 181.129 150.269 179.616 149.5 179.118C148.764 178.641 147.559 179.139 146.342 180.329C146.222 180.447 146.105 180.568 145.99 180.692C145.913 180.609 145.835 180.528 145.756 180.449C144.481 179.176 143.202 178.64 142.435 179.139C141.699 179.618 141.481 181.04 141.791 182.819C141.822 182.996 141.856 183.171 141.895 183.345C141.714 183.403 141.54 183.464 141.372 183.53C139.877 184.116 138.922 185.034 138.922 185.987C138.922 186.97 139.947 187.957 141.505 188.555C141.631 188.603 141.758 188.648 141.887 188.689C141.845 188.877 141.808 189.066 141.776 189.256C141.48 191.005 141.711 192.393 142.445 192.869C143.203 193.36 144.476 192.855 145.715 191.638C145.813 191.541 145.911 191.439 146.01 191.332C146.134 191.467 146.261 191.597 146.391 191.724C147.592 192.885 148.777 193.353 149.51 192.876C150.268 192.383 150.514 190.892 150.194 189.077C150.17 188.939 150.142 188.797 150.11 188.653C150.199 188.623 150.287 188.593 150.372 188.561C151.991 187.958 153.045 186.983 153.045 185.987C153.045 185.031 152.059 184.106 150.534 183.516ZM150.183 187.917C150.105 187.946 150.026 187.974 149.945 188.001C149.767 187.365 149.525 186.688 149.23 185.99C149.512 185.308 149.744 184.64 149.918 184.008C150.062 184.055 150.202 184.105 150.337 184.157C151.644 184.663 152.441 185.41 152.441 185.986C152.441 186.6 151.581 187.397 150.183 187.917H150.183ZM149.603 189.209C149.744 190.011 149.764 190.737 149.671 191.304C149.586 191.814 149.417 192.153 149.208 192.289C148.763 192.579 147.811 192.203 146.785 191.21C146.667 191.096 146.549 190.975 146.43 190.846C146.828 190.357 147.225 189.788 147.614 189.156C148.296 189.088 148.941 188.977 149.526 188.825C149.555 188.956 149.581 189.084 149.603 189.209ZM143.737 192.239C143.302 192.412 142.956 192.417 142.747 192.281C142.301 191.993 142.116 190.878 142.368 189.382C142.398 189.206 142.433 189.03 142.472 188.855C143.05 188.999 143.69 189.103 144.375 189.165C144.765 189.783 145.175 190.351 145.587 190.849C145.499 190.944 145.41 191.037 145.318 191.127C144.77 191.665 144.221 192.047 143.737 192.239H143.737ZM141.7 187.914C141.011 187.649 140.443 187.305 140.053 186.93C139.703 186.593 139.526 186.258 139.526 185.986C139.526 185.409 140.292 184.671 141.571 184.17C141.732 184.108 141.894 184.05 142.057 183.998C142.234 184.644 142.466 185.32 142.745 186.003C142.462 186.696 142.227 187.383 142.049 188.036C141.931 187.999 141.815 187.958 141.7 187.914ZM142.383 182.689C142.117 181.165 142.294 180.015 142.737 179.726C143.21 179.419 144.254 179.857 145.355 180.956C145.426 181.026 145.497 181.1 145.567 181.176C145.157 181.671 144.752 182.235 144.364 182.849C143.7 182.918 143.064 183.029 142.48 183.178C142.444 183.016 142.411 182.853 142.383 182.689V182.689ZM148.475 184.38C148.336 184.112 148.193 183.847 148.045 183.586C148.496 183.65 148.927 183.735 149.333 183.839C149.211 184.277 149.059 184.736 148.881 185.206C148.75 184.927 148.615 184.652 148.475 184.38ZM145.99 181.66C146.269 181.999 146.547 182.377 146.821 182.788C146.265 182.758 145.708 182.758 145.152 182.787C145.427 182.381 145.708 182.003 145.99 181.66ZM143.49 184.384C143.352 184.655 143.219 184.928 143.092 185.205C142.916 184.737 142.766 184.277 142.643 183.832C143.046 183.73 143.475 183.648 143.923 183.585C143.773 183.848 143.629 184.114 143.49 184.384ZM143.936 188.437C143.473 188.379 143.037 188.3 142.634 188.201C142.759 187.749 142.913 187.278 143.092 186.8C143.22 187.077 143.353 187.351 143.493 187.621C143.635 187.897 143.782 188.169 143.936 188.437ZM146.007 190.361C145.721 190.014 145.436 189.63 145.157 189.218C145.428 189.23 145.703 189.236 145.984 189.236C146.271 189.236 146.556 189.228 146.836 189.214C146.561 189.634 146.283 190.019 146.007 190.361ZM148.887 186.776C149.075 187.259 149.234 187.727 149.361 188.172C148.951 188.277 148.509 188.362 148.043 188.424C148.193 188.158 148.337 187.889 148.477 187.617C148.619 187.34 148.756 187.059 148.887 186.776ZM147.954 187.278C147.74 187.696 147.514 188.105 147.277 188.507C146.858 188.54 146.425 188.558 145.984 188.558C145.544 188.558 145.117 188.542 144.705 188.512C144.461 188.112 144.231 187.702 144.015 187.282C143.8 186.864 143.599 186.438 143.412 186.003C143.598 185.568 143.798 185.141 144.013 184.723V184.723C144.227 184.305 144.456 183.897 144.698 183.498C145.118 183.462 145.548 183.444 145.984 183.444C146.421 183.444 146.852 183.462 147.272 183.498C147.511 183.896 147.738 184.304 147.952 184.72C148.168 185.137 148.371 185.561 148.561 185.993C148.373 186.429 148.17 186.858 147.954 187.278H147.954ZM149.199 179.706C149.672 180.012 149.856 181.249 149.559 182.87C149.539 182.975 149.518 183.08 149.495 183.185C148.909 183.033 148.273 182.92 147.607 182.85C147.219 182.229 146.817 181.664 146.413 181.175C146.519 181.061 146.627 180.949 146.738 180.841C147.78 179.821 148.755 179.418 149.199 179.706ZM147.339 185.882C147.339 185.099 146.774 184.465 146.078 184.465C145.382 184.465 144.817 185.099 144.817 185.882C144.817 186.665 145.382 187.3 146.078 187.3C146.774 187.3 147.339 186.665 147.339 185.882Z" fill="#00D8FF"/>
</g>
<path d="M157.839 188.612C156.687 188.612 155.831 187.9 155.831 186.58V182.828H156.503V186.564C156.503 187.476 156.983 187.996 157.839 187.996C158.695 187.996 159.175 187.476 159.175 186.564V182.828H159.847V186.58C159.847 187.9 158.991 188.612 157.839 188.612ZM160.695 187.492L161.271 187.292C161.327 187.732 161.655 188.068 162.231 188.068C162.687 188.068 162.975 187.812 162.975 187.484C162.975 187.196 162.743 187.004 162.391 186.924L161.767 186.78C161.183 186.644 160.815 186.268 160.815 185.716C160.815 185.076 161.423 184.556 162.151 184.556C163.143 184.556 163.487 185.188 163.575 185.58L163.007 185.788C162.959 185.524 162.759 185.1 162.151 185.1C161.751 185.1 161.439 185.356 161.439 185.676C161.439 185.948 161.607 186.116 161.943 186.196L162.567 186.34C163.239 186.492 163.607 186.884 163.607 187.452C163.607 188.004 163.135 188.612 162.223 188.612C161.215 188.612 160.759 187.972 160.695 187.492ZM164.921 186.212H167.209C167.193 185.604 166.801 185.124 166.073 185.124C165.409 185.124 164.961 185.644 164.921 186.212ZM167.297 187.212L167.849 187.412C167.633 188.076 167.033 188.612 166.145 188.612C165.121 188.612 164.249 187.86 164.249 186.572C164.249 185.364 165.097 184.556 166.065 184.556C167.225 184.556 167.873 185.364 167.873 186.532C167.873 186.612 167.865 186.7 167.857 186.756H164.905V186.788C164.905 187.516 165.457 188.036 166.145 188.036C166.793 188.036 167.145 187.668 167.297 187.212ZM170.817 184.644V185.324C170.713 185.292 170.593 185.284 170.481 185.284C169.841 185.284 169.401 185.652 169.401 186.516V188.5H168.761V184.668H169.385V185.356C169.633 184.796 170.121 184.612 170.545 184.612C170.649 184.612 170.761 184.628 170.817 184.644ZM173.433 182.828H175.201C176.281 182.828 176.913 183.46 176.913 184.356C176.913 184.964 176.561 185.412 176.057 185.588C176.697 185.748 177.089 186.324 177.089 186.964C177.089 187.86 176.385 188.5 175.345 188.5H173.433V182.828ZM174.105 185.348H175.201C175.825 185.348 176.241 184.948 176.241 184.388C176.241 183.796 175.825 183.42 175.113 183.42H174.105V185.348ZM174.105 187.908H175.265C175.953 187.908 176.417 187.524 176.417 186.924C176.417 186.332 176.009 185.924 175.321 185.924H174.105V187.908ZM177.788 187.484C177.788 186.812 178.26 186.436 178.932 186.34L179.964 186.188C180.244 186.148 180.308 186.028 180.308 185.86C180.308 185.428 180.02 185.1 179.42 185.1C178.86 185.1 178.524 185.436 178.468 185.924L177.86 185.78C177.94 185.052 178.58 184.556 179.404 184.556C180.492 184.556 180.948 185.18 180.948 185.924V187.86C180.948 188.18 180.972 188.38 180.996 188.5H180.372C180.356 188.412 180.324 188.22 180.324 187.924C180.156 188.236 179.74 188.612 179.052 188.612C178.26 188.612 177.788 188.068 177.788 187.484ZM179.132 188.068C179.796 188.068 180.308 187.7 180.308 186.884V186.628L179.06 186.812C178.692 186.868 178.428 187.076 178.428 187.452C178.428 187.764 178.692 188.068 179.132 188.068ZM184.129 184.644V185.324C184.025 185.292 183.905 185.284 183.793 185.284C183.153 185.284 182.713 185.652 182.713 186.516V188.5H182.073V184.668H182.697V185.356C182.945 184.796 183.433 184.612 183.857 184.612C183.961 184.612 184.073 184.628 184.129 184.644Z" fill="white"/>
<rect x="152.956" y="128" width="68" height="30" rx="6" fill="#EE9511"/>
<g clip-path="url(#clip5_2148_13478)">
<path d="M170.283 147.952C167.651 149.865 165.229 149.503 163.345 148.828C161.461 148.154 160.197 146.751 160.491 145.932C160.784 145.112 162.349 145.11 164.233 145.785C166.479 146.673 168.095 148.888 170.283 147.952Z" fill="#3A27CC"/>
<path d="M161.779 148.021C164.411 149.933 166.833 149.572 168.717 148.897C170.601 148.222 171.865 146.82 171.571 146C171.278 145.181 169.713 145.178 167.829 145.853C165.583 146.741 163.968 148.957 161.779 148.021Z" fill="#7140FF"/>
<path fill-rule="evenodd" clip-rule="evenodd" d="M170.572 147.865C170.478 147.891 170.382 147.921 170.283 147.956C168.817 148.583 167.608 147.796 166.294 146.941C166.224 146.895 166.154 146.85 166.083 146.804C166.634 146.45 167.207 146.102 167.828 145.857C169.712 145.182 171.277 145.184 171.571 146.004C171.751 146.506 171.346 147.227 170.572 147.865ZM162.031 148.201C161.958 148.149 161.888 148.095 161.819 148.041C161.805 148.036 161.792 148.03 161.778 148.024C161.863 148.086 161.947 148.144 162.031 148.201Z" fill="#8155FF"/>
<path d="M168.757 135.74C171.756 137.003 172.7 139.262 173.098 141.223C173.496 143.184 172.95 144.991 172.097 145.164C171.244 145.338 170.432 144 170.034 142.038C169.631 139.657 170.69 137.128 168.757 135.74Z" fill="#3A27CC"/>
<path d="M173.218 142.981C173.492 139.738 171.929 137.853 170.376 136.591C168.824 135.328 166.97 134.973 166.42 135.648C165.871 136.324 166.679 137.664 168.232 138.927C170.154 140.388 172.886 140.624 173.218 142.981Z" fill="#7140FF"/>
<path fill-rule="evenodd" clip-rule="evenodd" d="M168.533 135.538C168.604 135.605 168.679 135.672 168.761 135.738C170.056 136.668 170.008 138.11 169.957 139.676C169.954 139.76 169.951 139.844 169.949 139.928C169.361 139.64 168.767 139.329 168.235 138.925C166.682 137.662 165.874 136.322 166.423 135.647C166.76 135.233 167.586 135.206 168.533 135.538ZM173.241 142.68C173.234 142.767 173.225 142.852 173.215 142.937C173.217 142.951 173.219 142.965 173.221 142.979C173.23 142.878 173.236 142.779 173.241 142.68Z" fill="#8155FF"/>
<path d="M159.006 143.179C158.605 139.95 160.092 138.005 161.594 136.682C163.095 135.359 164.934 134.931 165.509 135.584C166.085 136.238 165.33 137.609 163.828 138.931C161.965 140.468 159.245 140.811 159.006 143.179Z" fill="#3A27CC"/>
<path d="M163.058 135.702C160.111 137.081 159.256 139.376 158.936 141.351C158.615 143.327 159.232 145.111 160.091 145.25C160.951 145.39 161.709 144.021 162.03 142.046C162.338 139.651 161.18 137.165 163.058 135.702Z" fill="#7140FF"/>
<path fill-rule="evenodd" clip-rule="evenodd" d="M158.942 143.475C158.965 143.38 158.985 143.28 159.003 143.177C159.163 141.59 160.436 140.913 161.82 140.176C161.893 140.137 161.967 140.098 162.042 140.058C162.085 140.711 162.112 141.381 162.027 142.044C161.707 144.019 160.948 145.388 160.089 145.248C159.562 145.163 159.127 144.46 158.942 143.475ZM162.777 135.836C162.858 135.798 162.94 135.761 163.02 135.727C163.032 135.718 163.044 135.709 163.055 135.7C162.96 135.744 162.868 135.789 162.777 135.836Z" fill="#8155FF"/>
<path d="M170.179 150.993H167.782C167.363 150.993 167.095 150.966 166.896 150.904C166.435 150.746 166.112 150.422 165.954 149.955C165.885 149.762 165.857 149.522 165.857 149.192C165.857 147.702 165.857 146.213 165.857 144.723C165.857 144.441 165.899 144.215 165.974 144.022C166.139 143.616 166.435 143.321 166.841 143.163C167.026 143.087 167.253 143.053 167.542 143.053H168.763C168.632 142.516 168.749 141.966 169.079 141.54C169.416 141.107 169.946 140.853 170.489 140.853C170.887 140.853 171.272 140.99 171.595 141.245C172.139 141.678 172.372 142.393 172.207 143.053H172.613C172.998 143.053 173.239 143.087 173.424 143.149C173.871 143.3 174.187 143.616 174.345 144.056C174.421 144.263 174.455 144.538 174.455 144.95C174.455 146.421 174.455 147.893 174.455 149.364C174.455 150.106 174.091 150.663 173.452 150.89C173.245 150.966 172.964 151 172.572 151H170.186L170.179 150.993Z" fill="white"/>
<path d="M171.156 143.694C171.1 143.802 171.204 143.959 171.295 143.96C171.674 143.965 172.053 143.965 172.432 143.961C172.693 143.959 172.882 143.978 172.998 144.018C173.239 144.102 173.403 144.262 173.489 144.497C173.533 144.618 173.554 144.831 173.554 145.137C173.552 146.563 173.552 147.989 173.555 149.415C173.556 149.855 173.379 150.139 173.023 150.265C172.897 150.31 172.683 150.332 172.382 150.332C170.912 150.328 169.442 150.328 167.973 150.331C167.648 150.332 167.428 150.313 167.313 150.274C167.067 150.191 166.901 150.023 166.814 149.77C166.776 149.659 166.758 149.489 166.76 149.258C166.762 149.036 166.761 148.814 166.759 148.592C166.756 148.331 166.825 148.131 167.096 148.087C167.167 148.076 167.265 148.09 167.39 148.132C167.8 148.267 168.205 148.23 168.524 147.949C169.149 147.398 168.926 146.311 168.083 146.113C167.785 146.042 167.581 146.11 167.297 146.195C167.089 146.257 166.892 146.201 166.802 146.001C166.773 145.938 166.759 145.832 166.759 145.684C166.759 145.429 166.76 145.175 166.761 144.921C166.762 144.734 166.783 144.59 166.825 144.488C166.914 144.266 167.07 144.111 167.292 144.024C167.393 143.983 167.537 143.963 167.724 143.963C168.252 143.963 168.78 143.963 169.308 143.962C169.493 143.962 169.653 143.862 169.561 143.66C169.487 143.497 169.393 143.314 169.353 143.154C169.102 142.159 170.237 141.432 171.03 142.065C171.372 142.338 171.512 142.795 171.366 143.212C171.312 143.365 171.242 143.525 171.156 143.694Z" fill="#2C00AD"/>
</g>
<path d="M182.068 149.224C179.764 149.224 178.052 147.8 178.052 145.16V137.656H179.396V145.128C179.396 146.952 180.356 147.992 182.068 147.992C183.78 147.992 184.74 146.952 184.74 145.128V137.656H186.084V145.16C186.084 147.8 184.372 149.224 182.068 149.224ZM187.779 146.984L188.931 146.584C189.043 147.464 189.699 148.136 190.851 148.136C191.763 148.136 192.339 147.624 192.339 146.968C192.339 146.392 191.875 146.008 191.171 145.848L189.923 145.56C188.755 145.288 188.019 144.536 188.019 143.432C188.019 142.152 189.235 141.112 190.691 141.112C192.675 141.112 193.363 142.376 193.539 143.16L192.403 143.576C192.307 143.048 191.907 142.2 190.691 142.2C189.891 142.2 189.267 142.712 189.267 143.352C189.267 143.896 189.603 144.232 190.275 144.392L191.523 144.68C192.867 144.984 193.603 145.768 193.603 146.904C193.603 148.008 192.659 149.224 190.835 149.224C188.819 149.224 187.907 147.944 187.779 146.984ZM196.231 144.424H200.807C200.775 143.208 199.991 142.248 198.535 142.248C197.207 142.248 196.311 143.288 196.231 144.424ZM200.983 146.424L202.087 146.824C201.655 148.152 200.455 149.224 198.679 149.224C196.631 149.224 194.887 147.72 194.887 145.144C194.887 142.728 196.583 141.112 198.519 141.112C200.839 141.112 202.135 142.728 202.135 145.064C202.135 145.224 202.119 145.4 202.103 145.512H196.199V145.576C196.199 147.032 197.303 148.072 198.679 148.072C199.975 148.072 200.679 147.336 200.983 146.424ZM208.023 141.288V142.648C207.815 142.584 207.575 142.568 207.351 142.568C206.071 142.568 205.191 143.304 205.191 145.032V149H203.911V141.336H205.159V142.712C205.655 141.592 206.631 141.224 207.479 141.224C207.687 141.224 207.911 141.256 208.023 141.288ZM208.752 146.984L209.904 146.584C210.016 147.464 210.672 148.136 211.824 148.136C212.736 148.136 213.312 147.624 213.312 146.968C213.312 146.392 212.848 146.008 212.144 145.848L210.896 145.56C209.728 145.288 208.992 144.536 208.992 143.432C208.992 142.152 210.208 141.112 211.664 141.112C213.648 141.112 214.336 142.376 214.512 143.16L213.376 143.576C213.28 143.048 212.88 142.2 211.664 142.2C210.864 142.2 210.24 142.712 210.24 143.352C210.24 143.896 210.576 144.232 211.248 144.392L212.496 144.68C213.84 144.984 214.576 145.768 214.576 146.904C214.576 148.008 213.632 149.224 211.808 149.224C209.792 149.224 208.88 147.944 208.752 146.984Z" fill="white"/>
<path d="M186.548 158C186.548 177.265 158.445 163.164 158.445 175.662" stroke="#94A3B8" stroke-width="1.5"/>
<path d="M186.548 158C186.548 177.647 215.619 163.164 215.619 175.662" stroke="#94A3B8" stroke-width="1.5"/>
<path d="M215.619 176.605L212.911 173.345L218.328 173.345L215.619 176.605Z" fill="#93A7BE"/>
<path d="M158.445 176.605L155.908 173.736L160.982 173.736L158.445 176.605Z" fill="#93A7BE"/>
<path d="M158.265 60C158.265 40.7753 142.692 54.8468 142.692 42.3748" stroke="#94A3B8" stroke-width="1.5"/>
<path d="M159.705 60C159.705 42.2019 196.739 55.322 196.739 44" stroke="#94A3B8" stroke-width="1.5"/>
<path d="M196.739 41.4319L194.03 44.6923L199.447 44.6923L196.739 41.4319Z" fill="#93A7BE"/>
<path d="M142.692 41.4319L140.155 44.3011L145.229 44.3011L142.692 41.4319Z" fill="#93A7BE"/>
<defs>
<clipPath id="clip0_2148_13478">
<rect width="15.6539" height="15.6539" fill="white" transform="translate(88.2734 68.6731)"/>
</clipPath>
<clipPath id="clip1_2148_13478">
<rect width="16" height="16" fill="white" transform="translate(18.1255 19.5)"/>
</clipPath>
<clipPath id="clip2_2148_13478">
<rect width="16" height="16" fill="white" transform="translate(31.4717 135)"/>
</clipPath>
<clipPath id="clip3_2148_13478">
<rect width="15.4063" height="15.4063" fill="white" transform="translate(195.778 178.297)"/>
</clipPath>
<clipPath id="clip4_2148_13478">
<rect width="15.4063" height="15.4063" fill="white" transform="translate(138.28 178.297)"/>
</clipPath>
<clipPath id="clip5_2148_13478">
<rect width="16" height="16" fill="white" transform="translate(158.456 135)"/>
</clipPath>
</defs>
</svg>
