<svg width="1043" height="301" viewBox="0 0 1043 301" fill="none" xmlns="http://www.w3.org/2000/svg">
<g clip-path="url(#clip0_2148_13333)">
<path d="M51.18 49.9546H49.836V40.7226L45.724 49.9546H44.492L40.412 40.7226V49.9546H39.068V38.6106H40.908L45.116 48.1626L49.356 38.6106H51.18V49.9546ZM56.8181 42.0666C59.0261 42.0666 60.6581 43.7626 60.6581 46.1146C60.6581 48.4826 59.0261 50.1786 56.8181 50.1786C54.6101 50.1786 52.9781 48.4826 52.9781 46.1146C52.9781 43.7626 54.6101 42.0666 56.8181 42.0666ZM56.8181 43.2186C55.4421 43.2186 54.2581 44.2586 54.2581 46.1146C54.2581 47.9866 55.4421 49.0266 56.8181 49.0266C58.1941 49.0266 59.3781 47.9866 59.3781 46.1146C59.3781 44.2586 58.1941 43.2186 56.8181 43.2186ZM63.5911 45.4426V49.9546H62.3111V42.2906H63.5591V43.4426C64.0551 42.5466 64.9511 42.0666 65.9591 42.0666C67.7991 42.0666 68.6951 43.3786 68.6951 45.0426V49.9546H67.4151V45.2346C67.4151 44.1146 66.9031 43.2186 65.5111 43.2186C64.2791 43.2186 63.5911 44.2426 63.5911 45.4426ZM74.0844 42.0666C76.2924 42.0666 77.9244 43.7626 77.9244 46.1146C77.9244 48.4826 76.2924 50.1786 74.0844 50.1786C71.8764 50.1786 70.2444 48.4826 70.2444 46.1146C70.2444 43.7626 71.8764 42.0666 74.0844 42.0666ZM74.0844 43.2186C72.7084 43.2186 71.5244 44.2586 71.5244 46.1146C71.5244 47.9866 72.7084 49.0266 74.0844 49.0266C75.4604 49.0266 76.6444 47.9866 76.6444 46.1146C76.6444 44.2586 75.4604 43.2186 74.0844 43.2186ZM80.8574 49.9546H79.5774V38.3866H80.8574V49.9546ZM84.3186 49.9546H83.0386V42.2906H84.3186V49.9546ZM82.7186 39.2666C82.7186 38.7386 83.1506 38.3066 83.6786 38.3066C84.2066 38.3066 84.6386 38.7386 84.6386 39.2666C84.6386 39.7946 84.2066 40.2266 83.6786 40.2266C83.1506 40.2266 82.7186 39.7946 82.7186 39.2666ZM88.3559 39.8586V42.2906H90.1639V43.4426H88.3559V47.6826C88.3559 48.4826 88.7079 48.8826 89.5239 48.8826C89.7479 48.8826 90.0359 48.8346 90.1639 48.8026V49.8906C90.0199 49.9386 89.6519 50.0346 89.1559 50.0346C87.8919 50.0346 87.0759 49.2506 87.0759 47.8586V43.4426H85.5399V42.2906H86.0359C86.8199 42.2906 87.1559 41.8426 87.1559 41.1226V39.8586H88.3559ZM92.8817 45.3786V49.9546H91.6017V38.3866H92.8817V43.3146C93.3777 42.5146 94.2577 42.0666 95.2497 42.0666C97.0897 42.0666 97.9857 43.3786 97.9857 45.0426V49.9546H96.7057V45.2346C96.7057 44.1146 96.1937 43.2186 94.8017 43.2186C93.5857 43.2186 92.8817 44.1946 92.8817 45.3786Z" fill="#93A7BE"/>
<rect x="6" y="64.9546" width="125" height="196" rx="7" stroke="#93A7BE" stroke-width="2"/>
<rect x="13" y="71.9546" width="111" height="182" rx="6" fill="#93A7BE"/>
<path d="M45.084 157.579H40.71V168.955H39.216V157.579H34.842V156.193H45.084V157.579ZM47.6272 163.807V168.955H46.1872V155.941H47.6272V161.485C48.1852 160.585 49.1752 160.081 50.2912 160.081C52.3612 160.081 53.3692 161.557 53.3692 163.429V168.955H51.9292V163.645C51.9292 162.385 51.3532 161.377 49.7872 161.377C48.4192 161.377 47.6272 162.475 47.6272 163.807ZM56.9841 163.807H62.1321C62.0961 162.439 61.2141 161.359 59.5761 161.359C58.0821 161.359 57.0741 162.529 56.9841 163.807ZM62.3301 166.057L63.5721 166.507C63.0861 168.001 61.7361 169.207 59.7381 169.207C57.4341 169.207 55.4721 167.515 55.4721 164.617C55.4721 161.899 57.3801 160.081 59.5581 160.081C62.1681 160.081 63.6261 161.899 63.6261 164.527C63.6261 164.707 63.6081 164.905 63.5901 165.031H56.9481V165.103C56.9481 166.741 58.1901 167.911 59.7381 167.911C61.1961 167.911 61.9881 167.083 62.3301 166.057ZM79.1889 168.955L77.7309 165.229H71.8809L70.4589 168.955H68.8209L73.9329 156.193H75.6969L80.8269 168.955H79.1889ZM74.7969 157.741L72.4209 163.843H77.1909L74.7969 157.741ZM84.0139 172.375H82.5739V160.333H83.9779V161.773C84.4279 160.891 85.4359 160.081 86.9659 160.081C89.5039 160.081 90.8899 162.061 90.8899 164.635C90.8899 167.209 89.4139 169.207 86.9299 169.207C85.4539 169.207 84.4639 168.433 84.0139 167.623V172.375ZM86.7139 167.911C88.3699 167.911 89.4499 166.543 89.4499 164.635C89.4499 162.727 88.3879 161.377 86.7139 161.377C85.0399 161.377 83.9779 162.727 83.9779 164.635C83.9779 166.543 85.0579 167.911 86.7139 167.911ZM94.5608 172.375H93.1208V160.333H94.5248V161.773C94.9748 160.891 95.9828 160.081 97.5128 160.081C100.051 160.081 101.437 162.061 101.437 164.635C101.437 167.209 99.9608 169.207 97.4768 169.207C96.0008 169.207 95.0108 168.433 94.5608 167.623V172.375ZM97.2608 167.911C98.9168 167.911 99.9968 166.543 99.9968 164.635C99.9968 162.727 98.9348 161.377 97.2608 161.377C95.5868 161.377 94.5248 162.727 94.5248 164.635C94.5248 166.543 95.6048 167.911 97.2608 167.911Z" fill="white"/>
<path d="M159.047 158.652L141.573 168.741L141.573 148.563L159.047 158.652Z" fill="#93A7BE"/>
<path d="M188.912 49.9546H187.568V38.6106H194.384V39.8426H188.912V43.8266H193.888V45.0586H188.912V49.9546ZM199.618 42.2426V43.6026C199.41 43.5386 199.17 43.5226 198.946 43.5226C197.666 43.5226 196.786 44.2586 196.786 45.9866V49.9546H195.506V42.2906H196.754V43.6666C197.25 42.5466 198.226 42.1786 199.074 42.1786C199.282 42.1786 199.506 42.2106 199.618 42.2426ZM203.951 42.0666C206.159 42.0666 207.791 43.7626 207.791 46.1146C207.791 48.4826 206.159 50.1786 203.951 50.1786C201.743 50.1786 200.111 48.4826 200.111 46.1146C200.111 43.7626 201.743 42.0666 203.951 42.0666ZM203.951 43.2186C202.575 43.2186 201.391 44.2586 201.391 46.1146C201.391 47.9866 202.575 49.0266 203.951 49.0266C205.327 49.0266 206.511 47.9866 206.511 46.1146C206.511 44.2586 205.327 43.2186 203.951 43.2186ZM210.724 45.4426V49.9546H209.444V42.2906H210.692V43.4426C211.188 42.5466 212.084 42.0666 213.092 42.0666C214.932 42.0666 215.828 43.3786 215.828 45.0426V49.9546H214.548V45.2346C214.548 44.1146 214.036 43.2186 212.644 43.2186C211.412 43.2186 210.724 44.2426 210.724 45.4426ZM219.683 39.8586V42.2906H221.491V43.4426H219.683V47.6826C219.683 48.4826 220.035 48.8826 220.851 48.8826C221.075 48.8826 221.363 48.8346 221.491 48.8026V49.8906C221.347 49.9386 220.979 50.0346 220.483 50.0346C219.219 50.0346 218.403 49.2506 218.403 47.8586V43.4426H216.867V42.2906H217.363C218.147 42.2906 218.483 41.8426 218.483 41.1226V39.8586H219.683ZM226.143 47.9226C226.143 46.5786 227.087 45.8266 228.431 45.6346L230.495 45.3306C231.055 45.2506 231.183 45.0106 231.183 44.6746C231.183 43.8106 230.607 43.1546 229.407 43.1546C228.287 43.1546 227.615 43.8266 227.503 44.8026L226.287 44.5146C226.447 43.0586 227.727 42.0666 229.375 42.0666C231.551 42.0666 232.463 43.3146 232.463 44.8026V48.6746C232.463 49.3146 232.511 49.7146 232.559 49.9546H231.311C231.279 49.7786 231.215 49.3946 231.215 48.8026C230.879 49.4266 230.047 50.1786 228.671 50.1786C227.087 50.1786 226.143 49.0906 226.143 47.9226ZM228.831 49.0906C230.159 49.0906 231.183 48.3546 231.183 46.7226V46.2106L228.687 46.5786C227.951 46.6906 227.423 47.1066 227.423 47.8586C227.423 48.4826 227.951 49.0906 228.831 49.0906ZM235.835 45.4426V49.9546H234.555V42.2906H235.803V43.4426C236.299 42.5466 237.195 42.0666 238.203 42.0666C240.043 42.0666 240.939 43.3786 240.939 45.0426V49.9546H239.659V45.2346C239.659 44.1146 239.147 43.2186 237.755 43.2186C236.523 43.2186 235.835 44.2426 235.835 45.4426ZM248.568 48.8506V48.6426C248.216 49.3946 247.384 50.1786 246.056 50.1786C243.848 50.1786 242.504 48.3866 242.504 46.1146C242.504 43.8906 243.912 42.0666 246.056 42.0666C247.528 42.0666 248.28 42.8826 248.536 43.5226V38.3866H249.816V48.5146C249.816 49.2826 249.864 49.7946 249.896 49.9546H248.648C248.616 49.7786 248.568 49.3466 248.568 48.8506ZM246.168 49.0266C247.608 49.0266 248.568 47.8106 248.568 46.1146C248.568 44.4186 247.624 43.2186 246.168 43.2186C244.712 43.2186 243.784 44.4186 243.784 46.1146C243.784 47.8106 244.728 49.0266 246.168 49.0266ZM256.071 38.6106H259.607C261.767 38.6106 263.031 39.8746 263.031 41.6666C263.031 42.8826 262.327 43.7786 261.319 44.1306C262.599 44.4506 263.383 45.6026 263.383 46.8826C263.383 48.6746 261.975 49.9546 259.895 49.9546H256.071V38.6106ZM257.415 43.6506H259.607C260.855 43.6506 261.687 42.8506 261.687 41.7306C261.687 40.5466 260.855 39.7946 259.431 39.7946H257.415V43.6506ZM257.415 48.7706H259.735C261.111 48.7706 262.039 48.0026 262.039 46.8026C262.039 45.6186 261.223 44.8026 259.847 44.8026H257.415V48.7706ZM264.622 47.9226C264.622 46.5786 265.566 45.8266 266.91 45.6346L268.974 45.3306C269.534 45.2506 269.662 45.0106 269.662 44.6746C269.662 43.8106 269.086 43.1546 267.886 43.1546C266.766 43.1546 266.094 43.8266 265.982 44.8026L264.766 44.5146C264.926 43.0586 266.206 42.0666 267.854 42.0666C270.03 42.0666 270.942 43.3146 270.942 44.8026V48.6746C270.942 49.3146 270.99 49.7146 271.038 49.9546H269.79C269.758 49.7786 269.694 49.3946 269.694 48.8026C269.358 49.4266 268.526 50.1786 267.15 50.1786C265.566 50.1786 264.622 49.0906 264.622 47.9226ZM267.31 49.0906C268.638 49.0906 269.662 48.3546 269.662 46.7226V46.2106L267.166 46.5786C266.43 46.6906 265.902 47.1066 265.902 47.8586C265.902 48.4826 266.43 49.0906 267.31 49.0906ZM276.297 43.2186C274.953 43.2186 273.785 44.2586 273.785 46.1146C273.785 47.9546 274.953 49.0266 276.313 49.0266C277.769 49.0266 278.377 48.0026 278.601 47.2986L279.721 47.7946C279.353 48.9306 278.281 50.1786 276.313 50.1786C274.105 50.1786 272.505 48.4506 272.505 46.1146C272.505 43.7306 274.137 42.0666 276.297 42.0666C278.265 42.0666 279.337 43.2666 279.657 44.4826L278.505 44.9786C278.297 44.1626 277.673 43.2186 276.297 43.2186ZM287.853 42.2906L284.589 45.5386L287.933 49.9546H286.317L283.693 46.4186L282.509 47.6346V49.9546H281.229V38.3866H282.509V45.9386L286.093 42.2906H287.853Z" fill="#93A7BE"/>
<rect x="168" y="64.9546" width="139" height="196" rx="7" stroke="#93A7BE" stroke-width="2"/>
<rect x="175" y="71.9546" width="125" height="64" rx="6" fill="#5D48FF"/>
<path d="M204.276 109.955H202.764V97.1926H210.432V98.5786H204.276V103.061H209.874V104.447H204.276V109.955ZM216.68 101.279V102.809C216.446 102.737 216.176 102.719 215.924 102.719C214.484 102.719 213.494 103.547 213.494 105.491V109.955H212.054V101.333H213.458V102.881C214.016 101.621 215.114 101.207 216.068 101.207C216.302 101.207 216.554 101.243 216.68 101.279ZM221.915 101.081C224.399 101.081 226.235 102.989 226.235 105.635C226.235 108.299 224.399 110.207 221.915 110.207C219.431 110.207 217.595 108.299 217.595 105.635C217.595 102.989 219.431 101.081 221.915 101.081ZM221.915 102.377C220.367 102.377 219.035 103.547 219.035 105.635C219.035 107.741 220.367 108.911 221.915 108.911C223.463 108.911 224.795 107.741 224.795 105.635C224.795 103.547 223.463 102.377 221.915 102.377ZM229.895 104.879V109.955H228.455V101.333H229.859V102.629C230.417 101.621 231.425 101.081 232.559 101.081C234.629 101.081 235.637 102.557 235.637 104.429V109.955H234.197V104.645C234.197 103.385 233.621 102.377 232.055 102.377C230.669 102.377 229.895 103.529 229.895 104.879ZM240.334 98.5966V101.333H242.368V102.629H240.334V107.399C240.334 108.299 240.73 108.749 241.648 108.749C241.9 108.749 242.224 108.695 242.368 108.659V109.883C242.206 109.937 241.792 110.045 241.234 110.045C239.812 110.045 238.894 109.163 238.894 107.597V102.629H237.166V101.333H237.724C238.606 101.333 238.984 100.829 238.984 100.019V98.5966H240.334ZM245.263 104.807H250.411C250.375 103.439 249.493 102.359 247.855 102.359C246.361 102.359 245.353 103.529 245.263 104.807ZM250.609 107.057L251.851 107.507C251.365 109.001 250.015 110.207 248.017 110.207C245.713 110.207 243.751 108.515 243.751 105.617C243.751 102.899 245.659 101.081 247.837 101.081C250.447 101.081 251.905 102.899 251.905 105.527C251.905 105.707 251.887 105.905 251.869 106.031H245.227V106.103C245.227 107.741 246.469 108.911 248.017 108.911C249.475 108.911 250.267 108.083 250.609 107.057ZM255.524 104.879V109.955H254.084V101.333H255.488V102.629C256.046 101.621 257.054 101.081 258.188 101.081C260.258 101.081 261.266 102.557 261.266 104.429V109.955H259.826V104.645C259.826 103.385 259.25 102.377 257.684 102.377C256.298 102.377 255.524 103.529 255.524 104.879ZM270.209 108.713V108.479C269.813 109.325 268.877 110.207 267.383 110.207C264.899 110.207 263.387 108.191 263.387 105.635C263.387 103.133 264.971 101.081 267.383 101.081C269.039 101.081 269.885 101.999 270.173 102.719V96.9406H271.613V108.335C271.613 109.199 271.667 109.775 271.703 109.955H270.299C270.263 109.757 270.209 109.271 270.209 108.713ZM267.509 108.911C269.129 108.911 270.209 107.543 270.209 105.635C270.209 103.727 269.147 102.377 267.509 102.377C265.871 102.377 264.827 103.727 264.827 105.635C264.827 107.543 265.889 108.911 267.509 108.911Z" fill="white"/>
<rect x="175" y="140.955" width="125" height="113" rx="6" fill="#5D48FF"/>
<path d="M204.764 190.693H208.742C211.172 190.693 212.594 192.115 212.594 194.131C212.594 195.499 211.802 196.507 210.668 196.903C212.108 197.263 212.99 198.559 212.99 199.999C212.99 202.015 211.406 203.455 209.066 203.455H204.764V190.693ZM206.276 196.363H208.742C210.146 196.363 211.082 195.463 211.082 194.203C211.082 192.871 210.146 192.025 208.544 192.025H206.276V196.363ZM206.276 202.123H208.886C210.434 202.123 211.478 201.259 211.478 199.909C211.478 198.577 210.56 197.659 209.012 197.659H206.276V202.123ZM214.743 201.169C214.743 199.657 215.805 198.811 217.317 198.595L219.639 198.253C220.269 198.163 220.413 197.893 220.413 197.515C220.413 196.543 219.765 195.805 218.415 195.805C217.155 195.805 216.399 196.561 216.273 197.659L214.905 197.335C215.085 195.697 216.525 194.581 218.379 194.581C220.827 194.581 221.853 195.985 221.853 197.659V202.015C221.853 202.735 221.907 203.185 221.961 203.455H220.557C220.521 203.257 220.449 202.825 220.449 202.159C220.071 202.861 219.135 203.707 217.587 203.707C215.805 203.707 214.743 202.483 214.743 201.169ZM217.767 202.483C219.261 202.483 220.413 201.655 220.413 199.819V199.243L217.605 199.657C216.777 199.783 216.183 200.251 216.183 201.097C216.183 201.799 216.777 202.483 217.767 202.483ZM228.238 195.877C226.726 195.877 225.412 197.047 225.412 199.135C225.412 201.205 226.726 202.411 228.256 202.411C229.894 202.411 230.578 201.259 230.83 200.467L232.09 201.025C231.676 202.303 230.47 203.707 228.256 203.707C225.772 203.707 223.972 201.763 223.972 199.135C223.972 196.453 225.808 194.581 228.238 194.581C230.452 194.581 231.658 195.931 232.018 197.299L230.722 197.857C230.488 196.939 229.786 195.877 228.238 195.877ZM241.598 194.833L237.926 198.487L241.688 203.455H239.87L236.918 199.477L235.586 200.845V203.455H234.146V190.441H235.586V198.937L239.618 194.833H241.598ZM243.818 198.307H248.966C248.93 196.939 248.048 195.859 246.41 195.859C244.916 195.859 243.908 197.029 243.818 198.307ZM249.164 200.557L250.406 201.007C249.92 202.501 248.57 203.707 246.572 203.707C244.268 203.707 242.306 202.015 242.306 199.117C242.306 196.399 244.214 194.581 246.392 194.581C249.002 194.581 250.46 196.399 250.46 199.027C250.46 199.207 250.442 199.405 250.424 199.531H243.782V199.603C243.782 201.241 245.024 202.411 246.572 202.411C248.03 202.411 248.822 201.583 249.164 200.557ZM254.078 198.379V203.455H252.638V194.833H254.042V196.129C254.6 195.121 255.608 194.581 256.742 194.581C258.812 194.581 259.82 196.057 259.82 197.929V203.455H258.38V198.145C258.38 196.885 257.804 195.877 256.238 195.877C254.852 195.877 254.078 197.029 254.078 198.379ZM268.763 202.213V201.979C268.367 202.825 267.431 203.707 265.937 203.707C263.453 203.707 261.941 201.691 261.941 199.135C261.941 196.633 263.525 194.581 265.937 194.581C267.593 194.581 268.439 195.499 268.727 196.219V190.441H270.167V201.835C270.167 202.699 270.221 203.275 270.257 203.455H268.853C268.817 203.257 268.763 202.771 268.763 202.213ZM266.063 202.411C267.683 202.411 268.763 201.043 268.763 199.135C268.763 197.227 267.701 195.877 266.063 195.877C264.425 195.877 263.381 197.227 263.381 199.135C263.381 201.043 264.443 202.411 266.063 202.411Z" fill="white"/>
<path d="M335.047 158.652L317.573 168.741L317.573 148.563L335.047 158.652Z" fill="#93A7BE"/>
<path d="M401.18 49.9546H399.836V40.7226L395.724 49.9546H394.492L390.412 40.7226V49.9546H389.068V38.6106H390.908L395.116 48.1626L399.356 38.6106H401.18V49.9546ZM404.958 49.9546H403.678V42.2906H404.958V49.9546ZM403.358 39.2666C403.358 38.7386 403.79 38.3066 404.318 38.3066C404.846 38.3066 405.278 38.7386 405.278 39.2666C405.278 39.7946 404.846 40.2266 404.318 40.2266C403.79 40.2266 403.358 39.7946 403.358 39.2666ZM410.403 43.2186C409.059 43.2186 407.891 44.2586 407.891 46.1146C407.891 47.9546 409.059 49.0266 410.419 49.0266C411.875 49.0266 412.483 48.0026 412.707 47.2986L413.827 47.7946C413.459 48.9306 412.387 50.1786 410.419 50.1786C408.211 50.1786 406.611 48.4506 406.611 46.1146C406.611 43.7306 408.243 42.0666 410.403 42.0666C412.371 42.0666 413.443 43.2666 413.763 44.4826L412.611 44.9786C412.403 44.1626 411.779 43.2186 410.403 43.2186ZM419.447 42.2426V43.6026C419.239 43.5386 418.999 43.5226 418.775 43.5226C417.495 43.5226 416.615 44.2586 416.615 45.9866V49.9546H415.335V42.2906H416.583V43.6666C417.079 42.5466 418.055 42.1786 418.903 42.1786C419.111 42.1786 419.335 42.2106 419.447 42.2426ZM423.78 42.0666C425.988 42.0666 427.62 43.7626 427.62 46.1146C427.62 48.4826 425.988 50.1786 423.78 50.1786C421.572 50.1786 419.94 48.4826 419.94 46.1146C419.94 43.7626 421.572 42.0666 423.78 42.0666ZM423.78 43.2186C422.404 43.2186 421.22 44.2586 421.22 46.1146C421.22 47.9866 422.404 49.0266 423.78 49.0266C425.156 49.0266 426.34 47.9866 426.34 46.1146C426.34 44.2586 425.156 43.2186 423.78 43.2186ZM433.385 45.9226H429.113V44.8026H433.385V45.9226ZM434.782 47.9386L435.934 47.5386C436.046 48.4186 436.702 49.0906 437.854 49.0906C438.766 49.0906 439.342 48.5786 439.342 47.9226C439.342 47.3466 438.878 46.9626 438.174 46.8026L436.926 46.5146C435.758 46.2426 435.022 45.4906 435.022 44.3866C435.022 43.1066 436.238 42.0666 437.694 42.0666C439.678 42.0666 440.366 43.3306 440.542 44.1146L439.406 44.5306C439.31 44.0026 438.91 43.1546 437.694 43.1546C436.894 43.1546 436.27 43.6666 436.27 44.3066C436.27 44.8506 436.606 45.1866 437.278 45.3466L438.526 45.6346C439.87 45.9386 440.606 46.7226 440.606 47.8586C440.606 48.9626 439.662 50.1786 437.838 50.1786C435.822 50.1786 434.91 48.8986 434.782 47.9386ZM443.074 45.3786H447.65C447.618 44.1626 446.834 43.2026 445.378 43.2026C444.05 43.2026 443.154 44.2426 443.074 45.3786ZM447.826 47.3786L448.93 47.7786C448.498 49.1066 447.298 50.1786 445.522 50.1786C443.474 50.1786 441.73 48.6746 441.73 46.0986C441.73 43.6826 443.426 42.0666 445.362 42.0666C447.682 42.0666 448.978 43.6826 448.978 46.0186C448.978 46.1786 448.962 46.3546 448.946 46.4666H443.042V46.5306C443.042 47.9866 444.146 49.0266 445.522 49.0266C446.818 49.0266 447.522 48.2906 447.826 47.3786ZM454.706 42.2426V43.6026C454.498 43.5386 454.258 43.5226 454.034 43.5226C452.754 43.5226 451.874 44.2586 451.874 45.9866V49.9546H450.594V42.2906H451.842V43.6666C452.338 42.5466 453.314 42.1786 454.162 42.1786C454.37 42.1786 454.594 42.2106 454.706 42.2426ZM462.475 42.2906L459.419 49.9546H458.123L455.035 42.2906H456.475L458.779 48.4666L461.099 42.2906H462.475ZM465.078 49.9546H463.798V42.2906H465.078V49.9546ZM463.478 39.2666C463.478 38.7386 463.91 38.3066 464.438 38.3066C464.966 38.3066 465.398 38.7386 465.398 39.2666C465.398 39.7946 464.966 40.2266 464.438 40.2266C463.91 40.2266 463.478 39.7946 463.478 39.2666ZM470.523 43.2186C469.179 43.2186 468.011 44.2586 468.011 46.1146C468.011 47.9546 469.179 49.0266 470.539 49.0266C471.995 49.0266 472.603 48.0026 472.827 47.2986L473.947 47.7946C473.579 48.9306 472.507 50.1786 470.539 50.1786C468.331 50.1786 466.731 48.4506 466.731 46.1146C466.731 43.7306 468.363 42.0666 470.523 42.0666C472.491 42.0666 473.563 43.2666 473.883 44.4826L472.731 44.9786C472.523 44.1626 471.899 43.2186 470.523 43.2186ZM476.271 45.3786H480.847C480.815 44.1626 480.031 43.2026 478.575 43.2026C477.247 43.2026 476.351 44.2426 476.271 45.3786ZM481.023 47.3786L482.127 47.7786C481.695 49.1066 480.495 50.1786 478.719 50.1786C476.671 50.1786 474.927 48.6746 474.927 46.0986C474.927 43.6826 476.623 42.0666 478.559 42.0666C480.879 42.0666 482.175 43.6826 482.175 46.0186C482.175 46.1786 482.159 46.3546 482.143 46.4666H476.239V46.5306C476.239 47.9866 477.343 49.0266 478.719 49.0266C480.015 49.0266 480.719 48.2906 481.023 47.3786ZM483.167 47.9386L484.319 47.5386C484.431 48.4186 485.087 49.0906 486.239 49.0906C487.151 49.0906 487.727 48.5786 487.727 47.9226C487.727 47.3466 487.263 46.9626 486.559 46.8026L485.311 46.5146C484.143 46.2426 483.407 45.4906 483.407 44.3866C483.407 43.1066 484.623 42.0666 486.079 42.0666C488.063 42.0666 488.751 43.3306 488.927 44.1146L487.791 44.5306C487.695 44.0026 487.295 43.1546 486.079 43.1546C485.279 43.1546 484.655 43.6666 484.655 44.3066C484.655 44.8506 484.991 45.1866 485.663 45.3466L486.911 45.6346C488.255 45.9386 488.991 46.7226 488.991 47.8586C488.991 48.9626 488.047 50.1786 486.223 50.1786C484.207 50.1786 483.295 48.8986 483.167 47.9386Z" fill="#93A7BE"/>
<rect x="344" y="64.9546" width="190" height="196" rx="7" stroke="#93A7BE" stroke-width="2"/>
<rect x="350" y="71.9546" width="179" height="64" rx="6" fill="#5D48FF"/>
<path d="M406.276 109.955H404.764V97.1926H412.432V98.5786H406.276V103.061H411.874V104.447H406.276V109.955ZM418.68 101.279V102.809C418.446 102.737 418.176 102.719 417.924 102.719C416.484 102.719 415.494 103.547 415.494 105.491V109.955H414.054V101.333H415.458V102.881C416.016 101.621 417.114 101.207 418.068 101.207C418.302 101.207 418.554 101.243 418.68 101.279ZM423.915 101.081C426.399 101.081 428.235 102.989 428.235 105.635C428.235 108.299 426.399 110.207 423.915 110.207C421.431 110.207 419.595 108.299 419.595 105.635C419.595 102.989 421.431 101.081 423.915 101.081ZM423.915 102.377C422.367 102.377 421.035 103.547 421.035 105.635C421.035 107.741 422.367 108.911 423.915 108.911C425.463 108.911 426.795 107.741 426.795 105.635C426.795 103.547 425.463 102.377 423.915 102.377ZM431.895 104.879V109.955H430.455V101.333H431.859V102.629C432.417 101.621 433.425 101.081 434.559 101.081C436.629 101.081 437.637 102.557 437.637 104.429V109.955H436.197V104.645C436.197 103.385 435.621 102.377 434.055 102.377C432.669 102.377 431.895 103.529 431.895 104.879ZM442.334 98.5966V101.333H444.368V102.629H442.334V107.399C442.334 108.299 442.73 108.749 443.648 108.749C443.9 108.749 444.224 108.695 444.368 108.659V109.883C444.206 109.937 443.792 110.045 443.234 110.045C441.812 110.045 440.894 109.163 440.894 107.597V102.629H439.166V101.333H439.724C440.606 101.333 440.984 100.829 440.984 100.019V98.5966H442.334ZM447.263 104.807H452.411C452.375 103.439 451.493 102.359 449.855 102.359C448.361 102.359 447.353 103.529 447.263 104.807ZM452.609 107.057L453.851 107.507C453.365 109.001 452.015 110.207 450.017 110.207C447.713 110.207 445.751 108.515 445.751 105.617C445.751 102.899 447.659 101.081 449.837 101.081C452.447 101.081 453.905 102.899 453.905 105.527C453.905 105.707 453.887 105.905 453.869 106.031H447.227V106.103C447.227 107.741 448.469 108.911 450.017 108.911C451.475 108.911 452.267 108.083 452.609 107.057ZM457.524 104.879V109.955H456.084V101.333H457.488V102.629C458.046 101.621 459.054 101.081 460.188 101.081C462.258 101.081 463.266 102.557 463.266 104.429V109.955H461.826V104.645C461.826 103.385 461.25 102.377 459.684 102.377C458.298 102.377 457.524 103.529 457.524 104.879ZM472.209 108.713V108.479C471.813 109.325 470.877 110.207 469.383 110.207C466.899 110.207 465.387 108.191 465.387 105.635C465.387 103.133 466.971 101.081 469.383 101.081C471.039 101.081 471.885 101.999 472.173 102.719V96.9406H473.613V108.335C473.613 109.199 473.667 109.775 473.703 109.955H472.299C472.263 109.757 472.209 109.271 472.209 108.713ZM469.509 108.911C471.129 108.911 472.209 107.543 472.209 105.635C472.209 103.727 471.147 102.377 469.509 102.377C467.871 102.377 466.827 103.727 466.827 105.635C466.827 107.543 467.889 108.911 469.509 108.911Z" fill="white"/>
<g clip-path="url(#clip1_2148_13333)">
<rect x="350" y="140.955" width="58" height="115" rx="6" fill="#EE9511"/>
<path d="M366.918 196.651C364.902 196.651 363.404 195.405 363.404 193.095V186.529H364.58V193.067C364.58 194.663 365.42 195.573 366.918 195.573C368.416 195.573 369.256 194.663 369.256 193.067V186.529H370.432V193.095C370.432 195.405 368.934 196.651 366.918 196.651ZM371.915 194.691L372.923 194.341C373.021 195.111 373.595 195.699 374.603 195.699C375.401 195.699 375.905 195.251 375.905 194.677C375.905 194.173 375.499 193.837 374.883 193.697L373.791 193.445C372.769 193.207 372.125 192.549 372.125 191.583C372.125 190.463 373.189 189.553 374.463 189.553C376.199 189.553 376.801 190.659 376.955 191.345L375.961 191.709C375.877 191.247 375.527 190.505 374.463 190.505C373.763 190.505 373.217 190.953 373.217 191.513C373.217 191.989 373.511 192.283 374.099 192.423L375.191 192.675C376.367 192.941 377.011 193.627 377.011 194.621C377.011 195.587 376.185 196.651 374.589 196.651C372.825 196.651 372.027 195.531 371.915 194.691ZM379.311 192.451H383.315C383.287 191.387 382.601 190.547 381.327 190.547C380.165 190.547 379.381 191.457 379.311 192.451ZM383.469 194.201L384.435 194.551C384.057 195.713 383.007 196.651 381.453 196.651C379.661 196.651 378.135 195.335 378.135 193.081C378.135 190.967 379.619 189.553 381.313 189.553C383.343 189.553 384.477 190.967 384.477 193.011C384.477 193.151 384.463 193.305 384.449 193.403H379.283V193.459C379.283 194.733 380.249 195.643 381.453 195.643C382.587 195.643 383.203 194.999 383.469 194.201ZM389.629 189.707V190.897C389.447 190.841 389.237 190.827 389.041 190.827C387.921 190.827 387.151 191.471 387.151 192.983V196.455H386.031V189.749H387.123V190.953C387.557 189.973 388.411 189.651 389.153 189.651C389.335 189.651 389.531 189.679 389.629 189.707ZM390.267 194.691L391.275 194.341C391.373 195.111 391.947 195.699 392.955 195.699C393.753 195.699 394.257 195.251 394.257 194.677C394.257 194.173 393.851 193.837 393.235 193.697L392.143 193.445C391.121 193.207 390.477 192.549 390.477 191.583C390.477 190.463 391.541 189.553 392.815 189.553C394.551 189.553 395.153 190.659 395.307 191.345L394.313 191.709C394.229 191.247 393.879 190.505 392.815 190.505C392.115 190.505 391.569 190.953 391.569 191.513C391.569 191.989 391.863 192.283 392.451 192.423L393.543 192.675C394.719 192.941 395.363 193.627 395.363 194.621C395.363 195.587 394.537 196.651 392.941 196.651C391.177 196.651 390.379 195.531 390.267 194.691ZM357.818 207.691L358.826 207.341C358.924 208.111 359.498 208.699 360.506 208.699C361.304 208.699 361.808 208.251 361.808 207.677C361.808 207.173 361.402 206.837 360.786 206.697L359.694 206.445C358.672 206.207 358.028 205.549 358.028 204.583C358.028 203.463 359.092 202.553 360.366 202.553C362.102 202.553 362.704 203.659 362.858 204.345L361.864 204.709C361.78 204.247 361.43 203.505 360.366 203.505C359.666 203.505 359.12 203.953 359.12 204.513C359.12 204.989 359.414 205.283 360.002 205.423L361.094 205.675C362.27 205.941 362.914 206.627 362.914 207.621C362.914 208.587 362.088 209.651 360.492 209.651C358.728 209.651 357.93 208.531 357.818 207.691ZM365.213 205.451H369.217C369.189 204.387 368.503 203.547 367.229 203.547C366.067 203.547 365.283 204.457 365.213 205.451ZM369.371 207.201L370.337 207.551C369.959 208.713 368.909 209.651 367.355 209.651C365.563 209.651 364.037 208.335 364.037 206.081C364.037 203.967 365.521 202.553 367.215 202.553C369.245 202.553 370.379 203.967 370.379 206.011C370.379 206.151 370.365 206.305 370.351 206.403H365.185V206.459C365.185 207.733 366.151 208.643 367.355 208.643C368.489 208.643 369.105 207.999 369.371 207.201ZM375.531 202.707V203.897C375.349 203.841 375.139 203.827 374.943 203.827C373.823 203.827 373.053 204.471 373.053 205.983V209.455H371.933V202.749H373.025V203.953C373.459 202.973 374.313 202.651 375.055 202.651C375.237 202.651 375.433 202.679 375.531 202.707ZM382.469 202.749L379.795 209.455H378.661L375.959 202.749H377.219L379.235 208.153L381.265 202.749H382.469ZM384.886 209.455H383.766V202.749H384.886V209.455ZM383.486 200.103C383.486 199.641 383.864 199.263 384.326 199.263C384.788 199.263 385.166 199.641 385.166 200.103C385.166 200.565 384.788 200.943 384.326 200.943C383.864 200.943 383.486 200.565 383.486 200.103ZM389.791 203.561C388.615 203.561 387.593 204.471 387.593 206.095C387.593 207.705 388.615 208.643 389.805 208.643C391.079 208.643 391.611 207.747 391.807 207.131L392.787 207.565C392.465 208.559 391.527 209.651 389.805 209.651C387.873 209.651 386.473 208.139 386.473 206.095C386.473 204.009 387.901 202.553 389.791 202.553C391.513 202.553 392.451 203.603 392.731 204.667L391.723 205.101C391.541 204.387 390.995 203.561 389.791 203.561ZM394.96 205.451H398.964C398.936 204.387 398.25 203.547 396.976 203.547C395.814 203.547 395.03 204.457 394.96 205.451ZM399.118 207.201L400.084 207.551C399.706 208.713 398.656 209.651 397.102 209.651C395.31 209.651 393.784 208.335 393.784 206.081C393.784 203.967 395.268 202.553 396.962 202.553C398.992 202.553 400.126 203.967 400.126 206.011C400.126 206.151 400.112 206.305 400.098 206.403H394.932V206.459C394.932 207.733 395.898 208.643 397.102 208.643C398.236 208.643 398.852 207.999 399.118 207.201Z" fill="white"/>
</g>
<g clip-path="url(#clip2_2148_13333)">
<rect x="411" y="140.955" width="57" height="115" rx="6" fill="#24C068"/>
<path d="M415.468 191.289H417.568C418.842 191.289 419.626 190.547 419.626 189.455C419.626 188.321 418.842 187.579 417.568 187.579H415.468V191.289ZM417.75 192.339H415.468V196.455H414.292V186.529H417.75C419.584 186.529 420.802 187.789 420.802 189.441C420.802 191.107 419.584 192.339 417.75 192.339ZM421.407 194.677C421.407 193.501 422.233 192.843 423.409 192.675L425.215 192.409C425.705 192.339 425.817 192.129 425.817 191.835C425.817 191.079 425.313 190.505 424.263 190.505C423.283 190.505 422.695 191.093 422.597 191.947L421.533 191.695C421.673 190.421 422.793 189.553 424.235 189.553C426.139 189.553 426.937 190.645 426.937 191.947V195.335C426.937 195.895 426.979 196.245 427.021 196.455H425.929C425.901 196.301 425.845 195.965 425.845 195.447C425.551 195.993 424.823 196.651 423.619 196.651C422.233 196.651 421.407 195.699 421.407 194.677ZM423.759 195.699C424.921 195.699 425.817 195.055 425.817 193.627V193.179L423.633 193.501C422.989 193.599 422.527 193.963 422.527 194.621C422.527 195.167 422.989 195.699 423.759 195.699ZM430.438 199.115H429.192L430.816 195.657L427.932 189.749H429.22L431.432 194.495L433.518 189.749H434.736L430.438 199.115ZM437.01 189.749V190.701C437.388 190.001 438.2 189.553 439.068 189.553C439.992 189.553 440.79 190.043 441.126 190.925C441.602 189.973 442.442 189.553 443.394 189.553C444.612 189.553 445.704 190.393 445.704 192.073V196.455H444.584V192.199C444.584 191.275 444.094 190.561 443.044 190.561C442.05 190.561 441.378 191.373 441.378 192.381V196.455H440.258V192.199C440.258 191.275 439.768 190.561 438.704 190.561C437.696 190.561 437.038 191.345 437.038 192.395V196.455H435.918V189.749H437.01ZM448.373 192.451H452.377C452.349 191.387 451.663 190.547 450.389 190.547C449.227 190.547 448.443 191.457 448.373 192.451ZM452.531 194.201L453.497 194.551C453.119 195.713 452.069 196.651 450.515 196.651C448.723 196.651 447.197 195.335 447.197 193.081C447.197 190.967 448.681 189.553 450.375 189.553C452.405 189.553 453.539 190.967 453.539 193.011C453.539 193.151 453.525 193.305 453.511 193.403H448.345V193.459C448.345 194.733 449.311 195.643 450.515 195.643C451.649 195.643 452.265 194.999 452.531 194.201ZM456.213 192.507V196.455H455.093V189.749H456.185V190.757C456.619 189.973 457.403 189.553 458.285 189.553C459.895 189.553 460.679 190.701 460.679 192.157V196.455H459.559V192.325C459.559 191.345 459.111 190.561 457.893 190.561C456.815 190.561 456.213 191.457 456.213 192.507ZM464.192 187.621V189.749H465.774V190.757H464.192V194.467C464.192 195.167 464.5 195.517 465.214 195.517C465.41 195.517 465.662 195.475 465.774 195.447V196.399C465.648 196.441 465.326 196.525 464.892 196.525C463.786 196.525 463.072 195.839 463.072 194.621V190.757H461.728V189.749H462.162C462.848 189.749 463.142 189.357 463.142 188.727V187.621H464.192ZM418.318 207.691L419.326 207.341C419.424 208.111 419.998 208.699 421.006 208.699C421.804 208.699 422.308 208.251 422.308 207.677C422.308 207.173 421.902 206.837 421.286 206.697L420.194 206.445C419.172 206.207 418.528 205.549 418.528 204.583C418.528 203.463 419.592 202.553 420.866 202.553C422.602 202.553 423.204 203.659 423.358 204.345L422.364 204.709C422.28 204.247 421.93 203.505 420.866 203.505C420.166 203.505 419.62 203.953 419.62 204.513C419.62 204.989 419.914 205.283 420.502 205.423L421.594 205.675C422.77 205.941 423.414 206.627 423.414 207.621C423.414 208.587 422.588 209.651 420.992 209.651C419.228 209.651 418.43 208.531 418.318 207.691ZM425.713 205.451H429.717C429.689 204.387 429.003 203.547 427.729 203.547C426.567 203.547 425.783 204.457 425.713 205.451ZM429.871 207.201L430.837 207.551C430.459 208.713 429.409 209.651 427.855 209.651C426.063 209.651 424.537 208.335 424.537 206.081C424.537 203.967 426.021 202.553 427.715 202.553C429.745 202.553 430.879 203.967 430.879 206.011C430.879 206.151 430.865 206.305 430.851 206.403H425.685V206.459C425.685 207.733 426.651 208.643 427.855 208.643C428.989 208.643 429.605 207.999 429.871 207.201ZM436.031 202.707V203.897C435.849 203.841 435.639 203.827 435.443 203.827C434.323 203.827 433.553 204.471 433.553 205.983V209.455H432.433V202.749H433.525V203.953C433.959 202.973 434.813 202.651 435.555 202.651C435.737 202.651 435.933 202.679 436.031 202.707ZM442.969 202.749L440.295 209.455H439.161L436.459 202.749H437.719L439.735 208.153L441.765 202.749H442.969ZM445.386 209.455H444.266V202.749H445.386V209.455ZM443.986 200.103C443.986 199.641 444.364 199.263 444.826 199.263C445.288 199.263 445.666 199.641 445.666 200.103C445.666 200.565 445.288 200.943 444.826 200.943C444.364 200.943 443.986 200.565 443.986 200.103ZM450.291 203.561C449.115 203.561 448.093 204.471 448.093 206.095C448.093 207.705 449.115 208.643 450.305 208.643C451.579 208.643 452.111 207.747 452.307 207.131L453.287 207.565C452.965 208.559 452.027 209.651 450.305 209.651C448.373 209.651 446.973 208.139 446.973 206.095C446.973 204.009 448.401 202.553 450.291 202.553C452.013 202.553 452.951 203.603 453.231 204.667L452.223 205.101C452.041 204.387 451.495 203.561 450.291 203.561ZM455.46 205.451H459.464C459.436 204.387 458.75 203.547 457.476 203.547C456.314 203.547 455.53 204.457 455.46 205.451ZM459.618 207.201L460.584 207.551C460.206 208.713 459.156 209.651 457.602 209.651C455.81 209.651 454.284 208.335 454.284 206.081C454.284 203.967 455.768 202.553 457.462 202.553C459.492 202.553 460.626 203.967 460.626 206.011C460.626 206.151 460.612 206.305 460.598 206.403H455.432V206.459C455.432 207.733 456.398 208.643 457.602 208.643C458.736 208.643 459.352 207.999 459.618 207.201Z" fill="white"/>
</g>
<g clip-path="url(#clip3_2148_13333)">
<rect x="472" y="140.955" width="57" height="115" rx="6" fill="#00BFD9"/>
<path d="M486.938 188.783L485.888 189.161C485.734 188.321 485.076 187.397 483.648 187.383C482.5 187.383 481.59 188.139 481.59 189.147C481.59 189.945 482.108 190.519 483.018 190.715L484.474 191.037C486.07 191.387 487.022 192.381 487.022 193.781C487.022 195.307 485.72 196.651 483.648 196.651C481.352 196.651 480.19 195.153 480.008 193.697L481.114 193.347C481.226 194.523 482.08 195.587 483.648 195.587C485.076 195.587 485.846 194.831 485.846 193.879C485.846 193.067 485.286 192.437 484.236 192.199L482.78 191.877C481.408 191.569 480.414 190.673 480.414 189.217C480.414 187.663 481.842 186.333 483.634 186.333C485.776 186.333 486.686 187.635 486.938 188.783ZM489.386 192.451H493.39C493.362 191.387 492.676 190.547 491.402 190.547C490.24 190.547 489.456 191.457 489.386 192.451ZM493.544 194.201L494.51 194.551C494.132 195.713 493.082 196.651 491.528 196.651C489.736 196.651 488.21 195.335 488.21 193.081C488.21 190.967 489.694 189.553 491.388 189.553C493.418 189.553 494.552 190.967 494.552 193.011C494.552 193.151 494.538 193.305 494.524 193.403H489.358V193.459C489.358 194.733 490.324 195.643 491.528 195.643C492.662 195.643 493.278 194.999 493.544 194.201ZM495.63 194.677C495.63 193.501 496.456 192.843 497.632 192.675L499.438 192.409C499.928 192.339 500.04 192.129 500.04 191.835C500.04 191.079 499.536 190.505 498.486 190.505C497.506 190.505 496.918 191.093 496.82 191.947L495.756 191.695C495.896 190.421 497.016 189.553 498.458 189.553C500.362 189.553 501.16 190.645 501.16 191.947V195.335C501.16 195.895 501.202 196.245 501.244 196.455H500.152C500.124 196.301 500.068 195.965 500.068 195.447C499.774 195.993 499.046 196.651 497.842 196.651C496.456 196.651 495.63 195.699 495.63 194.677ZM497.982 195.699C499.144 195.699 500.04 195.055 500.04 193.627V193.179L497.856 193.501C497.212 193.599 496.75 193.963 496.75 194.621C496.75 195.167 497.212 195.699 497.982 195.699ZM506.728 189.707V190.897C506.546 190.841 506.336 190.827 506.14 190.827C505.02 190.827 504.25 191.471 504.25 192.983V196.455H503.13V189.749H504.222V190.953C504.656 189.973 505.51 189.651 506.252 189.651C506.434 189.651 506.63 189.679 506.728 189.707ZM510.618 190.561C509.442 190.561 508.42 191.471 508.42 193.095C508.42 194.705 509.442 195.643 510.632 195.643C511.906 195.643 512.438 194.747 512.634 194.131L513.614 194.565C513.292 195.559 512.354 196.651 510.632 196.651C508.7 196.651 507.3 195.139 507.3 193.095C507.3 191.009 508.728 189.553 510.618 189.553C512.34 189.553 513.278 190.603 513.558 191.667L512.55 192.101C512.368 191.387 511.822 190.561 510.618 190.561ZM516.193 192.451V196.455H515.073V186.333H516.193V190.645C516.627 189.945 517.397 189.553 518.265 189.553C519.875 189.553 520.659 190.701 520.659 192.157V196.455H519.539V192.325C519.539 191.345 519.091 190.561 517.873 190.561C516.809 190.561 516.193 191.415 516.193 192.451ZM479.318 207.691L480.326 207.341C480.424 208.111 480.998 208.699 482.006 208.699C482.804 208.699 483.308 208.251 483.308 207.677C483.308 207.173 482.902 206.837 482.286 206.697L481.194 206.445C480.172 206.207 479.528 205.549 479.528 204.583C479.528 203.463 480.592 202.553 481.866 202.553C483.602 202.553 484.204 203.659 484.358 204.345L483.364 204.709C483.28 204.247 482.93 203.505 481.866 203.505C481.166 203.505 480.62 203.953 480.62 204.513C480.62 204.989 480.914 205.283 481.502 205.423L482.594 205.675C483.77 205.941 484.414 206.627 484.414 207.621C484.414 208.587 483.588 209.651 481.992 209.651C480.228 209.651 479.43 208.531 479.318 207.691ZM486.713 205.451H490.717C490.689 204.387 490.003 203.547 488.729 203.547C487.567 203.547 486.783 204.457 486.713 205.451ZM490.871 207.201L491.837 207.551C491.459 208.713 490.409 209.651 488.855 209.651C487.063 209.651 485.537 208.335 485.537 206.081C485.537 203.967 487.021 202.553 488.715 202.553C490.745 202.553 491.879 203.967 491.879 206.011C491.879 206.151 491.865 206.305 491.851 206.403H486.685V206.459C486.685 207.733 487.651 208.643 488.855 208.643C489.989 208.643 490.605 207.999 490.871 207.201ZM497.031 202.707V203.897C496.849 203.841 496.639 203.827 496.443 203.827C495.323 203.827 494.553 204.471 494.553 205.983V209.455H493.433V202.749H494.525V203.953C494.959 202.973 495.813 202.651 496.555 202.651C496.737 202.651 496.933 202.679 497.031 202.707ZM503.969 202.749L501.295 209.455H500.161L497.459 202.749H498.719L500.735 208.153L502.765 202.749H503.969ZM506.386 209.455H505.266V202.749H506.386V209.455ZM504.986 200.103C504.986 199.641 505.364 199.263 505.826 199.263C506.288 199.263 506.666 199.641 506.666 200.103C506.666 200.565 506.288 200.943 505.826 200.943C505.364 200.943 504.986 200.565 504.986 200.103ZM511.291 203.561C510.115 203.561 509.093 204.471 509.093 206.095C509.093 207.705 510.115 208.643 511.305 208.643C512.579 208.643 513.111 207.747 513.307 207.131L514.287 207.565C513.965 208.559 513.027 209.651 511.305 209.651C509.373 209.651 507.973 208.139 507.973 206.095C507.973 204.009 509.401 202.553 511.291 202.553C513.013 202.553 513.951 203.603 514.231 204.667L513.223 205.101C513.041 204.387 512.495 203.561 511.291 203.561ZM516.46 205.451H520.464C520.436 204.387 519.75 203.547 518.476 203.547C517.314 203.547 516.53 204.457 516.46 205.451ZM520.618 207.201L521.584 207.551C521.206 208.713 520.156 209.651 518.602 209.651C516.81 209.651 515.284 208.335 515.284 206.081C515.284 203.967 516.768 202.553 518.462 202.553C520.492 202.553 521.626 203.967 521.626 206.011C521.626 206.151 521.612 206.305 521.598 206.403H516.432V206.459C516.432 207.733 517.398 208.643 518.602 208.643C519.736 208.643 520.352 207.999 520.618 207.201Z" fill="white"/>
</g>
<path d="M562.047 158.652L544.573 168.741L544.573 148.563L562.047 158.652Z" fill="#93A7BE"/>
<path d="M642.18 49.9546H640.836V40.7226L636.724 49.9546H635.492L631.412 40.7226V49.9546H630.068V38.6106H631.908L636.116 48.1626L640.356 38.6106H642.18V49.9546ZM645.958 49.9546H644.678V42.2906H645.958V49.9546ZM644.358 39.2666C644.358 38.7386 644.79 38.3066 645.318 38.3066C645.846 38.3066 646.278 38.7386 646.278 39.2666C646.278 39.7946 645.846 40.2266 645.318 40.2266C644.79 40.2266 644.358 39.7946 644.358 39.2666ZM651.403 43.2186C650.059 43.2186 648.891 44.2586 648.891 46.1146C648.891 47.9546 650.059 49.0266 651.419 49.0266C652.875 49.0266 653.483 48.0026 653.707 47.2986L654.827 47.7946C654.459 48.9306 653.387 50.1786 651.419 50.1786C649.211 50.1786 647.611 48.4506 647.611 46.1146C647.611 43.7306 649.243 42.0666 651.403 42.0666C653.371 42.0666 654.443 43.2666 654.763 44.4826L653.611 44.9786C653.403 44.1626 652.779 43.2186 651.403 43.2186ZM660.447 42.2426V43.6026C660.239 43.5386 659.999 43.5226 659.775 43.5226C658.495 43.5226 657.615 44.2586 657.615 45.9866V49.9546H656.335V42.2906H657.583V43.6666C658.079 42.5466 659.055 42.1786 659.903 42.1786C660.111 42.1786 660.335 42.2106 660.447 42.2426ZM664.78 42.0666C666.988 42.0666 668.62 43.7626 668.62 46.1146C668.62 48.4826 666.988 50.1786 664.78 50.1786C662.572 50.1786 660.94 48.4826 660.94 46.1146C660.94 43.7626 662.572 42.0666 664.78 42.0666ZM664.78 43.2186C663.404 43.2186 662.22 44.2586 662.22 46.1146C662.22 47.9866 663.404 49.0266 664.78 49.0266C666.156 49.0266 667.34 47.9866 667.34 46.1146C667.34 44.2586 666.156 43.2186 664.78 43.2186ZM674.385 45.9226H670.113V44.8026H674.385V45.9226ZM679.981 43.4426H677.997V49.9546H676.717V43.4426H675.213V42.2906H676.717V40.8666C676.717 39.1866 677.773 38.3066 679.133 38.3066C679.597 38.3066 679.901 38.4026 680.013 38.4666V39.5706C679.901 39.5226 679.693 39.4586 679.325 39.4586C678.701 39.4586 677.997 39.7946 677.997 40.8986V42.2906H679.981V43.4426ZM685.339 42.2426V43.6026C685.131 43.5386 684.891 43.5226 684.667 43.5226C683.387 43.5226 682.507 44.2586 682.507 45.9866V49.9546H681.227V42.2906H682.475V43.6666C682.971 42.5466 683.947 42.1786 684.795 42.1786C685.003 42.1786 685.227 42.2106 685.339 42.2426ZM689.672 42.0666C691.88 42.0666 693.512 43.7626 693.512 46.1146C693.512 48.4826 691.88 50.1786 689.672 50.1786C687.464 50.1786 685.832 48.4826 685.832 46.1146C685.832 43.7626 687.464 42.0666 689.672 42.0666ZM689.672 43.2186C688.296 43.2186 687.112 44.2586 687.112 46.1146C687.112 47.9866 688.296 49.0266 689.672 49.0266C691.048 49.0266 692.232 47.9866 692.232 46.1146C692.232 44.2586 691.048 43.2186 689.672 43.2186ZM696.445 45.4426V49.9546H695.165V42.2906H696.413V43.4426C696.909 42.5466 697.805 42.0666 698.813 42.0666C700.653 42.0666 701.549 43.3786 701.549 45.0426V49.9546H700.269V45.2346C700.269 44.1146 699.757 43.2186 698.365 43.2186C697.133 43.2186 696.445 44.2426 696.445 45.4426ZM705.404 39.8586V42.2906H707.212V43.4426H705.404V47.6826C705.404 48.4826 705.756 48.8826 706.572 48.8826C706.796 48.8826 707.084 48.8346 707.212 48.8026V49.8906C707.068 49.9386 706.7 50.0346 706.204 50.0346C704.94 50.0346 704.124 49.2506 704.124 47.8586V43.4426H702.588V42.2906H703.084C703.868 42.2906 704.204 41.8426 704.204 41.1226V39.8586H705.404ZM709.466 45.3786H714.042C714.01 44.1626 713.226 43.2026 711.77 43.2026C710.442 43.2026 709.546 44.2426 709.466 45.3786ZM714.218 47.3786L715.322 47.7786C714.89 49.1066 713.69 50.1786 711.914 50.1786C709.866 50.1786 708.122 48.6746 708.122 46.0986C708.122 43.6826 709.818 42.0666 711.754 42.0666C714.074 42.0666 715.37 43.6826 715.37 46.0186C715.37 46.1786 715.354 46.3546 715.338 46.4666H709.434V46.5306C709.434 47.9866 710.538 49.0266 711.914 49.0266C713.21 49.0266 713.914 48.2906 714.218 47.3786ZM718.266 45.4426V49.9546H716.986V42.2906H718.234V43.4426C718.73 42.5466 719.626 42.0666 720.634 42.0666C722.474 42.0666 723.37 43.3786 723.37 45.0426V49.9546H722.09V45.2346C722.09 44.1146 721.578 43.2186 720.186 43.2186C718.954 43.2186 718.266 44.2426 718.266 45.4426ZM730.999 48.8506V48.6426C730.647 49.3946 729.815 50.1786 728.487 50.1786C726.279 50.1786 724.935 48.3866 724.935 46.1146C724.935 43.8906 726.343 42.0666 728.487 42.0666C729.959 42.0666 730.711 42.8826 730.967 43.5226V38.3866H732.247V48.5146C732.247 49.2826 732.295 49.7946 732.327 49.9546H731.079C731.047 49.7786 730.999 49.3466 730.999 48.8506ZM728.599 49.0266C730.039 49.0266 730.999 47.8106 730.999 46.1146C730.999 44.4186 730.055 43.2186 728.599 43.2186C727.143 43.2186 726.215 44.4186 726.215 46.1146C726.215 47.8106 727.159 49.0266 728.599 49.0266ZM733.8 47.9386L734.952 47.5386C735.064 48.4186 735.72 49.0906 736.872 49.0906C737.784 49.0906 738.36 48.5786 738.36 47.9226C738.36 47.3466 737.896 46.9626 737.192 46.8026L735.944 46.5146C734.776 46.2426 734.04 45.4906 734.04 44.3866C734.04 43.1066 735.256 42.0666 736.712 42.0666C738.696 42.0666 739.384 43.3306 739.56 44.1146L738.424 44.5306C738.328 44.0026 737.928 43.1546 736.712 43.1546C735.912 43.1546 735.288 43.6666 735.288 44.3066C735.288 44.8506 735.624 45.1866 736.296 45.3466L737.544 45.6346C738.888 45.9386 739.624 46.7226 739.624 47.8586C739.624 48.9626 738.68 50.1786 736.856 50.1786C734.84 50.1786 733.928 48.8986 733.8 47.9386Z" fill="#93A7BE"/>
<rect x="571" y="64.9546" width="227" height="196" rx="7" stroke="#93A7BE" stroke-width="2"/>
<rect x="577.5" y="71.9546" width="69" height="64" rx="6" fill="#EE9511"/>
<path d="M598.192 102.179C595.888 102.179 594.176 100.755 594.176 98.1146V90.6106H595.52V98.0826C595.52 99.9066 596.48 100.947 598.192 100.947C599.904 100.947 600.864 99.9066 600.864 98.0826V90.6106H602.208V98.1146C602.208 100.755 600.496 102.179 598.192 102.179ZM603.903 99.9386L605.055 99.5386C605.167 100.419 605.823 101.091 606.975 101.091C607.887 101.091 608.463 100.579 608.463 99.9226C608.463 99.3466 607.999 98.9626 607.295 98.8026L606.047 98.5146C604.879 98.2426 604.143 97.4906 604.143 96.3866C604.143 95.1066 605.359 94.0666 606.815 94.0666C608.799 94.0666 609.487 95.3306 609.663 96.1146L608.527 96.5306C608.431 96.0026 608.031 95.1546 606.815 95.1546C606.015 95.1546 605.391 95.6666 605.391 96.3066C605.391 96.8506 605.727 97.1866 606.399 97.3466L607.647 97.6346C608.991 97.9386 609.727 98.7226 609.727 99.8586C609.727 100.963 608.783 102.179 606.959 102.179C604.943 102.179 604.031 100.899 603.903 99.9386ZM612.355 97.3786H616.931C616.899 96.1626 616.115 95.2026 614.659 95.2026C613.331 95.2026 612.435 96.2426 612.355 97.3786ZM617.107 99.3786L618.211 99.7786C617.779 101.107 616.579 102.179 614.803 102.179C612.755 102.179 611.011 100.675 611.011 98.0986C611.011 95.6826 612.707 94.0666 614.643 94.0666C616.963 94.0666 618.259 95.6826 618.259 98.0186C618.259 98.1786 618.243 98.3546 618.227 98.4666H612.323V98.5306C612.323 99.9866 613.427 101.027 614.803 101.027C616.099 101.027 616.803 100.291 617.107 99.3786ZM624.147 94.2426V95.6026C623.939 95.5386 623.699 95.5226 623.475 95.5226C622.195 95.5226 621.315 96.2586 621.315 97.9866V101.955H620.035V94.2906H621.283V95.6666C621.779 94.5466 622.755 94.1786 623.603 94.1786C623.811 94.1786 624.035 94.2106 624.147 94.2426ZM624.876 99.9386L626.028 99.5386C626.14 100.419 626.796 101.091 627.948 101.091C628.86 101.091 629.436 100.579 629.436 99.9226C629.436 99.3466 628.972 98.9626 628.268 98.8026L627.02 98.5146C625.852 98.2426 625.116 97.4906 625.116 96.3866C625.116 95.1066 626.332 94.0666 627.788 94.0666C629.772 94.0666 630.46 95.3306 630.636 96.1146L629.5 96.5306C629.404 96.0026 629.004 95.1546 627.788 95.1546C626.988 95.1546 626.364 95.6666 626.364 96.3066C626.364 96.8506 626.7 97.1866 627.372 97.3466L628.62 97.6346C629.964 97.9386 630.7 98.7226 630.7 99.8586C630.7 100.963 629.756 102.179 627.932 102.179C625.916 102.179 625.004 100.899 624.876 99.9386ZM609.02 117.955H607.676V108.723L603.564 117.955H602.332L598.252 108.723V117.955H596.908V106.611H598.748L602.956 116.163L607.196 106.611H609.02V117.955ZM613.342 117.955H611.998V106.611H618.814V107.843H613.342V111.827H618.318V113.059H613.342V117.955ZM627.778 117.955H620.978V106.611H627.778V107.843H622.322V111.667H627.282V112.899H622.322V116.723H627.778V117.955Z" fill="white"/>
<rect x="650.5" y="71.9546" width="69" height="64" rx="6" fill="#24C068"/>
<path d="M657.534 96.0506H659.934C661.39 96.0506 662.286 95.2026 662.286 93.9546C662.286 92.6586 661.39 91.8106 659.934 91.8106H657.534V96.0506ZM660.142 97.2506H657.534V101.955H656.19V90.6106H660.142C662.238 90.6106 663.63 92.0506 663.63 93.9386C663.63 95.8426 662.238 97.2506 660.142 97.2506ZM664.323 99.9226C664.323 98.5786 665.267 97.8266 666.611 97.6346L668.675 97.3306C669.235 97.2506 669.363 97.0106 669.363 96.6746C669.363 95.8106 668.787 95.1546 667.587 95.1546C666.467 95.1546 665.795 95.8266 665.683 96.8026L664.467 96.5146C664.627 95.0586 665.907 94.0666 667.555 94.0666C669.731 94.0666 670.643 95.3146 670.643 96.8026V100.675C670.643 101.315 670.691 101.715 670.739 101.955H669.491C669.459 101.779 669.395 101.395 669.395 100.803C669.059 101.427 668.227 102.179 666.851 102.179C665.267 102.179 664.323 101.091 664.323 99.9226ZM667.011 101.091C668.339 101.091 669.363 100.355 669.363 98.7226V98.2106L666.867 98.5786C666.131 98.6906 665.603 99.1066 665.603 99.8586C665.603 100.483 666.131 101.091 667.011 101.091ZM674.643 104.995H673.219L675.075 101.043L671.779 94.2906H673.251L675.779 99.7146L678.163 94.2906H679.555L674.643 104.995ZM682.154 94.2906V95.3786C682.586 94.5786 683.514 94.0666 684.506 94.0666C685.562 94.0666 686.474 94.6266 686.858 95.6346C687.402 94.5466 688.362 94.0666 689.45 94.0666C690.842 94.0666 692.09 95.0266 692.09 96.9466V101.955H690.81V97.0906C690.81 96.0346 690.25 95.2186 689.05 95.2186C687.914 95.2186 687.146 96.1466 687.146 97.2986V101.955H685.866V97.0906C685.866 96.0346 685.306 95.2186 684.09 95.2186C682.938 95.2186 682.186 96.1146 682.186 97.3146V101.955H680.906V94.2906H682.154ZM695.14 97.3786H699.716C699.684 96.1626 698.9 95.2026 697.444 95.2026C696.116 95.2026 695.22 96.2426 695.14 97.3786ZM699.892 99.3786L700.996 99.7786C700.564 101.107 699.364 102.179 697.588 102.179C695.54 102.179 693.796 100.675 693.796 98.0986C693.796 95.6826 695.492 94.0666 697.428 94.0666C699.748 94.0666 701.044 95.6826 701.044 98.0186C701.044 98.1786 701.028 98.3546 701.012 98.4666H695.108V98.5306C695.108 99.9866 696.212 101.027 697.588 101.027C698.884 101.027 699.588 100.291 699.892 99.3786ZM704.101 97.4426V101.955H702.821V94.2906H704.069V95.4426C704.565 94.5466 705.461 94.0666 706.469 94.0666C708.309 94.0666 709.205 95.3786 709.205 97.0426V101.955H707.925V97.2346C707.925 96.1146 707.413 95.2186 706.021 95.2186C704.789 95.2186 704.101 96.2426 704.101 97.4426ZM713.22 91.8586V94.2906H715.028V95.4426H713.22V99.6826C713.22 100.483 713.572 100.883 714.388 100.883C714.612 100.883 714.9 100.835 715.028 100.803V101.891C714.884 101.939 714.516 102.035 714.02 102.035C712.756 102.035 711.94 101.251 711.94 99.8586V95.4426H710.404V94.2906H710.9C711.684 94.2906 712.02 93.8426 712.02 93.1226V91.8586H713.22ZM682.02 117.955H680.676V108.723L676.564 117.955H675.332L671.252 108.723V117.955H669.908V106.611H671.748L675.956 116.163L680.196 106.611H682.02V117.955ZM686.342 117.955H684.998V106.611H691.814V107.843H686.342V111.827H691.318V113.059H686.342V117.955ZM700.778 117.955H693.978V106.611H700.778V107.843H695.322V111.667H700.282V112.899H695.322V116.723H700.778V117.955Z" fill="white"/>
<rect x="723.5" y="71.9546" width="69" height="64" rx="6" fill="#00BFD9"/>
<path d="M742.5 93.1866L741.3 93.6186C741.124 92.6586 740.372 91.6026 738.74 91.5866C737.428 91.5866 736.388 92.4506 736.388 93.6026C736.388 94.5146 736.98 95.1706 738.02 95.3946L739.684 95.7626C741.508 96.1626 742.596 97.2986 742.596 98.8986C742.596 100.643 741.108 102.179 738.74 102.179C736.116 102.179 734.788 100.467 734.58 98.8026L735.844 98.4026C735.972 99.7466 736.948 100.963 738.74 100.963C740.372 100.963 741.252 100.099 741.252 99.0106C741.252 98.0826 740.612 97.3626 739.412 97.0906L737.748 96.7226C736.18 96.3706 735.044 95.3466 735.044 93.6826C735.044 91.9066 736.676 90.3866 738.724 90.3866C741.172 90.3866 742.212 91.8746 742.5 93.1866ZM745.298 97.3786H749.874C749.842 96.1626 749.058 95.2026 747.602 95.2026C746.274 95.2026 745.378 96.2426 745.298 97.3786ZM750.05 99.3786L751.154 99.7786C750.722 101.107 749.522 102.179 747.746 102.179C745.698 102.179 743.954 100.675 743.954 98.0986C743.954 95.6826 745.65 94.0666 747.586 94.0666C749.906 94.0666 751.202 95.6826 751.202 98.0186C751.202 98.1786 751.186 98.3546 751.17 98.4666H745.266V98.5306C745.266 99.9866 746.37 101.027 747.746 101.027C749.042 101.027 749.746 100.291 750.05 99.3786ZM752.434 99.9226C752.434 98.5786 753.378 97.8266 754.722 97.6346L756.786 97.3306C757.346 97.2506 757.474 97.0106 757.474 96.6746C757.474 95.8106 756.898 95.1546 755.698 95.1546C754.578 95.1546 753.906 95.8266 753.794 96.8026L752.578 96.5146C752.738 95.0586 754.018 94.0666 755.666 94.0666C757.842 94.0666 758.754 95.3146 758.754 96.8026V100.675C758.754 101.315 758.802 101.715 758.85 101.955H757.602C757.57 101.779 757.506 101.395 757.506 100.803C757.17 101.427 756.338 102.179 754.962 102.179C753.378 102.179 752.434 101.091 752.434 99.9226ZM755.122 101.091C756.45 101.091 757.474 100.355 757.474 98.7226V98.2106L754.978 98.5786C754.242 98.6906 753.714 99.1066 753.714 99.8586C753.714 100.483 754.242 101.091 755.122 101.091ZM765.118 94.2426V95.6026C764.91 95.5386 764.67 95.5226 764.446 95.5226C763.166 95.5226 762.286 96.2586 762.286 97.9866V101.955H761.006V94.2906H762.254V95.6666C762.75 94.5466 763.726 94.1786 764.574 94.1786C764.782 94.1786 765.006 94.2106 765.118 94.2426ZM769.563 95.2186C768.219 95.2186 767.051 96.2586 767.051 98.1146C767.051 99.9546 768.219 101.027 769.579 101.027C771.035 101.027 771.643 100.003 771.867 99.2986L772.987 99.7946C772.619 100.931 771.547 102.179 769.579 102.179C767.371 102.179 765.771 100.451 765.771 98.1146C765.771 95.7306 767.403 94.0666 769.563 94.0666C771.531 94.0666 772.603 95.2666 772.923 96.4826L771.771 96.9786C771.563 96.1626 770.939 95.2186 769.563 95.2186ZM775.935 97.3786V101.955H774.655V90.3866H775.935V95.3146C776.431 94.5146 777.311 94.0666 778.303 94.0666C780.143 94.0666 781.039 95.3786 781.039 97.0426V101.955H779.759V97.2346C779.759 96.1146 779.247 95.2186 777.855 95.2186C776.639 95.2186 775.935 96.1946 775.935 97.3786ZM755.02 117.955H753.676V108.723L749.564 117.955H748.332L744.252 108.723V117.955H742.908V106.611H744.748L748.956 116.163L753.196 106.611H755.02V117.955ZM759.342 117.955H757.998V106.611H764.814V107.843H759.342V111.827H764.318V113.059H759.342V117.955ZM773.778 117.955H766.978V106.611H773.778V107.843H768.322V111.667H773.282V112.899H768.322V116.723H773.778V117.955Z" fill="white"/>
<rect x="577" y="139.955" width="69" height="116" rx="6" fill="#EE9511"/>
<path d="M597.692 197.179C595.388 197.179 593.676 195.755 593.676 193.115V185.611H595.02V193.083C595.02 194.907 595.98 195.947 597.692 195.947C599.404 195.947 600.364 194.907 600.364 193.083V185.611H601.708V193.115C601.708 195.755 599.996 197.179 597.692 197.179ZM603.403 194.939L604.555 194.539C604.667 195.419 605.323 196.091 606.475 196.091C607.387 196.091 607.963 195.579 607.963 194.923C607.963 194.347 607.499 193.963 606.795 193.803L605.547 193.515C604.379 193.243 603.643 192.491 603.643 191.387C603.643 190.107 604.859 189.067 606.315 189.067C608.299 189.067 608.987 190.331 609.163 191.115L608.027 191.531C607.931 191.003 607.531 190.155 606.315 190.155C605.515 190.155 604.891 190.667 604.891 191.307C604.891 191.851 605.227 192.187 605.899 192.347L607.147 192.635C608.491 192.939 609.227 193.723 609.227 194.859C609.227 195.963 608.283 197.179 606.459 197.179C604.443 197.179 603.531 195.899 603.403 194.939ZM611.855 192.379H616.431C616.399 191.163 615.615 190.203 614.159 190.203C612.831 190.203 611.935 191.243 611.855 192.379ZM616.607 194.379L617.711 194.779C617.279 196.107 616.079 197.179 614.303 197.179C612.255 197.179 610.511 195.675 610.511 193.099C610.511 190.683 612.207 189.067 614.143 189.067C616.463 189.067 617.759 190.683 617.759 193.019C617.759 193.179 617.743 193.355 617.727 193.467H611.823V193.531C611.823 194.987 612.927 196.027 614.303 196.027C615.599 196.027 616.303 195.291 616.607 194.379ZM623.647 189.243V190.603C623.439 190.539 623.199 190.523 622.975 190.523C621.695 190.523 620.815 191.259 620.815 192.987V196.955H619.535V189.291H620.783V190.667C621.279 189.547 622.255 189.179 623.103 189.179C623.311 189.179 623.535 189.211 623.647 189.243ZM624.376 194.939L625.528 194.539C625.64 195.419 626.296 196.091 627.448 196.091C628.36 196.091 628.936 195.579 628.936 194.923C628.936 194.347 628.472 193.963 627.768 193.803L626.52 193.515C625.352 193.243 624.616 192.491 624.616 191.387C624.616 190.107 625.832 189.067 627.288 189.067C629.272 189.067 629.96 190.331 630.136 191.115L629 191.531C628.904 191.003 628.504 190.155 627.288 190.155C626.488 190.155 625.864 190.667 625.864 191.307C625.864 191.851 626.2 192.187 626.872 192.347L628.12 192.635C629.464 192.939 630.2 193.723 630.2 194.859C630.2 195.963 629.256 197.179 627.432 197.179C625.416 197.179 624.504 195.899 624.376 194.939ZM587.291 208.939L588.443 208.539C588.555 209.419 589.211 210.091 590.363 210.091C591.275 210.091 591.851 209.579 591.851 208.923C591.851 208.347 591.387 207.963 590.683 207.803L589.435 207.515C588.267 207.243 587.531 206.491 587.531 205.387C587.531 204.107 588.747 203.067 590.203 203.067C592.188 203.067 592.875 204.331 593.051 205.115L591.915 205.531C591.819 205.003 591.419 204.155 590.203 204.155C589.403 204.155 588.779 204.667 588.779 205.307C588.779 205.851 589.115 206.187 589.787 206.347L591.035 206.635C592.379 206.939 593.115 207.723 593.115 208.859C593.115 209.963 592.171 211.179 590.347 211.179C588.331 211.179 587.419 209.899 587.291 208.939ZM595.743 206.379H600.319C600.287 205.163 599.503 204.203 598.047 204.203C596.719 204.203 595.823 205.243 595.743 206.379ZM600.495 208.379L601.599 208.779C601.167 210.107 599.967 211.179 598.191 211.179C596.143 211.179 594.399 209.675 594.399 207.099C594.399 204.683 596.095 203.067 598.031 203.067C600.351 203.067 601.647 204.683 601.647 207.019C601.647 207.179 601.631 207.355 601.615 207.467H595.711V207.531C595.711 208.987 596.815 210.027 598.191 210.027C599.487 210.027 600.191 209.291 600.495 208.379ZM607.536 203.243V204.603C607.328 204.539 607.088 204.523 606.864 204.523C605.584 204.523 604.704 205.259 604.704 206.987V210.955H603.424V203.291H604.672V204.667C605.168 203.547 606.144 203.179 606.992 203.179C607.2 203.179 607.424 203.211 607.536 203.243ZM615.465 203.291L612.409 210.955H611.113L608.025 203.291H609.465L611.769 209.467L614.089 203.291H615.465ZM618.227 210.955H616.947V203.291H618.227V210.955ZM616.627 200.267C616.627 199.739 617.059 199.307 617.587 199.307C618.115 199.307 618.547 199.739 618.547 200.267C618.547 200.795 618.115 201.227 617.587 201.227C617.059 201.227 616.627 200.795 616.627 200.267ZM623.833 204.219C622.489 204.219 621.321 205.259 621.321 207.115C621.321 208.955 622.489 210.027 623.849 210.027C625.305 210.027 625.913 209.003 626.137 208.299L627.257 208.795C626.889 209.931 625.817 211.179 623.849 211.179C621.641 211.179 620.041 209.451 620.041 207.115C620.041 204.731 621.673 203.067 623.833 203.067C625.801 203.067 626.873 204.267 627.193 205.483L626.041 205.979C625.833 205.163 625.209 204.219 623.833 204.219ZM629.74 206.379H634.316C634.284 205.163 633.5 204.203 632.044 204.203C630.716 204.203 629.82 205.243 629.74 206.379ZM634.492 208.379L635.596 208.779C635.164 210.107 633.964 211.179 632.188 211.179C630.14 211.179 628.396 209.675 628.396 207.099C628.396 204.683 630.092 203.067 632.028 203.067C634.348 203.067 635.644 204.683 635.644 207.019C635.644 207.179 635.628 207.355 635.612 207.467H629.708V207.531C629.708 208.987 630.812 210.027 632.188 210.027C633.484 210.027 634.188 209.291 634.492 208.379Z" fill="white"/>
<rect x="650" y="139.955" width="69" height="116" rx="6" fill="#24C068"/>
<path d="M657.034 191.051H659.434C660.89 191.051 661.786 190.203 661.786 188.955C661.786 187.659 660.89 186.811 659.434 186.811H657.034V191.051ZM659.642 192.251H657.034V196.955H655.69V185.611H659.642C661.738 185.611 663.13 187.051 663.13 188.939C663.13 190.843 661.738 192.251 659.642 192.251ZM663.823 194.923C663.823 193.579 664.767 192.827 666.111 192.635L668.175 192.331C668.735 192.251 668.863 192.011 668.863 191.675C668.863 190.811 668.287 190.155 667.087 190.155C665.967 190.155 665.295 190.827 665.183 191.803L663.967 191.515C664.127 190.059 665.407 189.067 667.055 189.067C669.231 189.067 670.143 190.315 670.143 191.803V195.675C670.143 196.315 670.191 196.715 670.239 196.955H668.991C668.959 196.779 668.895 196.395 668.895 195.803C668.559 196.427 667.727 197.179 666.351 197.179C664.767 197.179 663.823 196.091 663.823 194.923ZM666.511 196.091C667.839 196.091 668.863 195.355 668.863 193.723V193.211L666.367 193.579C665.631 193.691 665.103 194.107 665.103 194.859C665.103 195.483 665.631 196.091 666.511 196.091ZM674.143 199.995H672.719L674.575 196.043L671.279 189.291H672.751L675.279 194.715L677.663 189.291H679.055L674.143 199.995ZM681.654 189.291V190.379C682.086 189.579 683.014 189.067 684.006 189.067C685.062 189.067 685.974 189.627 686.358 190.635C686.902 189.547 687.862 189.067 688.95 189.067C690.342 189.067 691.59 190.027 691.59 191.947V196.955H690.31V192.091C690.31 191.035 689.75 190.219 688.55 190.219C687.414 190.219 686.646 191.147 686.646 192.299V196.955H685.366V192.091C685.366 191.035 684.806 190.219 683.59 190.219C682.438 190.219 681.686 191.115 681.686 192.315V196.955H680.406V189.291H681.654ZM694.64 192.379H699.216C699.184 191.163 698.4 190.203 696.944 190.203C695.616 190.203 694.72 191.243 694.64 192.379ZM699.392 194.379L700.496 194.779C700.064 196.107 698.864 197.179 697.088 197.179C695.04 197.179 693.296 195.675 693.296 193.099C693.296 190.683 694.992 189.067 696.928 189.067C699.248 189.067 700.544 190.683 700.544 193.019C700.544 193.179 700.528 193.355 700.512 193.467H694.608V193.531C694.608 194.987 695.712 196.027 697.088 196.027C698.384 196.027 699.088 195.291 699.392 194.379ZM703.601 192.443V196.955H702.321V189.291H703.569V190.443C704.065 189.547 704.961 189.067 705.969 189.067C707.809 189.067 708.705 190.379 708.705 192.043V196.955H707.425V192.235C707.425 191.115 706.913 190.219 705.521 190.219C704.289 190.219 703.601 191.243 703.601 192.443ZM712.72 186.859V189.291H714.528V190.443H712.72V194.683C712.72 195.483 713.072 195.883 713.888 195.883C714.112 195.883 714.4 195.835 714.528 195.803V196.891C714.384 196.939 714.016 197.035 713.52 197.035C712.256 197.035 711.44 196.251 711.44 194.859V190.443H709.904V189.291H710.4C711.184 189.291 711.52 188.843 711.52 188.123V186.859H712.72ZM660.291 208.939L661.443 208.539C661.555 209.419 662.211 210.091 663.363 210.091C664.275 210.091 664.851 209.579 664.851 208.923C664.851 208.347 664.387 207.963 663.683 207.803L662.435 207.515C661.267 207.243 660.531 206.491 660.531 205.387C660.531 204.107 661.747 203.067 663.203 203.067C665.188 203.067 665.875 204.331 666.051 205.115L664.915 205.531C664.819 205.003 664.419 204.155 663.203 204.155C662.403 204.155 661.779 204.667 661.779 205.307C661.779 205.851 662.115 206.187 662.787 206.347L664.035 206.635C665.379 206.939 666.115 207.723 666.115 208.859C666.115 209.963 665.171 211.179 663.347 211.179C661.331 211.179 660.419 209.899 660.291 208.939ZM668.743 206.379H673.319C673.287 205.163 672.503 204.203 671.047 204.203C669.719 204.203 668.823 205.243 668.743 206.379ZM673.495 208.379L674.599 208.779C674.167 210.107 672.967 211.179 671.191 211.179C669.143 211.179 667.399 209.675 667.399 207.099C667.399 204.683 669.095 203.067 671.031 203.067C673.351 203.067 674.647 204.683 674.647 207.019C674.647 207.179 674.631 207.355 674.615 207.467H668.711V207.531C668.711 208.987 669.815 210.027 671.191 210.027C672.487 210.027 673.191 209.291 673.495 208.379ZM680.536 203.243V204.603C680.328 204.539 680.088 204.523 679.864 204.523C678.584 204.523 677.704 205.259 677.704 206.987V210.955H676.424V203.291H677.672V204.667C678.168 203.547 679.144 203.179 679.992 203.179C680.2 203.179 680.424 203.211 680.536 203.243ZM688.465 203.291L685.409 210.955H684.113L681.025 203.291H682.465L684.769 209.467L687.089 203.291H688.465ZM691.227 210.955H689.947V203.291H691.227V210.955ZM689.627 200.267C689.627 199.739 690.059 199.307 690.587 199.307C691.115 199.307 691.547 199.739 691.547 200.267C691.547 200.795 691.115 201.227 690.587 201.227C690.059 201.227 689.627 200.795 689.627 200.267ZM696.833 204.219C695.489 204.219 694.321 205.259 694.321 207.115C694.321 208.955 695.489 210.027 696.849 210.027C698.305 210.027 698.913 209.003 699.137 208.299L700.257 208.795C699.889 209.931 698.817 211.179 696.849 211.179C694.641 211.179 693.041 209.451 693.041 207.115C693.041 204.731 694.673 203.067 696.833 203.067C698.801 203.067 699.873 204.267 700.193 205.483L699.041 205.979C698.833 205.163 698.209 204.219 696.833 204.219ZM702.74 206.379H707.316C707.284 205.163 706.5 204.203 705.044 204.203C703.716 204.203 702.82 205.243 702.74 206.379ZM707.492 208.379L708.596 208.779C708.164 210.107 706.964 211.179 705.188 211.179C703.14 211.179 701.396 209.675 701.396 207.099C701.396 204.683 703.092 203.067 705.028 203.067C707.348 203.067 708.644 204.683 708.644 207.019C708.644 207.179 708.628 207.355 708.612 207.467H702.708V207.531C702.708 208.987 703.812 210.027 705.188 210.027C706.484 210.027 707.188 209.291 707.492 208.379Z" fill="white"/>
<rect x="723" y="139.955" width="69" height="116" rx="6" fill="#00BFD9"/>
<path d="M742 188.187L740.8 188.619C740.624 187.659 739.872 186.603 738.24 186.587C736.928 186.587 735.888 187.451 735.888 188.603C735.888 189.515 736.48 190.171 737.52 190.395L739.184 190.763C741.008 191.163 742.096 192.299 742.096 193.899C742.096 195.643 740.608 197.179 738.24 197.179C735.616 197.179 734.288 195.467 734.08 193.803L735.344 193.403C735.472 194.747 736.448 195.963 738.24 195.963C739.872 195.963 740.752 195.099 740.752 194.011C740.752 193.083 740.112 192.363 738.912 192.091L737.248 191.723C735.68 191.371 734.544 190.347 734.544 188.683C734.544 186.907 736.176 185.387 738.224 185.387C740.672 185.387 741.712 186.875 742 188.187ZM744.798 192.379H749.374C749.342 191.163 748.558 190.203 747.102 190.203C745.774 190.203 744.878 191.243 744.798 192.379ZM749.55 194.379L750.654 194.779C750.222 196.107 749.022 197.179 747.246 197.179C745.198 197.179 743.454 195.675 743.454 193.099C743.454 190.683 745.15 189.067 747.086 189.067C749.406 189.067 750.702 190.683 750.702 193.019C750.702 193.179 750.686 193.355 750.67 193.467H744.766V193.531C744.766 194.987 745.87 196.027 747.246 196.027C748.542 196.027 749.246 195.291 749.55 194.379ZM751.934 194.923C751.934 193.579 752.878 192.827 754.222 192.635L756.286 192.331C756.846 192.251 756.974 192.011 756.974 191.675C756.974 190.811 756.398 190.155 755.198 190.155C754.078 190.155 753.406 190.827 753.294 191.803L752.078 191.515C752.238 190.059 753.518 189.067 755.166 189.067C757.342 189.067 758.254 190.315 758.254 191.803V195.675C758.254 196.315 758.302 196.715 758.35 196.955H757.102C757.07 196.779 757.006 196.395 757.006 195.803C756.67 196.427 755.838 197.179 754.462 197.179C752.878 197.179 751.934 196.091 751.934 194.923ZM754.622 196.091C755.95 196.091 756.974 195.355 756.974 193.723V193.211L754.478 193.579C753.742 193.691 753.214 194.107 753.214 194.859C753.214 195.483 753.742 196.091 754.622 196.091ZM764.618 189.243V190.603C764.41 190.539 764.17 190.523 763.946 190.523C762.666 190.523 761.786 191.259 761.786 192.987V196.955H760.506V189.291H761.754V190.667C762.25 189.547 763.226 189.179 764.074 189.179C764.282 189.179 764.506 189.211 764.618 189.243ZM769.063 190.219C767.719 190.219 766.551 191.259 766.551 193.115C766.551 194.955 767.719 196.027 769.079 196.027C770.535 196.027 771.143 195.003 771.367 194.299L772.487 194.795C772.119 195.931 771.047 197.179 769.079 197.179C766.871 197.179 765.271 195.451 765.271 193.115C765.271 190.731 766.903 189.067 769.063 189.067C771.031 189.067 772.103 190.267 772.423 191.483L771.271 191.979C771.063 191.163 770.439 190.219 769.063 190.219ZM775.435 192.379V196.955H774.155V185.387H775.435V190.315C775.931 189.515 776.811 189.067 777.803 189.067C779.643 189.067 780.539 190.379 780.539 192.043V196.955H779.259V192.235C779.259 191.115 778.747 190.219 777.355 190.219C776.139 190.219 775.435 191.195 775.435 192.379ZM733.291 208.939L734.443 208.539C734.555 209.419 735.211 210.091 736.363 210.091C737.275 210.091 737.851 209.579 737.851 208.923C737.851 208.347 737.387 207.963 736.683 207.803L735.435 207.515C734.267 207.243 733.531 206.491 733.531 205.387C733.531 204.107 734.747 203.067 736.203 203.067C738.188 203.067 738.875 204.331 739.051 205.115L737.915 205.531C737.819 205.003 737.419 204.155 736.203 204.155C735.403 204.155 734.779 204.667 734.779 205.307C734.779 205.851 735.115 206.187 735.787 206.347L737.035 206.635C738.379 206.939 739.115 207.723 739.115 208.859C739.115 209.963 738.171 211.179 736.347 211.179C734.331 211.179 733.419 209.899 733.291 208.939ZM741.743 206.379H746.319C746.287 205.163 745.503 204.203 744.047 204.203C742.719 204.203 741.823 205.243 741.743 206.379ZM746.495 208.379L747.599 208.779C747.167 210.107 745.967 211.179 744.191 211.179C742.143 211.179 740.399 209.675 740.399 207.099C740.399 204.683 742.095 203.067 744.031 203.067C746.351 203.067 747.647 204.683 747.647 207.019C747.647 207.179 747.631 207.355 747.615 207.467H741.711V207.531C741.711 208.987 742.815 210.027 744.191 210.027C745.487 210.027 746.191 209.291 746.495 208.379ZM753.536 203.243V204.603C753.328 204.539 753.088 204.523 752.864 204.523C751.584 204.523 750.704 205.259 750.704 206.987V210.955H749.424V203.291H750.672V204.667C751.168 203.547 752.144 203.179 752.992 203.179C753.2 203.179 753.424 203.211 753.536 203.243ZM761.465 203.291L758.409 210.955H757.113L754.025 203.291H755.465L757.769 209.467L760.089 203.291H761.465ZM764.227 210.955H762.947V203.291H764.227V210.955ZM762.627 200.267C762.627 199.739 763.059 199.307 763.587 199.307C764.115 199.307 764.547 199.739 764.547 200.267C764.547 200.795 764.115 201.227 763.587 201.227C763.059 201.227 762.627 200.795 762.627 200.267ZM769.833 204.219C768.489 204.219 767.321 205.259 767.321 207.115C767.321 208.955 768.489 210.027 769.849 210.027C771.305 210.027 771.913 209.003 772.137 208.299L773.257 208.795C772.889 209.931 771.817 211.179 769.849 211.179C767.641 211.179 766.041 209.451 766.041 207.115C766.041 204.731 767.673 203.067 769.833 203.067C771.801 203.067 772.873 204.267 773.193 205.483L772.041 205.979C771.833 205.163 771.209 204.219 769.833 204.219ZM775.74 206.379H780.316C780.284 205.163 779.5 204.203 778.044 204.203C776.716 204.203 775.82 205.243 775.74 206.379ZM780.492 208.379L781.596 208.779C781.164 210.107 779.964 211.179 778.188 211.179C776.14 211.179 774.396 209.675 774.396 207.099C774.396 204.683 776.092 203.067 778.028 203.067C780.348 203.067 781.644 204.683 781.644 207.019C781.644 207.179 781.628 207.355 781.612 207.467H775.708V207.531C775.708 208.987 776.812 210.027 778.188 210.027C779.484 210.027 780.188 209.291 780.492 208.379Z" fill="white"/>
<path d="M826.047 158.652L808.573 168.741L808.573 148.563L826.047 158.652Z" fill="#93A7BE"/>
<path d="M867.884 50.1786C865.004 50.1786 862.3 48.0666 862.3 44.2746C862.3 40.4826 865.084 38.3866 867.884 38.3866C870.46 38.3866 872.284 39.8106 872.844 41.9866L871.596 42.4186C871.164 40.6426 869.82 39.6186 867.884 39.6186C865.724 39.6186 863.644 41.2026 863.644 44.2746C863.644 47.3626 865.724 48.9466 867.884 48.9466C869.9 48.9466 871.212 47.7306 871.676 46.0986L872.86 46.5306C872.284 48.6586 870.476 50.1786 867.884 50.1786ZM877.678 42.0666C879.886 42.0666 881.518 43.7626 881.518 46.1146C881.518 48.4826 879.886 50.1786 877.678 50.1786C875.47 50.1786 873.838 48.4826 873.838 46.1146C873.838 43.7626 875.47 42.0666 877.678 42.0666ZM877.678 43.2186C876.302 43.2186 875.118 44.2586 875.118 46.1146C875.118 47.9866 876.302 49.0266 877.678 49.0266C879.054 49.0266 880.238 47.9866 880.238 46.1146C880.238 44.2586 879.054 43.2186 877.678 43.2186ZM884.419 42.2906V43.3786C884.851 42.5786 885.779 42.0666 886.771 42.0666C887.827 42.0666 888.739 42.6266 889.123 43.6346C889.667 42.5466 890.627 42.0666 891.715 42.0666C893.107 42.0666 894.355 43.0266 894.355 44.9466V49.9546H893.075V45.0906C893.075 44.0346 892.515 43.2186 891.315 43.2186C890.179 43.2186 889.411 44.1466 889.411 45.2986V49.9546H888.131V45.0906C888.131 44.0346 887.571 43.2186 886.355 43.2186C885.203 43.2186 884.451 44.1146 884.451 45.3146V49.9546H883.171V42.2906H884.419ZM897.709 52.9946H896.429V42.2906H897.677V43.5706C898.077 42.7866 898.973 42.0666 900.333 42.0666C902.589 42.0666 903.821 43.8266 903.821 46.1146C903.821 48.4026 902.509 50.1786 900.301 50.1786C898.989 50.1786 898.109 49.4906 897.709 48.7706V52.9946ZM900.109 49.0266C901.581 49.0266 902.541 47.8106 902.541 46.1146C902.541 44.4186 901.597 43.2186 900.109 43.2186C898.621 43.2186 897.677 44.4186 897.677 46.1146C897.677 47.8106 898.637 49.0266 900.109 49.0266ZM908.796 42.0666C911.004 42.0666 912.636 43.7626 912.636 46.1146C912.636 48.4826 911.004 50.1786 908.796 50.1786C906.588 50.1786 904.956 48.4826 904.956 46.1146C904.956 43.7626 906.588 42.0666 908.796 42.0666ZM908.796 43.2186C907.42 43.2186 906.236 44.2586 906.236 46.1146C906.236 47.9866 907.42 49.0266 908.796 49.0266C910.172 49.0266 911.356 47.9866 911.356 46.1146C911.356 44.2586 910.172 43.2186 908.796 43.2186ZM913.665 47.9386L914.817 47.5386C914.929 48.4186 915.585 49.0906 916.737 49.0906C917.649 49.0906 918.225 48.5786 918.225 47.9226C918.225 47.3466 917.761 46.9626 917.057 46.8026L915.809 46.5146C914.641 46.2426 913.905 45.4906 913.905 44.3866C913.905 43.1066 915.121 42.0666 916.577 42.0666C918.561 42.0666 919.249 43.3306 919.425 44.1146L918.289 44.5306C918.193 44.0026 917.793 43.1546 916.577 43.1546C915.777 43.1546 915.153 43.6666 915.153 44.3066C915.153 44.8506 915.489 45.1866 916.161 45.3466L917.409 45.6346C918.753 45.9386 919.489 46.7226 919.489 47.8586C919.489 48.9626 918.545 50.1786 916.721 50.1786C914.705 50.1786 913.793 48.8986 913.665 47.9386ZM920.597 47.9226C920.597 46.5786 921.541 45.8266 922.885 45.6346L924.949 45.3306C925.509 45.2506 925.637 45.0106 925.637 44.6746C925.637 43.8106 925.061 43.1546 923.861 43.1546C922.741 43.1546 922.069 43.8266 921.957 44.8026L920.741 44.5146C920.901 43.0586 922.181 42.0666 923.829 42.0666C926.005 42.0666 926.917 43.3146 926.917 44.8026V48.6746C926.917 49.3146 926.965 49.7146 927.013 49.9546H925.765C925.733 49.7786 925.669 49.3946 925.669 48.8026C925.333 49.4266 924.501 50.1786 923.125 50.1786C921.541 50.1786 920.597 49.0906 920.597 47.9226ZM923.285 49.0906C924.613 49.0906 925.637 48.3546 925.637 46.7226V46.2106L923.141 46.5786C922.405 46.6906 921.877 47.1066 921.877 47.8586C921.877 48.4826 922.405 49.0906 923.285 49.0906ZM930.256 49.9546H929.008V38.3866H930.288V43.5386C930.64 42.8186 931.536 42.0666 932.912 42.0666C935.184 42.0666 936.4 43.8746 936.4 46.1146C936.4 48.4026 935.104 50.1786 932.88 50.1786C931.6 50.1786 930.704 49.5226 930.256 48.6906V49.9546ZM932.688 49.0266C934.16 49.0266 935.12 47.8106 935.12 46.1146C935.12 44.4186 934.176 43.2186 932.688 43.2186C931.2 43.2186 930.256 44.4186 930.256 46.1146C930.256 47.8106 931.216 49.0266 932.688 49.0266ZM939.343 49.9546H938.063V38.3866H939.343V49.9546ZM942.34 45.3786H946.916C946.884 44.1626 946.1 43.2026 944.644 43.2026C943.316 43.2026 942.42 44.2426 942.34 45.3786ZM947.092 47.3786L948.196 47.7786C947.764 49.1066 946.564 50.1786 944.788 50.1786C942.74 50.1786 940.996 48.6746 940.996 46.0986C940.996 43.6826 942.692 42.0666 944.628 42.0666C946.948 42.0666 948.244 43.6826 948.244 46.0186C948.244 46.1786 948.228 46.3546 948.212 46.4666H942.308V46.5306C942.308 47.9866 943.412 49.0266 944.788 49.0266C946.084 49.0266 946.788 48.2906 947.092 47.3786ZM955.283 44.0506H957.683C959.139 44.0506 960.035 43.2026 960.035 41.9546C960.035 40.6586 959.139 39.8106 957.683 39.8106H955.283V44.0506ZM957.891 45.2506H955.283V49.9546H953.939V38.6106H957.891C959.987 38.6106 961.379 40.0506 961.379 41.9386C961.379 43.8426 959.987 45.2506 957.891 45.2506ZM964.079 49.9546H962.799V38.3866H964.079V49.9546ZM965.716 47.9226C965.716 46.5786 966.66 45.8266 968.004 45.6346L970.068 45.3306C970.628 45.2506 970.756 45.0106 970.756 44.6746C970.756 43.8106 970.18 43.1546 968.98 43.1546C967.86 43.1546 967.188 43.8266 967.076 44.8026L965.86 44.5146C966.02 43.0586 967.3 42.0666 968.948 42.0666C971.124 42.0666 972.036 43.3146 972.036 44.8026V48.6746C972.036 49.3146 972.084 49.7146 972.132 49.9546H970.884C970.852 49.7786 970.788 49.3946 970.788 48.8026C970.452 49.4266 969.62 50.1786 968.244 50.1786C966.66 50.1786 965.716 49.0906 965.716 47.9226ZM968.404 49.0906C969.732 49.0906 970.756 48.3546 970.756 46.7226V46.2106L968.26 46.5786C967.524 46.6906 966.996 47.1066 966.996 47.8586C966.996 48.4826 967.524 49.0906 968.404 49.0906ZM975.921 39.8586V42.2906H977.729V43.4426H975.921V47.6826C975.921 48.4826 976.273 48.8826 977.089 48.8826C977.313 48.8826 977.601 48.8346 977.729 48.8026V49.8906C977.585 49.9386 977.217 50.0346 976.721 50.0346C975.457 50.0346 974.641 49.2506 974.641 47.8586V43.4426H973.105V42.2906H973.601C974.385 42.2906 974.721 41.8426 974.721 41.1226V39.8586H975.921ZM983.007 43.4426H981.023V49.9546H979.743V43.4426H978.239V42.2906H979.743V40.8666C979.743 39.1866 980.799 38.3066 982.159 38.3066C982.623 38.3066 982.927 38.4026 983.039 38.4666V39.5706C982.927 39.5226 982.719 39.4586 982.351 39.4586C981.727 39.4586 981.023 39.7946 981.023 40.8986V42.2906H983.007V43.4426ZM987.377 42.0666C989.585 42.0666 991.217 43.7626 991.217 46.1146C991.217 48.4826 989.585 50.1786 987.377 50.1786C985.169 50.1786 983.537 48.4826 983.537 46.1146C983.537 43.7626 985.169 42.0666 987.377 42.0666ZM987.377 43.2186C986.001 43.2186 984.817 44.2586 984.817 46.1146C984.817 47.9866 986.001 49.0266 987.377 49.0266C988.753 49.0266 989.937 47.9866 989.937 46.1146C989.937 44.2586 988.753 43.2186 987.377 43.2186ZM996.982 42.2426V43.6026C996.774 43.5386 996.534 43.5226 996.31 43.5226C995.03 43.5226 994.15 44.2586 994.15 45.9866V49.9546H992.87V42.2906H994.118V43.6666C994.614 42.5466 995.59 42.1786 996.438 42.1786C996.646 42.1786 996.87 42.2106 996.982 42.2426ZM999.424 42.2906V43.3786C999.856 42.5786 1000.78 42.0666 1001.78 42.0666C1002.83 42.0666 1003.74 42.6266 1004.13 43.6346C1004.67 42.5466 1005.63 42.0666 1006.72 42.0666C1008.11 42.0666 1009.36 43.0266 1009.36 44.9466V49.9546H1008.08V45.0906C1008.08 44.0346 1007.52 43.2186 1006.32 43.2186C1005.18 43.2186 1004.42 44.1466 1004.42 45.2986V49.9546H1003.14V45.0906C1003.14 44.0346 1002.58 43.2186 1001.36 43.2186C1000.21 43.2186 999.456 44.1146 999.456 45.3146V49.9546H998.176V42.2906H999.424Z" fill="#93A7BE"/>
<rect x="835" y="64.9546" width="203" height="196" rx="7" stroke="#93A7BE" stroke-width="2"/>
<g clip-path="url(#clip4_2148_13333)">
<rect x="842" y="218.5" width="53" height="36" rx="6" fill="#EE9511"/>
<path d="M854.612 242.724C852.308 242.724 850.596 241.3 850.596 238.66V231.156H851.94V238.628C851.94 240.452 852.9 241.492 854.612 241.492C856.324 241.492 857.284 240.452 857.284 238.628V231.156H858.628V238.66C858.628 241.3 856.916 242.724 854.612 242.724ZM860.323 240.484L861.475 240.084C861.587 240.964 862.243 241.636 863.395 241.636C864.307 241.636 864.883 241.124 864.883 240.468C864.883 239.892 864.419 239.508 863.715 239.348L862.467 239.06C861.299 238.788 860.563 238.036 860.563 236.932C860.563 235.652 861.779 234.612 863.235 234.612C865.219 234.612 865.907 235.876 866.083 236.66L864.947 237.076C864.851 236.548 864.451 235.7 863.235 235.7C862.435 235.7 861.811 236.212 861.811 236.852C861.811 237.396 862.147 237.732 862.819 237.892L864.067 238.18C865.411 238.484 866.147 239.268 866.147 240.404C866.147 241.508 865.203 242.724 863.379 242.724C861.363 242.724 860.451 241.444 860.323 240.484ZM868.775 237.924H873.351C873.319 236.708 872.535 235.748 871.079 235.748C869.751 235.748 868.855 236.788 868.775 237.924ZM873.527 239.924L874.631 240.324C874.199 241.652 872.999 242.724 871.223 242.724C869.175 242.724 867.431 241.22 867.431 238.644C867.431 236.228 869.127 234.612 871.063 234.612C873.383 234.612 874.679 236.228 874.679 238.564C874.679 238.724 874.663 238.9 874.647 239.012H868.743V239.076C868.743 240.532 869.847 241.572 871.223 241.572C872.519 241.572 873.223 240.836 873.527 239.924ZM880.567 234.788V236.148C880.359 236.084 880.119 236.068 879.895 236.068C878.615 236.068 877.735 236.804 877.735 238.532V242.5H876.455V234.836H877.703V236.212C878.199 235.092 879.175 234.724 880.023 234.724C880.231 234.724 880.455 234.756 880.567 234.788ZM881.296 240.484L882.448 240.084C882.56 240.964 883.216 241.636 884.368 241.636C885.28 241.636 885.856 241.124 885.856 240.468C885.856 239.892 885.392 239.508 884.688 239.348L883.44 239.06C882.272 238.788 881.536 238.036 881.536 236.932C881.536 235.652 882.752 234.612 884.208 234.612C886.192 234.612 886.88 235.876 887.056 236.66L885.92 237.076C885.824 236.548 885.424 235.7 884.208 235.7C883.408 235.7 882.784 236.212 882.784 236.852C882.784 237.396 883.12 237.732 883.792 237.892L885.04 238.18C886.384 238.484 887.12 239.268 887.12 240.404C887.12 241.508 886.176 242.724 884.352 242.724C882.336 242.724 881.424 241.444 881.296 240.484Z" fill="white"/>
</g>
<g clip-path="url(#clip5_2148_13333)">
<rect x="842" y="71.9546" width="75" height="33" rx="6" fill="#B1AFFC"/>
<path d="M859.271 84.3426H855.383V94.4546H854.055V84.3426H850.167V83.1106H859.271V84.3426ZM861.371 89.8786V94.4546H860.091V82.8866H861.371V87.8146C861.867 87.0146 862.747 86.5666 863.739 86.5666C865.579 86.5666 866.475 87.8786 866.475 89.5426V94.4546H865.195V89.7346C865.195 88.6146 864.683 87.7186 863.291 87.7186C862.075 87.7186 861.371 88.6946 861.371 89.8786ZM869.529 89.8786H874.105C874.073 88.6626 873.289 87.7026 871.833 87.7026C870.505 87.7026 869.609 88.7426 869.529 89.8786ZM874.281 91.8786L875.385 92.2786C874.953 93.6066 873.753 94.6786 871.977 94.6786C869.929 94.6786 868.185 93.1746 868.185 90.5986C868.185 88.1826 869.881 86.5666 871.817 86.5666C874.137 86.5666 875.433 88.1826 875.433 90.5186C875.433 90.6786 875.417 90.8546 875.401 90.9666H869.497V91.0306C869.497 92.4866 870.601 93.5266 871.977 93.5266C873.273 93.5266 873.977 92.7906 874.281 91.8786ZM888.946 94.4546L887.65 91.1426L882.45 91.1426L881.186 94.4546H879.73L884.274 83.1106H885.842L890.402 94.4546H888.946ZM885.042 84.4866L882.93 89.9106L887.17 89.9106L885.042 84.4866ZM893.075 97.4946H891.795V86.7906H893.043V88.0706C893.443 87.2866 894.339 86.5666 895.699 86.5666C897.955 86.5666 899.187 88.3266 899.187 90.6146C899.187 92.9026 897.875 94.6786 895.667 94.6786C894.355 94.6786 893.475 93.9906 893.075 93.2706V97.4946ZM895.475 93.5266C896.947 93.5266 897.907 92.3106 897.907 90.6146C897.907 88.9186 896.963 87.7186 895.475 87.7186C893.987 87.7186 893.043 88.9186 893.043 90.6146C893.043 92.3106 894.003 93.5266 895.475 93.5266ZM902.29 97.4946H901.01V86.7906H902.258V88.0706C902.658 87.2866 903.554 86.5666 904.914 86.5666C907.17 86.5666 908.402 88.3266 908.402 90.6146C908.402 92.9026 907.09 94.6786 904.882 94.6786C903.57 94.6786 902.69 93.9906 902.29 93.2706V97.4946ZM904.69 93.5266C906.162 93.5266 907.122 92.3106 907.122 90.6146C907.122 88.9186 906.178 87.7186 904.69 87.7186C903.202 87.7186 902.258 88.9186 902.258 90.6146C902.258 92.3106 903.218 93.5266 904.69 93.5266Z" fill="white"/>
</g>
<g clip-path="url(#clip6_2148_13333)">
<rect x="900" y="218.5" width="66" height="36" rx="6" fill="#24C068"/>
<path d="M905.454 236.596H907.854C909.31 236.596 910.207 235.748 910.207 234.5C910.207 233.204 909.31 232.356 907.854 232.356H905.454V236.596ZM908.062 237.796H905.454V242.5H904.11V231.156H908.062C910.158 231.156 911.55 232.596 911.55 234.484C911.55 236.388 910.158 237.796 908.062 237.796ZM912.243 240.468C912.243 239.124 913.187 238.372 914.531 238.18L916.595 237.876C917.155 237.796 917.283 237.556 917.283 237.22C917.283 236.356 916.707 235.7 915.507 235.7C914.387 235.7 913.715 236.372 913.603 237.348L912.387 237.06C912.547 235.604 913.827 234.612 915.475 234.612C917.651 234.612 918.563 235.86 918.563 237.348V241.22C918.563 241.86 918.611 242.26 918.659 242.5H917.411C917.379 242.324 917.315 241.94 917.315 241.348C916.979 241.972 916.147 242.724 914.771 242.724C913.187 242.724 912.243 241.636 912.243 240.468ZM914.931 241.636C916.259 241.636 917.283 240.9 917.283 239.268V238.756L914.787 239.124C914.051 239.236 913.523 239.652 913.523 240.404C913.523 241.028 914.051 241.636 914.931 241.636ZM922.563 245.54H921.139L922.995 241.588L919.699 234.836H921.171L923.699 240.26L926.083 234.836H927.475L922.563 245.54ZM930.074 234.836V235.924C930.506 235.124 931.434 234.612 932.426 234.612C933.482 234.612 934.394 235.172 934.778 236.18C935.322 235.092 936.282 234.612 937.37 234.612C938.762 234.612 940.01 235.572 940.01 237.492V242.5H938.73V237.636C938.73 236.58 938.17 235.764 936.97 235.764C935.834 235.764 935.066 236.692 935.066 237.844V242.5H933.786V237.636C933.786 236.58 933.226 235.764 932.01 235.764C930.858 235.764 930.106 236.66 930.106 237.86V242.5H928.826V234.836H930.074ZM943.06 237.924H947.636C947.604 236.708 946.82 235.748 945.364 235.748C944.036 235.748 943.14 236.788 943.06 237.924ZM947.812 239.924L948.916 240.324C948.484 241.652 947.284 242.724 945.508 242.724C943.46 242.724 941.716 241.22 941.716 238.644C941.716 236.228 943.412 234.612 945.348 234.612C947.668 234.612 948.964 236.228 948.964 238.564C948.964 238.724 948.948 238.9 948.932 239.012H943.028V239.076C943.028 240.532 944.132 241.572 945.508 241.572C946.804 241.572 947.508 240.836 947.812 239.924ZM952.021 237.988V242.5H950.741V234.836H951.989V235.988C952.485 235.092 953.381 234.612 954.389 234.612C956.229 234.612 957.125 235.924 957.125 237.588V242.5H955.845V237.78C955.845 236.66 955.333 235.764 953.941 235.764C952.709 235.764 952.021 236.788 952.021 237.988ZM961.14 232.404V234.836H962.948V235.988H961.14V240.228C961.14 241.028 961.492 241.428 962.308 241.428C962.532 241.428 962.82 241.38 962.948 241.348V242.436C962.804 242.484 962.436 242.58 961.94 242.58C960.676 242.58 959.86 241.796 959.86 240.404V235.988H958.324V234.836H958.82C959.604 234.836 959.94 234.388 959.94 233.668V232.404H961.14Z" fill="white"/>
</g>
<g clip-path="url(#clip7_2148_13333)">
<rect x="971" y="218.5" width="59" height="36" rx="6" fill="#00BFD9"/>
<path d="M984.92 233.732L983.72 234.164C983.544 233.204 982.792 232.148 981.16 232.132C979.848 232.132 978.808 232.996 978.808 234.148C978.808 235.06 979.4 235.716 980.44 235.94L982.104 236.308C983.928 236.708 985.016 237.844 985.016 239.444C985.016 241.188 983.528 242.724 981.16 242.724C978.536 242.724 977.208 241.012 977 239.348L978.264 238.948C978.392 240.292 979.368 241.508 981.16 241.508C982.792 241.508 983.672 240.644 983.672 239.556C983.672 238.628 983.032 237.908 981.832 237.636L980.168 237.268C978.6 236.916 977.464 235.892 977.464 234.228C977.464 232.452 979.096 230.932 981.144 230.932C983.592 230.932 984.632 232.42 984.92 233.732ZM987.718 237.924H992.294C992.262 236.708 991.478 235.748 990.022 235.748C988.694 235.748 987.798 236.788 987.718 237.924ZM992.47 239.924L993.574 240.324C993.142 241.652 991.942 242.724 990.166 242.724C988.118 242.724 986.374 241.22 986.374 238.644C986.374 236.228 988.07 234.612 990.006 234.612C992.326 234.612 993.622 236.228 993.622 238.564C993.622 238.724 993.606 238.9 993.59 239.012H987.686V239.076C987.686 240.532 988.79 241.572 990.166 241.572C991.462 241.572 992.166 240.836 992.47 239.924ZM994.854 240.468C994.854 239.124 995.798 238.372 997.142 238.18L999.206 237.876C999.766 237.796 999.894 237.556 999.894 237.22C999.894 236.356 999.318 235.7 998.118 235.7C996.998 235.7 996.326 236.372 996.214 237.348L994.998 237.06C995.158 235.604 996.438 234.612 998.086 234.612C1000.26 234.612 1001.17 235.86 1001.17 237.348V241.22C1001.17 241.86 1001.22 242.26 1001.27 242.5H1000.02C999.99 242.324 999.926 241.94 999.926 241.348C999.59 241.972 998.758 242.724 997.382 242.724C995.798 242.724 994.854 241.636 994.854 240.468ZM997.542 241.636C998.87 241.636 999.894 240.9 999.894 239.268V238.756L997.398 239.124C996.662 239.236 996.134 239.652 996.134 240.404C996.134 241.028 996.662 241.636 997.542 241.636ZM1007.54 234.788V236.148C1007.33 236.084 1007.09 236.068 1006.87 236.068C1005.59 236.068 1004.71 236.804 1004.71 238.532V242.5H1003.43V234.836H1004.67V236.212C1005.17 235.092 1006.15 234.724 1006.99 234.724C1007.2 234.724 1007.43 234.756 1007.54 234.788ZM1011.98 235.764C1010.64 235.764 1009.47 236.804 1009.47 238.66C1009.47 240.5 1010.64 241.572 1012 241.572C1013.45 241.572 1014.06 240.548 1014.29 239.844L1015.41 240.34C1015.04 241.476 1013.97 242.724 1012 242.724C1009.79 242.724 1008.19 240.996 1008.19 238.66C1008.19 236.276 1009.82 234.612 1011.98 234.612C1013.95 234.612 1015.02 235.812 1015.34 237.028L1014.19 237.524C1013.98 236.708 1013.36 235.764 1011.98 235.764ZM1018.35 237.924V242.5H1017.07V230.932H1018.35V235.86C1018.85 235.06 1019.73 234.612 1020.72 234.612C1022.56 234.612 1023.46 235.924 1023.46 237.588V242.5H1022.18V237.78C1022.18 236.66 1021.67 235.764 1020.27 235.764C1019.06 235.764 1018.35 236.74 1018.35 237.924Z" fill="white"/>
</g>
<path d="M879.5 104.954C879.5 121.296 936.5 112.41 936.5 133.051" stroke="#94A3B8" stroke-width="2"/>
<path d="M941.807 174.765C941.807 200.202 1001.08 196.653 1001.08 218.5" stroke="#94A3B8" stroke-width="2"/>
<path d="M941.807 174.765C941.807 200.202 877.161 187.552 877.161 218.5" stroke="#94A3B8" stroke-width="2"/>
<path d="M941.806 174.765C941.806 200.379 934.42 187.337 934.42 218.5" stroke="#94A3B8" stroke-width="2"/>
<path d="M941.807 167.051L948.267 175.033H935.346L941.807 167.051Z" fill="#93A7BE"/>
<rect x="895" y="133.051" width="87" height="34" rx="6" fill="#2D75FF"/>
<path d="M911.784 150.147H914.184C915.64 150.147 916.536 149.299 916.536 148.051C916.536 146.755 915.64 145.907 914.184 145.907H911.784V150.147ZM914.392 151.347H911.784V156.051H910.44V144.707H914.392C916.488 144.707 917.88 146.147 917.88 148.035C917.88 149.939 916.488 151.347 914.392 151.347ZM920.74 156.051H919.46V144.483H920.74V156.051ZM922.538 154.019C922.538 152.675 923.482 151.923 924.826 151.731L926.89 151.427C927.45 151.347 927.578 151.107 927.578 150.771C927.578 149.907 927.002 149.251 925.802 149.251C924.682 149.251 924.01 149.923 923.898 150.899L922.682 150.611C922.842 149.155 924.122 148.163 925.77 148.163C927.946 148.163 928.858 149.411 928.858 150.899V154.771C928.858 155.411 928.906 155.811 928.954 156.051H927.706C927.674 155.875 927.61 155.491 927.61 154.899C927.274 155.523 926.442 156.275 925.066 156.275C923.482 156.275 922.538 155.187 922.538 154.019ZM925.226 155.187C926.554 155.187 927.578 154.451 927.578 152.819V152.307L925.082 152.675C924.346 152.787 923.818 153.203 923.818 153.955C923.818 154.579 924.346 155.187 925.226 155.187ZM932.903 145.955V148.387H934.711V149.539H932.903V153.779C932.903 154.579 933.255 154.979 934.071 154.979C934.295 154.979 934.583 154.931 934.711 154.899V155.987C934.567 156.035 934.199 156.131 933.703 156.131C932.439 156.131 931.623 155.347 931.623 153.955V149.539H930.087V148.387H930.583C931.367 148.387 931.703 147.939 931.703 147.219V145.955H932.903ZM940.149 149.539H938.165V156.051H936.885V149.539H935.381V148.387H936.885V146.963C936.885 145.283 937.941 144.403 939.301 144.403C939.765 144.403 940.069 144.499 940.181 144.563V145.667C940.069 145.619 939.861 145.555 939.493 145.555C938.869 145.555 938.165 145.891 938.165 146.995V148.387H940.149V149.539ZM944.679 148.163C946.887 148.163 948.519 149.859 948.519 152.211C948.519 154.579 946.887 156.275 944.679 156.275C942.471 156.275 940.839 154.579 940.839 152.211C940.839 149.859 942.471 148.163 944.679 148.163ZM944.679 149.315C943.303 149.315 942.119 150.355 942.119 152.211C942.119 154.083 943.303 155.123 944.679 155.123C946.055 155.123 947.239 154.083 947.239 152.211C947.239 150.355 946.055 149.315 944.679 149.315ZM954.444 148.339V149.699C954.236 149.635 953.996 149.619 953.772 149.619C952.492 149.619 951.612 150.355 951.612 152.083V156.051H950.332V148.387H951.58V149.763C952.076 148.643 953.052 148.275 953.9 148.275C954.108 148.275 954.332 148.307 954.444 148.339ZM957.045 148.387V149.475C957.477 148.675 958.405 148.163 959.397 148.163C960.453 148.163 961.365 148.723 961.749 149.731C962.293 148.643 963.253 148.163 964.341 148.163C965.733 148.163 966.981 149.123 966.981 151.043V156.051H965.701V151.187C965.701 150.131 965.141 149.315 963.941 149.315C962.805 149.315 962.037 150.243 962.037 151.395V156.051H960.757V151.187C960.757 150.131 960.197 149.315 958.981 149.315C957.829 149.315 957.077 150.211 957.077 151.411V156.051H955.797V148.387H957.045Z" fill="white"/>
</g>
<defs>
<clipPath id="clip0_2148_13333">
<rect width="1043" height="301" fill="white"/>
</clipPath>
<clipPath id="clip1_2148_13333">
<rect x="350" y="140.955" width="58" height="115" rx="6" fill="white"/>
</clipPath>
<clipPath id="clip2_2148_13333">
<rect x="411" y="140.955" width="57" height="115" rx="6" fill="white"/>
</clipPath>
<clipPath id="clip3_2148_13333">
<rect x="472" y="140.955" width="57" height="115" rx="6" fill="white"/>
</clipPath>
<clipPath id="clip4_2148_13333">
<rect x="842" y="218.5" width="53" height="36" rx="6" fill="white"/>
</clipPath>
<clipPath id="clip5_2148_13333">
<rect x="842" y="71.9546" width="75" height="33" rx="6" fill="white"/>
</clipPath>
<clipPath id="clip6_2148_13333">
<rect x="900" y="218.5" width="66" height="36" rx="6" fill="white"/>
</clipPath>
<clipPath id="clip7_2148_13333">
<rect x="971" y="218.5" width="59" height="36" rx="6" fill="white"/>
</clipPath>
</defs>
</svg>
